<?xml version="1.0" encoding="UTF-8"?>
<!DOCTYPE svg PUBLIC "-//W3C//DTD SVG 1.1//EN" "http://www.w3.org/Graphics/SVG/1.1/DTD/svg11.dtd">
<!-- Creator: CorelDRAW X7 -->
<svg xmlns="http://www.w3.org/2000/svg" xml:space="preserve" width="131.214mm" height="129.848mm" version="1.1" style="shape-rendering:geometricPrecision; text-rendering:geometricPrecision; image-rendering:optimizeQuality; fill-rule:evenodd; clip-rule:evenodd"
viewBox="0 0 13109 12972"
 xmlns:xlink="http://www.w3.org/1999/xlink">
 <defs>
  <style type="text/css">
   <![CDATA[
    .fil0 {fill:#332C2B}
   ]]>
  </style>
 </defs>
 <g id="Layer_x0020_1">
  <metadata id="CorelCorpID_0Corel-Layer"/>
  <path class="fil0" d="M2748 9720c-34,14 -57,19 -96,6 -104,-34 -207,-330 -22,-237 29,15 37,37 53,65 21,33 67,123 65,166zm-997 674c-20,-32 -44,-43 -72,-66 -87,-72 -178,-68 -167,-196 60,-27 97,-31 142,28 76,99 310,243 391,242 5,-91 -37,-104 -109,-118 -33,-7 -118,-55 -144,-81 -23,-23 -30,-50 -49,-72 -5,-6 -212,-103 -99,-171 71,-43 110,41 121,59 27,44 57,81 99,105 9,28 99,86 137,63 -10,-64 -214,-268 -230,-288 -43,-52 -37,-67 23,-117 21,7 16,6 30,16 6,4 9,7 16,14l273 293c32,25 45,16 70,50 43,57 24,94 96,94 17,0 41,-6 51,-16 16,-16 20,-30 14,-61 -6,-35 -9,-24 -22,-43 -69,-101 -59,-14 -106,-77l-123 -191c-39,-59 -101,-78 -88,-153 9,-49 33,-51 90,-50 2,5 31,88 32,90 20,30 34,0 53,60 18,58 -9,39 42,76 142,102 200,135 289,276 71,10 173,-1 268,-19 956,986 2294,1598 3775,1598 2535,0 4650,-1792 5149,-4178 44,-51 76,-94 116,-154 23,-34 30,-39 55,-75 25,-34 33,-42 53,-80l335 -485c14,-26 29,-53 47,-83l311 -508c49,-67 124,-264 154,-312l253 -494c27,-48 79,-118 82,-185 -35,13 -34,23 -55,50 -18,22 -31,31 -49,52 -239,285 -482,574 -710,867 -70,100 -119,141 -173,220l-322 495c9,-128 14,-258 14,-389 0,-2905 -2355,-5260 -5260,-5260 -2904,0 -5259,2355 -5259,5260 0,1061 314,2049 855,2875l-43 28c-36,22 -60,46 -91,70l-301 205c-16,12 -29,21 -49,32l-44 27c-2,1 -4,3 -6,4 -25,21 -72,55 -101,70 -283,141 -126,173 -293,194 -3,61 11,61 40,90l224 192c206,150 164,242 320,230 6,-12 7,-11 16,-25l14 -21c-32,-17 -53,-48 -85,-57zm2964 -4077l124 9c39,-129 52,-151 -64,-289 -14,-16 -17,-23 -40,-40 -71,-51 -175,-106 -198,13 -11,52 30,64 64,91 85,64 69,138 114,216zm7 -488c22,64 143,67 235,268 24,53 19,73 49,124 106,-9 135,-28 208,-60 -2,-129 -88,-172 -158,-233 -101,-86 -176,-221 -270,-155 -16,11 -45,43 -64,56zm2875 -2563l141 -182c-24,-47 -54,-43 -151,-41 -166,4 -257,62 -349,6 -25,-15 -35,-31 -66,-37 -26,-5 -78,-3 -94,7 -54,34 10,100 37,123 98,85 353,140 482,124zm-382 909c193,24 143,-46 218,-184 45,-81 133,-292 140,-362 7,-68 25,-212 -56,-243 -45,-17 -73,-21 -119,-15 -17,54 -27,138 -40,200l-107 391c-23,62 -47,119 -36,213zm3106 1471c1,-32 -30,-114 -20,-268 7,-120 65,-148 63,-230 -93,-71 -181,-62 -290,-21 -41,16 -114,19 -138,53 -25,37 -11,124 6,161 50,108 167,216 257,308 43,43 78,26 122,-3zm-5353 77c39,1 52,22 102,46 2,2 5,3 7,4 101,52 116,103 187,201 2,2 3,4 5,6 1,2 2,5 4,7l67 114c23,41 -7,20 30,30 27,16 -3,22 62,-16l57 -33c2,-1 4,-3 6,-4 1,-1 4,-3 5,-4 2,-2 4,-3 6,-5 23,-15 28,-15 48,-33 2,-44 -27,-124 -46,-155 -45,-71 -46,-49 -105,-97l-16 -14c-57,-47 -70,-37 -86,-86 -33,-101 5,-37 -91,-121 0,-2 45,-218 -73,-117l-132 140c-33,45 -47,58 -37,137zm1970 7240c3,2 6,0 8,3 6,14 125,0 146,-1l45 -8c13,-4 11,-1 16,-27l-1 -100c-2,-45 -10,-89 -14,-125 -26,-224 -28,-509 -63,-787 -56,-3 -110,4 -157,9 -91,9 -58,25 -54,104 7,116 12,216 22,316 11,107 15,376 28,471l24 145zm2438 -7591c-11,6 -19,7 -33,14 -30,14 -20,13 -38,22 -36,17 -65,16 -111,7 -53,-57 -81,-156 -173,-169 -2,252 2,182 38,360 27,126 135,405 315,360 78,-20 282,-172 237,-286 -19,-49 -198,-281 -235,-308zm-2792 -1855c3,46 21,59 54,82 19,14 20,13 34,26 109,99 161,97 239,227 71,117 75,181 119,285 145,-45 252,-532 237,-744 -177,-7 -308,47 -438,61l-245 63zm-3616 8212c-14,75 -18,173 16,235 8,15 18,28 30,40 80,88 326,213 452,103 82,-73 127,-120 180,-235l204 -352c20,-34 25,-65 46,-97 26,-42 34,-39 54,-89 -8,-10 -5,-7 -16,-17l-129 -84c-80,-41 -93,62 -165,188l-232 394c-59,103 -156,160 -211,66 -23,-40 -7,-74 -32,-98 -20,-20 -159,-57 -197,-54zm4879 161l3 -43 -24 -35c-7,-8 3,-9 -22,-19 -31,-12 -197,40 -213,48l210 870c9,49 5,95 29,131 60,12 602,-117 628,-133 5,-43 -27,-173 -40,-203 -71,1 -40,13 -95,25 -36,7 -81,6 -117,13 -56,11 -131,48 -199,48 -32,-81 -149,-619 -160,-702zm-5206 -4561c-34,21 -99,67 -130,93 -206,168 -398,335 -566,546 -48,61 -71,56 -73,151 -1,43 -2,66 27,87 79,57 305,-141 443,-198 70,-29 193,-140 260,-184 60,-40 145,-102 150,-179 17,-274 -111,-287 -111,-316zm8162 -5721c-3,-23 -93,-89 -117,-106l-36 -25c-2,-1 -4,-3 -6,-4 -55,-41 -102,-81 -156,-127 -87,-76 -95,-70 -162,-120 -31,-23 -44,-44 -76,-66 -24,-17 -62,-49 -85,-59 -50,25 -42,33 -73,69 -24,29 -37,35 -47,84 48,67 183,129 216,192 -17,32 -103,133 -131,168 -11,13 -22,25 -32,38l-223 282c-22,27 -36,55 -58,84 -58,74 -86,78 -25,126l120 93c89,-32 152,-174 213,-244l207 -269c40,-43 81,-83 106,-139 45,-1 29,-6 69,35l58 53c24,21 37,27 62,49 24,19 30,28 64,37 11,-12 22,-26 32,-40l29 -41c33,-39 55,-34 51,-70zm-3659 5629c-5,-5 -14,-13 -25,-36l-41 -78 44 13c-12,-15 -28,-32 -52,-67l-34 -55 1 8c-154,-113 -473,-318 -586,-430 -17,-13 -28,-17 -36,-20 -40,-14 -47,-16 -57,-111l-7 -61c-97,-109 -282,-252 -338,-337 -58,-89 -94,-76 -137,-95 -147,-65 -127,-23 -193,-50 10,-28 15,-29 55,-52 89,-53 163,-85 255,-59 2,60 115,105 139,107 97,9 31,-73 191,-59 21,7 57,83 132,85 38,1 239,-115 299,-150 85,-50 121,-95 189,-133 91,-51 59,-38 162,-63 38,-9 54,-15 82,-28 65,-29 165,-39 253,-54l73 -65 4 -3c5,-4 7,-6 13,-10l0 0c5,-2 7,-3 11,-4 1,-1 3,-1 9,-4 28,-11 65,-19 103,-28 37,-8 75,-16 95,-25 14,-6 20,-11 25,-15 15,-11 28,-20 74,-34l5 -2 -28 -13c-42,10 -84,23 -106,30 -32,9 -54,18 -88,31 -43,18 -64,13 -108,25 -42,13 -37,16 -95,25l-202 51c-43,13 -68,11 -107,26 -68,25 -59,0 -152,32 -156,54 -79,21 -207,115 -48,35 -74,98 -130,119 -86,33 -144,116 -252,-4 -53,-60 -106,-236 -37,-270l142 -72c119,-76 187,-108 300,-42 136,78 195,-8 312,-66 15,-7 31,-13 42,-19 25,-15 -14,14 17,-12 18,-15 6,-5 15,-14 19,-20 14,-18 36,-35 37,-30 120,-73 181,-74 36,28 42,53 94,70 87,30 52,35 131,35 3,-103 -52,-144 -131,-179 -107,-49 6,-57 -157,-42 -145,12 -85,49 -209,128l-131 81c-52,29 -92,56 -170,46 -6,-47 26,-146 46,-179 18,-28 36,-34 62,-49 175,-103 43,-40 238,-116 35,-13 45,-23 78,-32 51,-14 39,-7 78,-30 75,-4 72,-24 149,-22 59,118 -36,40 155,189 76,59 148,91 265,63 59,-14 78,-22 125,-46l236 -188c74,-64 205,-278 212,-384 11,-153 2,-189 -30,-315 -83,-336 -197,-423 -26,-357 194,76 165,63 187,170l13 73c54,126 112,254 163,381 0,1 0,1 -1,1l-1 0c4,5 9,12 13,22 17,35 17,65 17,97 1,17 1,36 6,53 9,35 26,75 45,121 33,81 74,177 99,304 12,98 35,259 58,353 10,68 25,125 37,174 9,33 16,62 21,88 11,54 26,98 43,145 9,25 18,51 27,82 8,26 11,42 13,54 2,8 2,9 28,34 8,7 17,17 26,27 34,36 75,80 147,61 23,-7 31,-15 40,-24 12,-12 26,-25 51,-40l122 -72 -16 43c10,2 21,5 31,9l13 -2 0 8 2 1 0 0c16,8 21,11 27,19 11,13 12,22 10,30l194 421c100,198 12,115 38,261 19,105 96,288 -55,372 -57,31 -141,29 -212,41 -1,19 0,9 6,21l52 68c13,12 32,22 47,34 81,62 105,93 161,163 96,117 141,117 217,188l39 41c43,54 84,106 86,163 -134,5 -385,-20 -503,6 -30,6 -77,47 -108,72l-101 91c-11,11 -19,19 -30,30 -30,31 3,21 -45,27 -74,-114 0,-315 -45,-436 -20,-12 -49,-23 -63,-34 -302,-243 -176,-171 -511,-296l-228 -50c-109,-17 -254,-6 -367,2 -47,4 -88,7 -123,8 -80,1 -114,10 -167,23l-24 6 -170 50c-43,22 -93,54 -131,92 -28,27 -49,58 -55,88 -5,24 -7,41 -7,53 0,9 1,16 3,21 48,98 45,117 136,212 111,118 273,263 362,384l248 310c26,30 63,111 111,172 16,20 24,32 38,53 23,37 52,83 71,120 96,193 204,556 117,761 -37,86 -61,178 -125,250 -36,41 -46,65 -90,101 -57,48 -98,85 -169,106 -48,15 -34,15 -68,31 -184,86 -453,77 -633,15 -85,-29 -198,-60 -276,-98l-255 -122c-66,-33 -53,-34 -132,-61l-139 -51c-34,-155 173,-325 157,-511 -43,-21 -38,-26 -77,0 -16,10 -54,35 -65,55 -34,64 17,116 -50,193 -29,33 -89,95 -134,96 -26,0 -148,-54 -170,-70 -47,-37 -69,-81 -110,-122 -124,-128 -431,-113 -610,-111 -185,1 -314,13 -420,170 -56,83 -61,112 -146,217 -42,52 -61,81 -107,126l-137 106c-44,29 -101,77 -168,18 -105,-91 -57,-272 -57,-402 0,-129 41,-163 109,-248 16,-21 30,-52 46,-76 64,-95 139,-178 196,-280l106 -135c30,-53 68,-92 95,-139 33,-55 52,-106 88,-154l49 -63c112,-177 259,-276 481,-200 40,13 62,16 89,32 25,15 40,30 65,45 118,72 167,99 151,204 -11,73 -12,142 -27,214 -12,63 -47,112 -33,197l120 -8c10,-61 30,-93 33,-167 2,-54 -6,-117 4,-171 5,-25 4,-28 31,-32 68,-10 128,50 183,77 -17,117 -63,141 -36,278 57,6 112,-5 125,-72 5,-23 2,-66 1,-91 0,-10 -2,-42 -1,-50 8,-72 27,-35 272,-12 105,131 -115,225 -58,402 8,24 24,23 48,15 164,-55 77,-316 227,-421 16,-12 6,-6 23,-17 138,-89 477,-49 611,51 90,68 236,184 328,230 37,18 54,32 116,23 1,-150 -192,-228 -236,-269 -33,-31 -22,-32 -66,-53l-60 -31c-3,-1 -5,-2 -7,-3 -21,-11 -2,-2 -20,-11 -14,-7 -17,-8 -34,-16 -138,-68 -112,-38 -243,-62 -114,-22 -152,-2 -265,3 -309,15 -383,85 -701,-46 -52,-21 -94,-31 -139,-66 -36,-27 -81,-52 -120,-82 -105,-84 -180,-144 -300,-205l-36 -29c-105,-6 -235,-12 -327,18 -148,49 -107,83 -197,147 -87,-2 -125,-73 -185,-107l-194 -111c-8,-136 123,-238 212,-324l214 -160c77,-51 145,-111 229,-144 44,-17 26,-8 63,-29 59,-35 277,-122 337,-132l208 -60c92,-46 491,-23 595,14 22,8 57,22 89,32l-21 -32 78 8c32,4 91,31 138,53 28,13 52,24 56,25 7,1 6,6 8,5 1,-2 1,-10 0,-27 0,-21 11,-11 5,-15zm69 -8l1 19c2,37 -4,61 -17,78 12,11 28,26 46,45 45,46 91,78 129,106 21,14 39,27 54,40 7,5 12,9 16,12 1,-15 4,-31 8,-51 9,-47 38,-90 75,-127 46,-45 104,-83 153,-107l3 -2c68,-19 136,-41 204,-59 57,-14 94,-24 184,-25 29,-1 71,-4 119,-7 117,-9 267,-21 386,-1l2 0 232 51 10 4c-1,-13 -4,-22 -9,-36 -201,-12 -227,-32 -295,-82 -28,-21 -64,-48 -129,-83 -8,-5 -14,-7 -19,-10 -11,-5 -20,-10 -37,-20 -11,-7 -16,-11 -21,-15l-1 0c-4,-3 -7,-6 -19,-13 -34,-18 -85,7 -146,36 -43,21 -91,44 -145,60 -37,10 -62,18 -79,24 -25,8 -37,12 -54,13 -17,1 -32,-2 -62,-9 -18,-3 -41,-8 -72,-14l-2 0 -239 -56c-91,-24 -92,-23 -117,15 -18,28 -44,69 -94,125 -24,27 -31,40 -37,50l0 0c-5,10 -10,18 -20,30l-8 9zm-6375 -344l-229 7 -17 -441 -32 -6c-3,0 -26,-1 -39,-2 -36,0 -71,0 -107,3 -22,131 15,311 -2,444 -54,14 -150,14 -205,4 -44,-106 9,-365 -26,-469l-177 3c-12,48 6,590 10,680l1021 -15c13,-27 -5,-683 -20,-716 -24,-4 -143,-5 -164,3 -58,24 29,374 -13,505zm10693 -3457c18,-10 193,-38 232,-42 136,-10 46,71 -53,171 -57,57 -20,46 -53,62 -48,22 -32,-4 -44,-22l-33 -57c-2,-2 -7,-9 -8,-12 -1,-2 -3,-4 -4,-6l-41 -68c-9,-50 -5,-9 4,-26zm-58 773c44,-3 50,-5 74,-39l123 -170c33,-35 55,-70 89,-112 78,-98 38,-56 79,-114 22,-31 31,-24 48,-52 74,-127 237,-315 278,-393l7 -15c-12,-29 -70,-127 -91,-156 -82,-3 -201,21 -297,26 -133,6 -276,35 -407,54l-418 41c-4,47 -5,31 11,61l85 139c48,52 180,-14 254,-8l36 49c1,1 3,4 4,5 1,2 3,4 4,6l59 113c107,201 131,146 66,224 -20,22 -17,25 -34,48 -23,32 -57,62 -74,96 14,39 34,62 52,97l52 100zm-4968 1095l274 -210 85 -126c53,-87 274,-123 306,-117 12,-13 4,-14 49,-26 13,-4 35,-7 50,-9 41,-7 76,-10 113,-18 3,-38 16,-173 -19,-199 -40,-30 -273,67 -308,86l-445 261c-66,49 -146,114 -222,150l-353 204c-180,72 -370,156 -560,201 -58,13 -122,0 -142,48 -5,43 22,24 75,75 122,117 83,159 314,83 58,-19 171,-63 222,-31 50,31 101,105 217,100 2,-3 5,-9 6,-8 0,2 4,-5 5,-7 67,-105 11,-250 41,-337 13,-38 251,-111 292,-120zm475 -4961l85 296c-2,1 -6,0 -8,3l-211 -5c-3,-59 112,-278 134,-294zm-581 682c315,13 214,33 337,-189l406 8c25,46 65,193 75,241l245 12c-2,-67 -4,-39 -22,-80l-67 -229c-29,-96 -67,-188 -104,-290 -17,-47 -37,-96 -53,-138 -23,-65 -70,-289 -119,-328 -15,-12 -158,-46 -195,-2l-140 254c-12,25 -16,51 -29,75 -59,113 -157,260 -206,392 -32,88 -125,183 -128,274zm3028 359c-34,18 -97,-40 -156,-67 -113,-51 -8,-63 73,-148 30,-32 56,-72 103,-84 9,14 6,4 10,26 9,51 1,-21 1,17l-31 256zm-774 100l110 47c34,17 74,50 108,51 36,-13 124,-118 172,-147 39,1 62,19 95,37l273 144 -11 232c18,17 3,4 28,21 1,1 25,14 26,15l107 63c100,56 71,-37 84,-261 6,-98 2,-204 9,-302 3,-45 14,-67 16,-122l19 -435c-31,-21 -130,-75 -164,-82 -38,33 -71,60 -109,90 -166,130 -409,342 -560,453l-166 137c-34,26 -27,11 -37,59zm-7748 3165c1,51 -22,118 -42,160l-30 73c-50,-22 -116,-83 -169,-124 -25,-19 -46,-24 -62,-43 -42,-53 72,-41 120,-46 67,-7 111,-21 183,-20zm242 -26c310,-21 194,-9 267,-194 41,-102 13,-73 -96,-62 -114,11 -188,28 -313,35 -44,3 -49,14 -90,19l-413 43c-29,4 -46,15 -86,22 -34,5 -68,4 -103,8 -17,21 -59,156 -59,185 8,11 5,9 14,19l37 34c20,18 33,31 53,49l222 181c119,89 379,318 448,362 50,32 68,85 108,64 35,-19 5,-12 42,-110 15,-39 26,-71 25,-119l-163 -119c-13,-9 -8,-5 -19,-12 1,-50 85,-357 126,-405zm4035 7174c-67,-9 -77,-20 -140,-35 -97,-23 -60,2 -89,72 -1,2 -2,5 -3,7 -1,2 -3,4 -4,6l-160 458c-1,3 -2,5 -3,8 -4,11 -5,17 -10,29 -14,35 -30,76 -63,108 -27,26 -69,50 -106,55 -58,8 -107,-3 -146,-27 -135,-80 -120,-217 -65,-348l87 -258c15,-39 76,-215 77,-257 -33,-28 -53,-28 -101,-44 -43,-15 -58,-33 -115,-24l-16 40c-39,77 -14,120 -64,201 -21,34 -10,34 -26,73 -17,42 -11,41 -26,85 -12,37 -12,15 -26,72 -30,125 -96,226 -61,363 82,321 493,417 679,291 196,-132 178,-226 237,-378l83 -266c17,-63 83,-150 61,-231zm-487 -11180l33 26c19,19 8,7 22,27 17,22 27,39 42,61 57,79 75,66 78,121 -29,11 -73,14 -107,26 -17,6 -31,15 -51,20 -19,4 -9,3 -26,2 -32,-1 -20,-2 -28,-6l37 -277zm-340 814c25,2 228,-29 246,-91l12 -88c3,-48 8,-78 12,-121 44,-9 330,-105 394,-108 120,113 98,206 266,152l111 -34c5,-65 -77,-110 -158,-232l-525 -637c-32,-29 -92,-7 -154,14 -65,23 -59,57 -66,127l-88 687c-8,66 -23,70 -32,150 -6,55 -25,114 -18,181zm-3188 1327c30,52 420,332 452,367l45 45c1,2 4,3 5,5l317 229c32,-25 83,-93 115,-136l177 -217c18,-21 34,-53 52,-80 70,-104 106,-95 106,-152 -29,-23 -8,6 -74,-53 -97,-86 -87,-60 -132,-5 -15,18 -27,30 -42,48 -28,34 -52,54 -76,95 -21,36 -122,181 -157,185 -18,1 -42,-21 -55,-33 -129,-109 -134,-67 26,-266 38,-47 117,-138 136,-183 -15,-24 2,-2 -18,-19 -6,-5 -13,-9 -18,-13 -161,-123 -95,-109 -200,3l-204 249c-27,-9 -120,-90 -146,-115 10,-37 7,-26 33,-58l75 -85c48,-56 67,-98 103,-140 86,-101 106,-75 0,-161 -30,-25 -47,-49 -85,-58 -48,30 -175,210 -222,266 -28,33 -205,255 -213,282zm7699 8887c35,-18 74,-28 111,-45l315 -167 -98 -172c-69,2 -189,79 -253,112 -33,16 -46,14 -79,33 -392,225 -340,74 -187,406l141 294c13,22 19,36 31,60l118 224c10,30 21,64 43,89 18,19 13,11 25,21l574 -279c18,-11 55,-26 71,-40 -1,-62 -32,-57 -72,-179 -37,-2 -45,0 -70,15 -68,39 -54,22 -136,76l-148 65c-62,30 -71,50 -115,51l-80 -143c-13,-21 -8,-25 -18,-41l404 -208c-4,-40 -16,-42 -30,-78 -7,-16 -1,0 -9,-23 -15,-47 -31,-59 -51,-88 -37,17 -67,29 -107,50 -35,19 -53,36 -93,55 -62,29 -144,93 -211,90 -10,-12 -17,-28 -26,-41 -11,-17 -9,-13 -20,-38 -28,-64 -33,-40 -30,-99zm1175 -720c19,-14 53,-37 70,-52 129,-114 195,-122 145,-177 -127,-140 -85,-155 -187,-66 -27,24 -43,35 -67,54l-209 164c-267,228 -255,81 -42,374l357 462c15,20 26,27 43,46 114,123 55,143 230,-10l212 -162c83,-66 110,-102 205,-155 12,-61 -14,-72 -43,-105l-64 -80c-35,10 -74,47 -112,74l-238 194c-17,14 3,-2 -11,10 -24,19 -16,20 -54,22 -12,-16 -12,-21 -25,-38 -17,-25 -24,-29 -32,-39 -73,-90 -81,-80 -3,-138l125 -107c2,-1 4,-3 6,-4l157 -117c-11,-30 -96,-150 -127,-154 -54,-6 -299,256 -353,251 -16,-2 -115,-92 -118,-143l135 -104zm-1285 -6606c37,9 65,-74 161,-160 29,-27 50,-60 77,-85 75,-67 239,-146 335,-171 177,-47 473,-64 656,-7 75,23 147,128 180,125 24,-2 90,-76 109,-102 49,-67 35,-72 71,-142 23,-45 23,-60 14,-119 -67,-27 -44,-26 -88,-65 -74,-64 -292,-121 -379,-126 -95,-6 -316,10 -388,30l-147 53c-16,6 -26,8 -38,14 -63,26 -96,49 -148,91 -74,59 -150,92 -232,192 -76,93 -156,184 -185,311 -7,28 -8,45 -9,76 -1,47 -3,58 11,85zm1652 -1641c48,-11 70,-43 100,-72l173 -150c39,-33 44,-63 104,-53 48,71 95,140 157,205 16,17 14,18 32,39l72 81c-67,82 -221,194 -331,303 8,27 42,58 70,88 117,133 20,123 468,-253 128,-108 154,-146 294,-253 40,-31 73,-50 96,-97 -25,-73 -89,-102 -126,-159 -66,19 -110,69 -159,118 -23,22 -51,37 -74,58 -108,96 -50,76 -216,-101 -49,-52 -105,-100 -139,-169 17,-44 123,-132 167,-162 19,-12 27,-12 43,-27 101,-91 72,-79 -47,-213 -61,-70 -73,17 -219,120l-139 123c-32,27 -37,39 -68,63 -128,99 -156,144 -278,238 -24,18 -45,34 -67,54 -25,21 -55,41 -40,79 11,26 111,128 127,140zm-4439 -2396c27,5 7,-13 24,20 13,26 8,71 -7,96 -46,78 -295,103 -316,81 -19,-35 -32,-185 -21,-234 35,-17 222,-47 277,-19 64,32 45,42 43,56zm-560 -198c-5,50 88,894 114,996l4 16c13,40 70,24 109,15 33,-7 76,-9 107,-17 4,-54 -38,-323 -44,-398 35,-28 62,-36 119,-35 35,45 50,91 89,138 38,46 65,79 102,140 118,187 94,101 329,95 19,-123 -320,-353 -261,-430 15,-19 173,-63 157,-293 -6,-100 -31,-134 -89,-195 -52,-57 -96,-86 -206,-90 -214,-7 -356,52 -530,58zm-4333 3681c-41,3 -187,-70 -196,-75 -1,-1 -4,-3 -6,-4 -15,-13 -20,-22 -14,-42l61 -111c142,-249 259,-67 257,-7 -1,57 -72,192 -102,239zm222 -3c132,-12 281,1 415,-3 45,-1 49,0 71,-30 26,-34 95,-164 99,-201 -82,-21 -375,7 -488,3 3,-87 11,-129 -30,-193 -62,-93 -183,-161 -289,-162 -116,-1 -216,78 -276,166 -14,19 -25,56 -34,79 -40,100 -178,281 -170,373 41,16 36,6 79,33l38 23c78,42 144,93 229,116l226 117c42,21 69,42 109,62l175 88c61,42 59,38 98,-38 22,-42 49,-85 55,-132 -51,-58 -222,-122 -312,-168 -13,-7 -50,-6 -40,-60l45 -73zm4785 8811c77,22 93,156 -20,209 -47,22 -249,16 -311,-22l24 -239 246 18c69,14 60,33 61,34zm-266 -453c37,-5 207,6 235,20 73,34 70,133 20,175 -40,34 -160,24 -225,14 -64,-9 -43,-30 -37,-89 5,-41 2,-78 7,-120zm369 304c82,-27 136,-69 158,-163 78,-347 -375,-343 -618,-349 -53,-1 -106,-25 -125,1l-84 1034 381 26c95,4 289,1 356,-52 69,-54 140,-156 112,-280 -41,-179 -172,-135 -180,-217zm-74 -8089c3,46 -5,87 24,117 48,49 138,71 207,75 77,4 70,6 115,-30 1,-112 -4,-150 77,-190 0,0 135,36 144,90 3,14 3,25 3,39 1,28 1,59 0,87 -62,27 -117,47 -180,83 -34,19 -144,78 -142,116 3,66 280,-44 354,-127 36,-39 139,-188 147,-250 45,-344 12,-473 -275,-638l-160 -102c-72,-48 -83,-41 -183,24 -52,33 -69,59 -107,94 -2,2 -8,8 -11,10 -103,87 -111,119 -201,233 -140,179 13,139 35,249 9,47 12,63 47,84 15,9 83,28 106,36zm1855 -4198l4 8 -94 -19 -22 37c-22,48 1,103 -52,213 -26,52 -77,285 -106,348l-105 420c59,23 141,53 207,56 50,-56 78,-240 106,-337 16,-58 42,-114 53,-169l43 -181c34,9 32,3 44,38l54 216c15,46 28,97 39,133 14,46 26,101 38,147 9,36 69,254 84,270 21,22 227,82 284,81 22,-58 57,-179 71,-246l123 -421c4,-20 5,-48 10,-72 6,-31 -2,-1 10,-28 2,-5 10,-22 12,-28l57 -197c-34,-9 -67,-17 -95,-28 -37,-15 -59,-27 -104,-31 -2,2 -5,2 -5,7l-183 588c-26,96 -7,65 -34,77l-216 -765c-19,-60 -28,-59 -89,-70 -71,-13 -111,-16 -134,-47zm1600 5973c-5,7 -11,14 -18,21l-1 1 0 1c-33,36 -48,56 -58,70 -28,39 -28,39 -125,82 -63,27 -100,27 -133,27 -38,0 -68,0 -161,86 -22,21 -43,41 -64,63 -50,48 -101,98 -158,143l-2 1 -189 126c-24,14 -40,25 -42,31 -1,3 4,11 18,30l101 106c30,30 53,59 78,90l0 1c32,40 66,83 120,134 51,49 165,-17 233,-57 11,-5 20,-11 27,-15 29,-16 40,-24 55,-36 8,-6 17,-13 25,-20l306 -254c4,-5 7,-9 10,-13l0 0c4,-7 8,-14 17,-24 11,-14 22,-25 32,-36l0 0c19,-19 37,-38 61,-77 6,-9 10,-18 13,-27 10,-22 18,-40 40,-54 -64,-131 -124,-267 -185,-400zm-8787 1634c-8,21 -90,60 -144,95 -56,37 -94,62 -145,97 -51,35 -269,154 -283,205 -11,37 -8,9 18,96l35 89c73,31 538,30 672,35 0,50 -45,59 -121,97l-219 125c-25,14 -46,28 -70,43 -129,78 -183,63 -129,202 14,36 16,68 28,103 71,-1 223,-99 279,-138 2,-1 4,-3 6,-5l530 -347c1,-1 4,-3 6,-4l107 -66c1,-47 -30,-149 -52,-182 -104,-37 -586,-13 -745,-26 23,-69 -13,-17 99,-87l198 -133c72,-48 161,-115 239,-156 101,-53 81,-70 81,-69l0 -12c0,-6 -3,-16 -4,-22 -8,-29 -37,-129 -55,-140 -44,-16 -943,-14 -1072,-19 -3,60 18,69 25,101 32,139 -46,119 254,117 87,0 409,-28 462,1zm9029 -2632c18,-23 102,-49 135,-60 212,-73 331,-10 565,-24 72,-111 154,-138 265,-217 0,-82 -169,-217 -240,-268 -153,-107 -143,-121 -229,-48 -75,64 -23,29 -100,72l-77 45c-2,2 -10,7 -12,9 -76,55 -46,20 -123,88l-22 20c-15,15 0,3 -19,20 -85,70 -117,10 -151,-29 -28,-33 -51,-67 -100,-74 -132,-17 -333,11 -390,149 -90,215 193,545 306,695l191 233c50,64 18,7 79,103 59,92 55,67 198,70 69,1 105,-3 83,-94 -6,-24 -1,-12 -15,-29 0,0 -23,-17 -24,-17 -90,-58 -153,-152 -202,-243 -21,-40 -23,-88 -51,-152l-39 -113c-20,-65 -38,-88 -35,-113 2,-20 0,-12 7,-23zm-7103 2206c24,53 48,75 84,126 71,98 28,37 57,146 15,60 91,10 134,-8l201 -109c19,-11 43,-31 59,-42 36,-23 86,-45 131,-72l377 -241c50,-26 80,-54 117,-84 21,-15 41,-26 62,-40l292 -212c108,-86 196,-35 91,-294 -20,-50 -23,-31 -28,-88 105,1 102,1 142,77 32,60 108,117 160,23 54,-97 51,-74 12,-197 -33,-106 -105,-119 -133,-139 -15,-10 -25,-25 -42,-38 -26,5 -43,12 -63,25 -16,11 -15,10 -29,23l-15 16c-43,43 -71,45 -116,76l-314 233c-43,44 -395,273 -427,300l-425 302c-21,13 -35,17 -59,33 -22,15 -32,26 -52,38l-216 146zm717 -6483c16,18 14,33 16,43 18,99 20,46 30,102 22,124 82,397 87,479 -73,-13 -138,-118 -214,-169 -38,-26 -36,-23 -69,-52l-132 -120c-156,-138 -124,-119 -215,-69 -26,14 -46,21 -74,38l-112 69c-44,30 -30,49 1,89 70,91 6,3 51,89l43 79c39,74 101,155 131,224 11,26 15,42 29,63 77,111 28,39 98,163l136 219 196 -100c-1,-35 -61,-123 -87,-162l-192 -333c-37,-65 -86,-131 -91,-177 39,6 25,4 50,27 16,14 22,22 35,35 26,24 46,44 71,70 68,67 101,87 152,131l224 200c24,22 50,45 77,63 21,-7 65,-39 96,-54 94,-45 41,-88 21,-202l-97 -490c-11,-56 -23,-57 -23,-124 27,13 22,5 42,35 55,80 310,556 357,602 33,-4 61,-28 90,-47 21,-14 21,-19 39,-29 15,-8 39,-13 53,-20 3,-46 0,-35 -22,-74 -13,-23 -22,-37 -33,-56 -24,-41 -35,-68 -64,-109l-254 -455c-13,-25 -51,-93 -67,-114 -35,-44 -36,-63 -63,-108 -48,-1 -47,12 -78,31 -25,16 -53,29 -78,44l-155 87 -5 82zm5799 4452c43,-1 75,-8 103,-22 -12,-99 -155,-139 -92,-448 10,-51 0,-39 22,-78 33,-57 60,-122 111,-181 41,-48 98,-31 172,-30 172,3 255,-8 304,86 88,13 265,-118 339,-171 51,-37 124,-41 122,-148 -6,-265 -553,-383 -961,-285 -111,27 -171,71 -265,129 -45,28 -34,27 -70,60 -35,32 -79,113 -101,161 -31,67 -39,139 -36,229 3,134 96,369 184,473 13,16 18,21 28,32l140 193zm-1533 -1791c-17,17 -38,142 -43,182l-54 177c-30,91 -98,248 -143,323 -50,84 -2,124 13,188l13 49c1,3 3,5 4,7 22,55 7,53 27,104 1,2 2,5 3,7l6 13c13,38 -2,45 26,127 53,155 29,355 269,351 144,-2 319,-190 355,-265l35 -53c1,-1 3,-3 5,-5 1,-1 4,-3 5,-5 58,-64 87,-155 123,-231 67,-139 25,-244 -34,-367 -27,-56 -93,-129 -117,-184 -77,-178 -118,-217 -260,-358 -23,-23 -63,-47 -95,-56 -23,-6 -121,-21 -138,-4zm-6726 7451c-14,-125 0,-249 157,-247 -3,67 -34,76 -31,142 93,1 157,-78 321,-66 3,71 -38,122 -84,140 -116,48 -237,35 -363,31zm155 -575c60,-23 94,41 110,60 17,20 47,44 54,66 29,86 -39,83 -104,74 -13,-22 -19,-47 -34,-66 -13,-16 -67,-34 -50,-103 8,-32 8,-25 24,-31zm463 1296c25,4 60,20 85,36 47,29 76,47 177,11 20,-8 76,-23 88,-29 15,-103 -14,-184 -55,-254 -149,-253 -409,-42 -611,-140 -28,-14 -72,-61 -70,-92 35,-106 105,-35 193,-18 62,13 219,11 263,-22 29,-36 41,-452 35,-537 -3,-41 -3,-41 -29,-63 -16,-13 -19,-12 -31,-21 -23,-20 -11,-5 -26,-31 -74,-31 -62,-47 -102,-60 -50,-16 -29,14 -54,-33l-24 -33c-15,-19 -25,-34 -42,-49 -36,-31 -55,-49 -95,-77 -54,-38 -128,-131 -167,-177 -180,-15 -779,374 -567,587 84,84 72,-13 155,148 32,65 169,257 212,304 68,72 130,143 198,206 104,94 336,298 467,344zm4908 -5133l458 337c6,-19 21,-36 55,-57 87,-54 152,-41 240,-24 92,18 215,42 431,-19l2 -1c72,-12 155,-30 226,-38 27,-4 46,-5 63,-5l0 0c18,0 29,-1 43,-9 -25,-69 -111,-171 -188,-261 -42,-50 -81,-96 -107,-134 -65,-94 -75,-119 -96,-174l1 0c-7,-18 -16,-40 -30,-74l-124 -251c-14,-30 -30,-28 -78,-20l-10 1c-61,10 -134,38 -190,60 -32,13 -59,23 -77,27 -76,17 -103,29 -126,39 -23,10 -43,18 -91,28 -26,5 -37,9 -49,13 -5,2 -11,4 -19,6 -98,25 -197,50 -295,73 -21,5 -59,15 -91,26 -10,3 -19,6 -26,9 0,36 8,105 18,176 13,89 29,179 41,212 3,9 4,10 5,11 7,10 10,14 14,47l0 2zm3283 2738c-5,51 -1,66 7,106 38,16 5,-5 35,29 7,9 17,22 27,34 65,83 89,134 25,257 -128,247 -170,214 -18,262 3,61 -22,64 -59,95l-256 211c-1,2 -4,9 -5,7 -1,-2 -4,4 -5,6 7,73 18,62 60,116 82,105 179,6 179,6 -3,-50 -28,-71 -52,-102 -40,-54 -14,-59 13,-97 51,48 126,108 219,107 32,-48 47,-26 20,-99 -14,-39 -31,-56 -31,-105 114,-2 141,24 197,73 -925,896 -2185,1447 -3574,1447 -1421,0 -2707,-577 -3637,-1510 12,-4 24,-7 35,-11l121 -40c166,-45 313,-127 473,-195 48,-21 76,-33 125,-51l703 -445c22,-15 35,-18 59,-34l135 -108c139,-101 356,-322 459,-460 20,-26 15,-30 29,-53 11,-18 22,-23 41,-49 53,-73 38,-91 73,-149 88,-146 17,-181 -40,-233l-50 -39c-234,-153 -284,-162 -569,-114 -53,9 -97,11 -141,21 -101,23 -89,0 -217,35 -102,29 -333,-2 -474,113 -51,42 -39,67 -177,157l-185 148c-64,55 -111,73 -196,137l-234 170c-16,9 -34,16 -55,28l-195 136c-75,43 -154,68 -221,114l-163 104c-529,-808 -837,-1773 -837,-2810 0,-2838 2301,-5139 5138,-5139 2838,0 5139,2301 5139,5139 0,202 -12,402 -35,599l-2 3c-27,43 -45,81 -72,121 -151,224 -211,344 -339,551 -21,33 -21,24 -43,58 -29,46 -35,82 -77,144 -1,2 -3,5 -4,6l-105 159c-11,18 -27,37 -38,53 -28,39 -49,81 -77,124l-199 298c-14,20 -22,34 -36,54 -27,40 -55,61 -81,111 -32,62 -40,70 -76,115 -34,-7 -59,-28 -90,-50 -31,-22 -34,-46 -88,-45 -39,76 -28,376 -48,496 -32,205 -55,315 71,413 21,16 86,78 132,98 -85,100 -173,197 -265,290 -12,-84 -87,-63 -79,-192 58,-2 80,2 115,32 101,86 146,-27 68,-140 -70,-102 -80,-152 -133,-75 -52,76 -50,101 -74,164 -24,59 -109,121 -182,138 -25,-55 -17,-87 13,-131 51,-76 57,-53 87,-84 30,-30 78,-196 94,-252 36,-123 40,-174 66,-278 24,-99 13,-213 -2,-310 -8,-55 57,-177 83,-245l104 -228c42,-87 58,-179 53,-298 -5,-106 -37,-161 -118,-221 -156,-114 -377,-54 -547,9l-181 81c-34,29 -108,79 -138,114 -6,7 -12,17 -16,23 -23,32 -32,37 -35,85 -4,87 13,240 37,310 41,122 239,270 342,330 41,23 63,49 93,79 121,124 67,101 -99,276zm787 433c3,-47 -4,-98 -8,-124 -22,-127 -92,-268 25,-428l562 -792c25,-36 30,-56 52,-90 1,-1 27,-34 32,-38 46,-45 96,-138 141,-194 37,-47 69,-98 110,-151 16,-20 28,-38 41,-55 -188,693 -517,1328 -955,1872zm-2555 -4401l-16 33c-13,28 -26,46 -46,60 -10,7 -20,13 -33,18 -6,53 -37,90 -68,126 -13,15 -26,31 -35,46 -4,8 -6,12 -7,15 -2,4 -3,8 -4,16 -14,76 34,174 75,255 8,17 17,34 25,52l296 477 30 40 0 0c33,43 47,62 48,62 9,3 -4,-6 6,-13 16,-11 37,-25 63,-40 20,-11 33,-18 45,-25 21,-12 41,-24 66,-36 97,-58 226,-145 323,-192 26,-12 46,-21 65,-30 91,-40 175,-77 210,-165l2 -5c-3,-7 -5,-16 -7,-27 -1,-10 -4,-23 -10,-43 -8,-27 -17,-53 -26,-78 -18,-51 -35,-99 -47,-160 -4,-24 -11,-51 -19,-81 -14,-52 -30,-113 -40,-184l-57 -349c-23,-117 -61,-208 -93,-285 -15,-35 -28,-67 -39,-99l-307 335 -3 3c-50,46 -108,92 -167,134 -60,42 -121,80 -182,111l-48 29zm755 -846l0 1 0 0 0 -1zm0 1l2 1 1 0 -3 -1zm-3946 3067c1,-3 6,-10 7,-13l11 -19c7,-20 6,-25 9,-45l12 -59c1,-2 2,-4 3,-6l40 -161c22,-101 24,-238 52,-333 21,-73 9,-94 91,-97 351,-15 650,105 899,29 368,-114 482,11 652,23 -2,-45 -10,-42 -32,-65 -41,-41 -97,-100 -142,-129 -57,-36 -135,-117 -187,-169 -29,-28 -75,-49 -106,-76l-134 -129c-77,-69 -107,-73 -143,-118 -84,-108 -118,-136 -219,-3 -116,153 -612,189 -810,301 -26,15 -32,22 -51,40 -33,33 -53,59 -83,99 -124,159 -142,298 -236,472 -88,161 -7,48 -112,160 -22,23 -16,24 -34,47 -48,65 -318,231 -406,302 -67,55 -91,139 -134,220l-34 55c-44,89 -80,134 -67,193 106,67 295,70 459,57 77,-6 154,-17 218,-42l295 -99c21,-7 34,-8 55,-15l187 -77c4,-4 5,-6 15,-16l10 -9c112,-112 109,-136 263,-263 159,-132 277,-234 459,-331 17,-9 30,-15 46,-25 199,-123 828,-132 1082,-152 -5,-77 -139,-105 -200,-123 -30,-9 -16,-8 -42,-19 -99,-44 -225,-46 -334,-40 -138,7 -147,19 -214,28 -134,16 -340,17 -483,6 -78,-5 -22,-25 -224,-29 -77,-2 -176,-10 -237,12 -21,67 -19,201 -19,288l-31 271c-15,83 -107,206 -177,276 -19,20 -65,55 -95,41l121 -258zm-240 -1755c-142,-15 -612,28 -648,-19 -22,-29 -7,-76 5,-120 15,-57 65,-120 99,-194 91,-198 283,-449 411,-631 15,-23 33,-55 57,-84 29,-35 8,-2 29,-42 17,-32 6,-21 33,-49l193 -249c44,-78 89,-131 151,-195 49,-49 97,-149 171,-223l476 -565c23,-27 51,-51 76,-76l222 -222c32,-31 53,-43 53,-104l-569 -196c-76,-14 -410,-139 -547,-85 -79,32 -170,103 -191,194 -19,82 -22,42 -28,99 -14,122 14,232 33,354 26,163 64,92 -122,227l-537 372c-72,53 -40,17 -150,113 -155,136 -295,299 -257,520 15,88 50,139 67,316 10,102 14,65 20,111 15,138 -24,263 -29,353 -4,77 -14,45 -25,103 -17,95 -66,505 -27,607 31,81 20,85 59,134 39,49 147,236 277,155 125,-78 662,-468 698,-604zm2714 -1437c-61,-28 -209,-78 -272,-5 -17,18 -11,12 -26,34 -14,20 -13,16 -22,36 -32,70 -48,154 -101,206 -25,25 -360,229 -414,243 -71,19 -152,26 -205,-13 -63,-48 -31,-108 -38,-207 -74,-79 -115,6 -196,-154 -37,-73 -40,-37 -95,-79 -54,-42 -36,-63 -40,-141 -27,-61 -145,-38 -129,-183 9,-81 80,-153 110,-209 7,-13 12,-32 22,-49 40,-69 216,-238 291,-287l79 -43c151,-75 318,-76 481,-134 160,-58 362,-19 388,-86 -29,-63 -126,-42 -170,-91 -44,-48 -94,-95 -31,-173 36,-44 72,-125 123,-136 238,-49 132,162 337,49 100,-54 161,-41 262,-6 272,94 146,66 246,147 51,41 119,59 29,114l-170 126c13,45 66,54 104,81 23,16 36,19 58,32 10,6 39,26 55,37 98,70 116,112 150,207l104 2 186 -271c20,-24 28,-37 51,-60 56,-57 113,-137 157,-197 87,-118 214,-351 68,-488l-395 -181c-105,-34 -172,-50 -293,-58 -90,-6 -73,-19 -212,-20 -88,0 -139,3 -218,13 -162,20 -199,7 -342,60 -82,31 -133,40 -215,78 -132,61 -252,123 -372,204l-36 25c-156,106 -314,192 -481,278 -55,29 -111,40 -167,67 -64,31 -123,112 -174,167l-337 361c-17,21 -34,44 -53,68 -35,45 -70,79 -112,121 -36,38 -71,101 -104,130 -88,78 -570,696 -620,774 -36,56 -59,94 -95,137 -18,21 -33,34 -50,60 -16,25 -32,48 -50,73 -31,42 -50,109 -83,150l-109 173c-49,61 -67,136 -97,198 -13,27 -28,51 -35,87 -9,41 -21,43 -28,82 -10,52 22,39 57,36 77,-8 143,-8 221,-14 447,-35 219,-107 459,-97 50,2 50,-19 74,-45 51,-56 101,-34 153,-79 22,-19 33,-41 47,-64 55,-95 122,-121 240,-116 137,5 134,102 223,116 92,15 177,-47 251,-94 42,-27 87,-37 128,-66l396 -220c25,-15 44,-30 73,-49l696 -436c54,-44 122,-109 192,-128 42,-11 72,-51 76,-93zm64 4523c45,70 45,139 49,250 15,434 -35,275 -211,553 -20,31 -37,59 -87,63 -111,-151 41,-136 164,-393 41,-86 53,-187 26,-273 -45,-139 -62,-216 59,-200zm-1521 221l-73 1c-31,-42 -78,-192 -121,-225 -69,37 -36,99 -37,257 -33,16 -49,27 -97,29 -5,-48 14,-420 41,-450 23,-26 86,-49 123,-48 30,13 102,175 124,199 15,-12 31,-25 41,-43l33 -67c32,-69 30,-84 111,-55 5,46 -31,180 -53,212 -26,38 -44,32 -60,80 -13,40 -15,66 -32,110zm-1081 532c-7,-191 208,-442 304,-602 11,-18 313,-360 357,-430 58,-94 75,-186 210,-118 1,42 -1,34 -18,67l-34 57c-5,7 -12,14 -14,16 -57,63 -94,66 -137,156 -31,63 -74,79 -125,128 -102,96 -133,181 -208,299 -12,18 -9,6 -22,38 -30,71 -17,58 -74,117 -35,37 -75,100 -98,156 -26,63 -28,136 -141,116z"/>
 </g>
</svg>
