<?xml version="1.0" encoding="UTF-8"?>
<!DOCTYPE svg PUBLIC "-//W3C//DTD SVG 1.1//EN" "http://www.w3.org/Graphics/SVG/1.1/DTD/svg11.dtd">
<!-- Creator: CorelDRAW X7 -->
<svg xmlns="http://www.w3.org/2000/svg" xml:space="preserve" width="132.521mm" height="129.848mm" version="1.1" style="shape-rendering:geometricPrecision; text-rendering:geometricPrecision; image-rendering:optimizeQuality; fill-rule:evenodd; clip-rule:evenodd"
viewBox="0 0 13371 13101"
 xmlns:xlink="http://www.w3.org/1999/xlink">
 <defs>
  <style type="text/css">
   <![CDATA[
    .str0 {stroke:#332C2B;stroke-width:20.1797}
    .fil0 {fill:#FEFEFE}
    .fil6 {fill:#231A1A}
    .fil3 {fill:#332C2C}
    .fil5 {fill:#33338C}
    .fil7 {fill:#756C6A}
    .fil9 {fill:#D4D3D3}
    .fil2 {fill:#E31E27}
    .fil1 {fill:#E52128}
    .fil8 {fill:#E6E6E6}
    .fil4 {fill:white}
   ]]>
  </style>
 </defs>
 <g id="Layer_x0020_1">
  <metadata id="CorelCorpID_0Corel-Layer"/>
  <g id="_1940607336144">
   <circle class="fil0 str0" cx="6620" cy="6544" r="5312"/>
   <circle class="fil1 str0" cx="6620" cy="6544" r="5189"/>
   <path class="fil2" d="M2242 9333l139 -94c23,-17 26,-13 53,-28 94,-52 303,-203 394,-262 31,-20 61,-45 99,-65 48,-25 88,-69 133,-100 19,-14 34,-19 53,-30 14,-9 28,-21 46,-34l144 -103c41,-25 59,-36 97,-64l332 -240c122,-82 -140,-72 -90,-206l31 -118c22,-50 21,-78 46,-126 81,-159 141,-281 288,-377 92,-62 224,-129 303,-189 50,-38 142,-263 178,-333 33,-62 87,-169 86,-261 -99,17 -156,118 -237,173l-412 271c-55,36 -109,65 -165,103l-664 416c-82,42 -172,107 -248,160l-85 47c-44,15 -68,41 -102,64l-69 41c-13,8 -21,17 -35,28 -23,19 -13,12 -42,27l-186 111c-2,1 -5,2 -7,4l-62 38c-112,55 -198,176 -387,149 -5,-14 -8,-21 -14,-36 -3,-9 -6,-17 -9,-23 -60,-161 22,-201 39,-225 23,-33 24,-31 51,-59 39,-41 62,-85 105,-120 104,-83 200,-182 298,-274l320 -242c95,-62 174,-133 276,-185 148,-76 526,-381 673,-461 42,-24 74,-64 126,-98 30,-20 118,-68 126,-97 -30,-10 -71,-21 -99,-30 -44,-14 -58,-25 -93,-53 -24,-18 -55,-49 -71,-74l-59 -94c-87,-152 -75,-420 -20,-599 12,-42 9,-93 17,-138 27,-174 49,-369 24,-543 -34,-243 -118,-509 13,-709 18,-26 41,-39 67,-74 25,-33 44,-60 68,-85 81,-84 184,-164 284,-229l44 -36c12,-8 44,-24 47,-25l487 -328c7,-159 -46,-401 -15,-489 5,-16 5,-12 10,-32 4,-19 9,-45 16,-63 64,-153 229,-270 413,-239 43,7 18,10 63,17 210,30 157,38 266,62 149,33 286,107 446,133 52,8 214,57 248,82l1 100c107,-16 446,-226 557,-303 440,-306 853,-474 1472,-407 179,19 448,77 601,164 179,102 306,223 193,446 -9,18 -4,4 -11,27 -34,113 -128,225 -202,321 -55,69 -94,119 -148,201 -56,84 -114,88 -109,243 75,28 173,60 242,96 2,1 4,3 6,4 113,59 107,61 137,206 3,15 4,33 7,42 15,49 -2,17 25,42 25,-35 21,-16 33,-73 9,-38 10,-41 25,-77l40 -60c18,-26 24,-39 41,-59l68 -65c2,-1 4,-3 6,-5l84 -78c22,-21 35,-30 58,-45 84,-57 162,-113 263,-143l324 -84c73,-10 321,-23 386,5l149 51c65,18 95,33 136,71 109,101 179,129 17,393 -31,51 -84,88 -98,113 11,36 64,60 93,105 21,34 44,69 49,109 18,144 12,102 114,166l159 119c90,66 171,132 247,211 29,30 27,25 20,76l-361 235c-144,111 -141,233 -143,470 -2,307 -115,144 -160,303 -56,194 -69,133 -258,131 -89,-1 -114,8 -164,-55 -80,-100 -120,64 -177,106 -7,94 53,152 93,220 93,161 237,568 213,750 -33,237 -121,123 -209,219 4,49 99,127 135,159 56,51 102,101 155,152 78,74 144,171 215,245 44,45 218,274 256,345 19,36 25,78 19,131 -7,49 -23,63 -35,112 -16,67 -99,339 -83,378 8,20 66,64 92,60 35,-4 134,-184 155,-212l147 -208c52,-83 94,-132 143,-214 23,-39 39,-84 67,-120l110 -152c4,-6 10,-18 15,-27 8,-12 12,-17 21,-31l176 -273c14,-20 22,-33 36,-56 73,-117 192,-268 246,-388 13,-30 11,-39 28,-67 -3,-124 20,-236 23,-354 3,-122 6,-268 -1,-389 -9,-160 -37,-567 -66,-713 -6,-32 -14,-29 -22,-65l-53 -233c-7,-21 -12,-49 -18,-74l-18 -54c-19,-49 1,13 -8,-21 -7,-27 -6,-51 -15,-80 -35,-121 -71,-259 -118,-373l-168 -405c-17,-40 -44,-92 -67,-126 -28,-42 -42,-83 -71,-123 -50,-71 -68,-162 -128,-229l-91 -134c-110,-180 -326,-453 -461,-600 -22,-24 -28,-29 -49,-54 -15,-18 -26,-29 -46,-47l-50 -50c-56,-72 -124,-134 -192,-197 -114,-105 -290,-263 -419,-347l-114 -79c-25,-17 -36,-18 -62,-34l-11 -7c-2,-1 -4,-3 -6,-4l-84 -60c-2,-2 -4,-3 -6,-4l-368 -224c-92,-66 -102,-44 -191,-94 -151,-85 -304,-151 -467,-205 -36,-11 -43,-13 -82,-22 -101,-26 -187,-74 -293,-95l-69 -22c-69,-28 -491,-93 -568,-107 -210,-35 -496,-58 -716,-59 -239,0 -499,-1 -729,47 -190,40 -391,50 -576,99 -24,7 -67,8 -87,15 -34,12 4,14 -68,25 -53,8 -29,2 -73,19l-281 105c-98,34 -192,65 -278,110 -43,22 -88,42 -129,64l-904 536c-22,17 -33,30 -55,45l-244 188c-27,22 -5,2 -26,24l-148 138c-70,69 -122,123 -191,197l-522 641c-19,28 -16,32 -31,61 -26,52 -152,232 -219,363 -11,22 -24,47 -35,69 -61,113 -110,196 -159,322l-164 404c-10,27 -1,13 -16,38 -23,39 -20,61 -34,107l-33 110c-21,45 -79,356 -102,440 -29,111 -34,214 -56,332 -21,114 -13,238 -29,363 -28,223 -7,491 13,714 5,59 1,123 7,182 3,35 11,49 16,76 5,30 6,66 10,92 10,63 84,437 103,480 30,65 47,190 56,228 14,52 17,21 25,75 24,149 94,293 157,431 12,25 22,38 29,62 27,94 74,180 120,268 23,43 40,91 68,127 40,52 104,182 141,248 20,37 28,20 24,78z"/>
   <path class="fil2" d="M3035 10272c40,59 96,79 157,131 56,49 90,87 148,138 32,29 45,36 82,61 43,28 41,42 108,86l446 309 229 119c143,77 199,118 290,146 22,7 36,9 56,17l248 108c142,53 297,101 451,135 72,16 157,31 224,59 56,25 413,67 498,86 138,31 673,43 813,35l896 -115 341 -93c117,-19 50,8 181,-40l320 -117c39,-15 20,-7 49,-22 86,-44 242,-100 396,-178l98 -53c58,-40 120,-62 182,-104l432 -293c33,-31 58,-30 80,-75 -33,-14 -25,-14 -51,-28 -62,-32 -98,-52 -123,-119 -23,-62 -35,-71 -33,-151 103,-98 238,-170 245,-245 19,-206 85,-197 108,-359 8,-60 12,-76 -7,-134 -9,-27 -17,-36 -23,-62 -10,-46 2,-20 1,-50 -8,-40 -13,-55 -8,-107 -15,29 -13,18 -41,36 -10,-87 -12,-78 39,-122 80,-69 98,-74 26,-157 -23,-27 -34,-34 -58,-54 -24,-21 -33,-34 -65,-58 -290,-217 -238,-242 -304,-500 -9,-37 -6,-78 -12,-116 -23,-165 -55,-339 -57,-513 -1,-186 -55,-211 -162,-307 -58,-51 -113,-78 -181,-113l-124 -42c-210,-75 -616,-139 -820,-90 -107,25 -265,48 -355,114 -1,1 -27,23 -34,28 -4,4 -14,13 -16,14 -1,2 -3,4 -5,5 -19,19 -51,46 -58,71 -12,42 26,56 47,78l362 425c80,82 130,173 208,252 59,60 100,139 153,204 49,61 100,125 138,197l166 335c22,52 -3,-9 9,21l37 136c12,64 30,44 37,184 8,147 -18,264 -76,388l-43 81c-18,38 -18,39 -40,69l-65 79c-1,2 -3,4 -5,5 -1,1 -4,3 -5,4l-10 10c-56,59 -109,117 -180,155l-20 11c-59,32 -125,61 -191,75 -105,23 -178,37 -297,36 -151,-2 -272,-28 -388,-75l-174 -58c-86,-26 -251,-85 -332,-133 -104,-61 -289,-160 -364,-215 -109,-81 -335,-257 -436,-320l-41 -20c-75,-29 -84,-32 -185,-36 -150,-6 -419,-35 -537,52 -63,47 -97,124 -142,190 -73,106 -113,163 -217,255 -67,61 -195,185 -295,159 -48,-13 -94,-72 -119,-118 -32,-57 -41,-115 -42,-197 -2,-301 61,-331 63,-396 -69,5 -133,91 -184,129 -34,24 -60,43 -94,70 -72,58 -121,82 -196,131l-695 386c-45,26 -71,30 -117,46 -81,30 -138,64 -219,84l-118 40z"/>
   <path class="fil3" d="M1883 10225c-43,-24 -73,-62 -101,-106 -11,-19 -50,-103 -121,-60 -115,69 94,167 99,173 19,22 27,49 50,73 27,26 112,75 145,81 73,14 115,28 110,120 -81,1 -317,-145 -394,-244 -46,-60 -84,-57 -144,-29 -11,129 81,126 169,197 28,24 52,36 72,67 33,9 54,41 86,58l-14 21c-9,14 -10,14 -16,25 -157,13 -116,-80 -323,-232l-226 -193c-30,-30 -44,-30 -40,-91 168,-22 9,-54 295,-196 30,-15 77,-50 102,-71 2,-1 4,-3 6,-4l44 -27c21,-11 34,-21 50,-33l304 -207c31,-24 55,-48 92,-71l312 -199c68,-46 148,-71 223,-114l197 -138c22,-12 39,-19 55,-28l237 -172c86,-65 133,-82 198,-138l187 -150c139,-91 127,-116 179,-158 142,-117 375,-85 479,-114 129,-36 117,-13 219,-36 44,-10 88,-12 142,-21 287,-49 338,-40 574,115l51 40c58,52 129,88 41,235 -36,59 -21,77 -74,150 -19,26 -30,32 -41,50 -14,23 -10,27 -30,54 -104,139 -323,362 -464,464l-136 109c-24,16 -37,19 -59,34l-711 450c-49,18 -77,30 -126,51 -161,69 -310,151 -477,197l-123 41c-114,38 -325,80 -445,63 -90,-142 -148,-176 -292,-279 -51,-37 -24,-18 -42,-77 -19,-60 -34,-29 -53,-60 -2,-2 -31,-85 -33,-91 -57,-1 -82,1 -91,51 -13,75 50,94 89,154l124 193c48,64 38,-24 107,78 13,19 16,7 23,43 5,31 2,46 -15,61 -10,11 -34,17 -52,17 -72,0 -53,-37 -96,-95 -26,-34 -38,-25 -71,-51l-275 -295c-7,-7 -10,-10 -17,-15 -14,-9 -9,-8 -30,-16 -61,51 -66,66 -23,119 16,20 221,226 232,291 -39,23 -130,-36 -138,-64zm784 -2823c0,29 130,43 112,319 -5,78 -90,141 -151,181 -67,44 -192,157 -262,186 -140,58 -369,257 -448,199 -29,-21 -28,-43 -27,-87 2,-96 25,-91 74,-153 169,-213 363,-381 571,-552 31,-25 97,-72 131,-93zm2072 453c30,14 76,-22 96,-42 70,-71 163,-195 178,-279l32 -274c0,-88 -2,-222 19,-290 62,-22 161,-14 240,-13 203,5 147,25 225,30 145,11 353,10 488,-7 68,-8 77,-20 216,-27 111,-6 237,-4 338,40 26,11 12,10 43,19 61,18 196,46 202,124 -257,21 -893,29 -1094,154 -16,10 -29,16 -46,25 -184,98 -303,201 -464,334 -155,128 -152,153 -265,266l-11 10c-10,10 -10,11 -14,15l-190 78c-20,7 -33,8 -55,16l-298 99c-65,25 -142,36 -220,43 -166,13 -357,9 -464,-58 -13,-60 24,-105 68,-195l34 -56c44,-81 68,-167 136,-222 89,-72 361,-239 410,-304 18,-24 12,-25 34,-48 107,-113 25,1 113,-162 95,-175 114,-316 238,-477 31,-40 51,-66 85,-99 18,-18 25,-26 51,-41 199,-113 701,-149 818,-304 102,-134 136,-105 221,3 36,46 67,49 144,119l136 131c31,27 78,49 107,77 53,52 131,133 189,170 45,29 102,89 143,130 23,24 31,21 32,66 -171,-12 -286,-138 -658,-24 -251,78 -553,-44 -907,-29 -84,4 -71,25 -93,99 -28,96 -30,233 -53,336l-39 162c-1,2 -3,5 -4,7l-12 59c-2,20 -1,25 -9,45l-11 20c-1,3 -6,10 -7,13l-122 261zm-2006 -472l218 -147c20,-13 30,-24 53,-39 24,-17 38,-20 59,-33l430 -306c32,-27 387,-258 431,-302l317 -236c45,-31 74,-33 117,-76l15 -16c14,-14 13,-13 29,-23 21,-14 38,-21 64,-26 17,13 28,28 43,38 28,20 100,33 134,141 39,124 42,101 -13,199 -52,94 -129,37 -161,-23 -41,-77 -38,-77 -144,-78 6,57 9,38 29,88 106,262 17,210 -92,298l-295 214c-21,13 -42,24 -62,40 -38,30 -68,58 -119,85l-380 243c-46,28 -96,49 -133,73 -15,11 -41,31 -59,43l-204 109c-42,18 -119,69 -135,9 -29,-111 14,-49 -57,-148 -36,-51 -61,-74 -85,-127zm1914 -1222c-35,-26 -75,-39 -65,-92 24,-119 128,-64 200,-12 24,17 27,24 40,40 118,139 104,162 65,292l-125 -9c-45,-79 -29,-153 -115,-219zm187 -331c95,-66 171,70 272,157 71,61 158,105 160,235 -74,33 -103,52 -210,60 -30,-51 -25,-71 -50,-125 -93,-202 -214,-205 -237,-270 19,-13 49,-46 65,-57zm184 -50c-11,-80 3,-93 37,-138l133 -141c120,-103 74,115 74,118 96,84 58,19 91,122 16,49 30,39 88,86l16 14c59,49 61,27 106,99 19,31 48,112 46,156 -20,18 -25,18 -48,34 -2,1 -4,3 -6,4 -2,1 -4,3 -6,5 -1,1 -3,3 -5,4l-58 32c-66,40 -35,33 -63,17 -37,-10 -7,11 -29,-30l-69 -116c-1,-2 -3,-4 -4,-6 -1,-2 -3,-5 -4,-7 -72,-99 -88,-150 -190,-203 -2,-1 -5,-2 -7,-3 -50,-25 -63,-46 -102,-47zm4689 -43c45,114 -161,268 -240,288 -182,46 -291,-236 -317,-364 -37,-179 -41,-108 -39,-363 93,13 121,114 175,171 46,9 75,10 111,-7 19,-10 9,-8 39,-22 15,-7 22,-9 34,-15 37,27 218,262 237,312zm727 3131c55,0 58,24 89,46 31,22 56,43 90,51 37,-46 45,-54 77,-116 27,-51 55,-72 82,-112 15,-21 23,-35 37,-55l201 -301c28,-44 49,-86 77,-126 11,-16 28,-35 39,-53l106 -160c1,-2 3,-5 4,-6 42,-63 48,-100 78,-147 21,-33 22,-24 43,-57 130,-210 190,-331 342,-557 27,-40 46,-79 73,-123 28,-46 56,-71 83,-119l387 -595c56,-80 105,-122 175,-222l264 -340c18,-22 32,-25 50,-42 45,-38 111,-144 134,-173l269 -322c19,-21 32,-30 50,-52 22,-27 21,-37 55,-50 -2,67 -55,138 -82,186l-256 500c-30,48 -105,247 -155,315l-314 513c-19,30 -33,58 -48,83l-338 490c-20,38 -29,47 -54,81 -25,36 -33,41 -56,76 -40,61 -73,104 -118,157l-169 239c-22,28 -37,52 -61,83 -43,53 -74,104 -112,152 -45,57 -96,150 -142,196 -5,4 -32,38 -32,38 -23,35 -27,55 -53,91l-568 801c-117,161 -47,303 -25,431 9,53 26,208 -36,222 -39,9 -136,-84 -163,-105 -127,-99 -104,-210 -71,-417 19,-121 9,-424 48,-501zm-10 -3166c-45,30 -80,47 -123,3 -91,-92 -210,-201 -260,-311 -17,-37 -32,-125 -6,-163 24,-34 98,-37 139,-53 111,-41 199,-51 293,21 2,83 -56,112 -64,233 -9,155 22,238 21,270zm-517 -547c-7,11 -6,3 -8,24 -2,25 16,48 36,113l39 114c28,65 30,113 52,154 50,91 113,186 204,245 1,0 24,18 24,18 14,16 9,4 15,29 22,92 -14,96 -84,94 -144,-2 -140,23 -199,-70 -62,-97 -30,-39 -80,-104l-193 -236c-114,-151 -400,-484 -310,-702 58,-139 261,-167 394,-149 51,6 73,41 102,74 34,39 66,100 152,29 19,-16 4,-5 19,-20l22 -21c78,-68 48,-32 125,-88 2,-2 10,-7 12,-9l78 -46c77,-43 24,-7 101,-72 86,-74 77,-60 231,49 72,50 242,187 242,270 -112,80 -195,107 -268,219 -235,14 -356,-50 -570,24 -34,12 -118,37 -136,61zm-734 -18c-10,-12 -16,-17 -29,-33 -88,-105 -182,-342 -186,-478 -2,-90 5,-163 36,-231 23,-48 68,-130 103,-163 36,-33 24,-32 71,-60 94,-59 155,-103 267,-130 412,-99 964,20 970,288 3,108 -71,112 -122,149 -75,53 -255,186 -343,173 -50,-95 -133,-84 -307,-87 -74,-1 -132,-18 -173,30 -52,60 -80,125 -113,183 -23,40 -12,27 -22,79 -64,312 81,352 93,452 -29,15 -61,21 -104,23l-141 -195zm-1407 -1614c17,-17 115,-3 139,4 32,9 73,33 96,56 144,143 185,182 263,362 24,55 90,129 117,186 60,124 102,230 35,370 -37,77 -65,169 -124,234 -2,1 -4,3 -5,5 -2,2 -4,4 -6,5l-35 54c-36,75 -212,265 -358,267 -243,4 -219,-198 -272,-354 -28,-83 -13,-91 -26,-128l-6 -14c-1,-2 -3,-5 -3,-7 -20,-52 -5,-50 -28,-105 -1,-2 -2,-5 -3,-7l-14 -50c-14,-64 -64,-104 -12,-190 45,-75 113,-234 143,-326l55 -178c5,-41 27,-167 44,-184zm-1593 847c-24,-8 -92,-27 -108,-37 -35,-21 -38,-37 -47,-84 -22,-111 -177,-71 -35,-251 91,-116 99,-148 203,-236 3,-2 9,-8 11,-10 38,-36 56,-62 108,-95 101,-65 112,-72 185,-24l162 103c290,166 323,297 277,644 -8,63 -112,213 -148,253 -75,83 -354,195 -358,128 -2,-38 110,-98 143,-117 65,-37 120,-57 183,-84 1,-28 1,-60 0,-88 0,-15 -1,-25 -3,-39 -10,-55 -145,-91 -145,-91 -83,40 -77,78 -79,192 -45,36 -38,34 -116,30 -70,-4 -161,-26 -209,-76 -29,-30 -21,-71 -24,-118zm2590 51l40 93c12,32 5,9 13,27 22,47 5,90 20,144 28,104 106,230 144,424l58 355c17,114 48,200 60,267 17,88 46,150 72,234 23,77 -1,57 55,111 49,47 100,134 222,100 61,-16 54,-39 105,-69l22 -10c19,-29 51,-32 83,-15 36,19 11,5 22,27l200 433c1,3 3,5 4,7 21,43 11,-2 19,45 11,70 36,118 49,195 19,106 97,291 -56,375 -57,32 -142,30 -214,42 0,19 0,9 7,21l52 69c13,12 32,22 48,34 81,63 105,94 162,164 97,119 142,119 219,190l40 42c43,55 85,107 86,165 -135,5 -389,-20 -507,5 -31,7 -78,48 -110,74l-101 92c-11,11 -19,19 -31,30 -30,31 3,21 -46,27 -74,-115 0,-318 -45,-440 -20,-12 -50,-24 -63,-35 -67,-54 -120,-117 -175,-162 -64,-52 -94,-89 -200,-128 -19,-7 -63,-14 -72,-24 -23,-7 -39,-14 -60,-21l-232 -51c-162,-27 -392,7 -503,9 -98,2 -131,13 -202,31l-177 52c-81,41 -192,119 -210,210 -10,50 -11,76 -1,98 10,25 58,59 83,91 30,36 51,68 88,107 113,119 276,265 366,388l250 313c26,30 64,111 113,173 16,20 23,32 37,54 24,37 53,83 72,121 98,195 206,562 118,769 -36,86 -61,179 -125,252 -37,41 -47,66 -91,102 -58,49 -99,86 -171,107 -49,15 -34,16 -69,31 -185,87 -457,78 -640,15 -85,-29 -200,-61 -278,-99l-257 -122c-67,-35 -54,-35 -134,-62l-140 -52c-35,-156 175,-328 159,-516 -44,-21 -39,-27 -78,0 -17,10 -55,35 -66,55 -34,65 17,118 -51,196 -29,33 -90,96 -135,96 -26,0 -149,-54 -171,-71 -48,-36 -71,-81 -111,-123 -126,-128 -436,-113 -617,-112 -187,1 -317,14 -424,172 -56,84 -61,113 -147,219 -43,52 -62,82 -108,127l-139 108c-44,29 -102,77 -170,18 -105,-92 -57,-275 -57,-406 0,-130 42,-165 110,-251 16,-21 30,-53 46,-76 65,-96 141,-181 198,-283l107 -136c31,-54 69,-94 97,-141 33,-56 52,-107 88,-156l50 -64c113,-178 262,-278 486,-201 40,13 62,16 89,32 25,15 41,30 66,46 119,72 169,99 153,205 -11,74 -13,144 -27,217 -13,64 -48,113 -34,199l121 -8c11,-62 30,-95 34,-169 2,-55 -6,-118 4,-172 4,-26 4,-29 31,-33 69,-10 129,51 185,78 -18,118 -64,142 -37,281 58,5 113,-5 127,-73 5,-24 2,-67 1,-92 -1,-10 -2,-43 -1,-51 8,-72 27,-35 274,-12 106,133 -115,227 -58,407 7,24 24,23 48,15 166,-56 78,-320 229,-426 17,-12 7,-6 24,-17 139,-90 481,-50 616,52 92,68 240,186 332,231 38,19 54,33 117,25 2,-153 -194,-232 -238,-272 -34,-32 -22,-33 -66,-54l-62 -31c-2,-1 -5,-2 -7,-4 -21,-10 -1,-1 -19,-11 -14,-7 -18,-8 -35,-16 -139,-69 -113,-38 -245,-63 -115,-21 -153,-2 -268,4 -312,15 -387,86 -708,-47 -52,-21 -94,-31 -140,-66 -37,-28 -82,-53 -121,-84 -107,-84 -183,-145 -303,-206l-37 -29c-106,-7 -237,-13 -330,18 -150,49 -109,83 -199,148 -88,-2 -126,-74 -187,-108l-196 -112c-8,-137 125,-241 214,-327l217 -162c77,-52 146,-112 231,-145 44,-17 26,-8 63,-30 60,-35 280,-123 341,-133l210 -61c92,-46 495,-23 600,15 38,13 111,43 144,46 42,4 170,73 193,78 40,7 56,-5 53,-62 -2,-60 -3,-23 -25,-66 -18,-46 -36,-48 -83,-116l-80 -129 -522 -384c-65,-48 -68,2 -79,-106 -67,-110 -319,-296 -386,-398 -59,-90 -96,-77 -138,-96 -149,-65 -129,-23 -195,-50 9,-29 15,-29 55,-53 90,-53 165,-86 258,-59 -6,-54 -37,-58 -45,-55 31,-32 80,2 103,20 43,33 15,31 132,31 14,-31 24,-27 38,-57 22,-48 13,-245 13,-310 5,-1 191,-108 266,-113 7,-8 8,-28 10,-33 -42,9 -282,83 -295,122 -31,88 26,235 -42,341 -1,1 -4,8 -5,7 -1,-2 -3,5 -5,7 -118,6 -169,-69 -220,-101 -51,-32 -166,12 -224,31 -234,78 -194,35 -317,-83 -53,-51 -81,-32 -76,-76 20,-48 85,-35 143,-49 192,-44 384,-130 567,-202l356 -206c77,-37 157,-103 224,-152l449 -263c36,-20 271,-117 311,-87 36,26 23,163 19,200 -36,9 -73,11 -114,19 -15,2 -37,5 -51,9 -44,13 -37,13 -49,26 122,0 104,-20 299,-20 -65,50 -118,14 -153,66 76,-4 73,-24 151,-23 59,119 -37,41 156,191 76,60 150,92 268,64 59,-14 78,-23 126,-47l238 -189c75,-65 207,-281 215,-388 11,-155 1,-191 -31,-318 -84,-339 -199,-428 -27,-361 197,77 167,64 189,172l37 209c11,66 40,119 54,174zm81 -67c-15,-28 -13,-39 -12,-86 1,-31 2,-49 9,-76 29,-129 110,-221 187,-314 83,-102 160,-135 234,-195 53,-43 87,-65 150,-92 12,-5 22,-7 38,-13l149 -54c72,-20 296,-36 392,-30 88,5 308,62 383,127 44,39 21,38 88,65 10,60 9,75 -14,121 -36,70 -23,75 -72,143 -19,26 -86,101 -110,103 -33,3 -106,-103 -181,-126 -185,-57 -485,-40 -663,7 -97,25 -263,105 -338,173 -28,25 -49,58 -78,85 -97,87 -126,171 -162,162zm-1557 -138c-11,-95 13,-152 37,-214l107 -396c14,-62 23,-147 41,-202 46,-5 75,-2 120,16 82,31 64,177 57,245 -7,71 -96,283 -141,366 -77,139 -26,210 -221,185zm-390 -728c132,-14 263,-69 443,-61 14,214 -94,706 -240,751 -45,-105 -49,-169 -120,-288 -79,-131 -131,-129 -242,-229 -14,-14 -15,-12 -34,-26 -34,-24 -52,-37 -55,-83l248 -64zm346 -446c32,6 42,23 67,37 93,57 185,-2 352,-6 99,-2 129,-6 153,42l-142 183c-131,17 -389,-39 -488,-125 -26,-23 -91,-90 -37,-124 16,-10 69,-12 95,-7zm-2625 2779c-36,137 -578,532 -705,611 -131,81 -240,-108 -279,-157 -40,-50 -29,-53 -60,-135 -39,-104 10,-517 28,-614 10,-59 21,-26 25,-103 5,-91 44,-218 29,-357 -6,-47 -10,-9 -20,-112 -17,-178 -53,-231 -68,-319 -38,-223 103,-388 260,-525 111,-97 79,-61 151,-115l543 -376c187,-136 150,-64 123,-228 -20,-124 -48,-235 -34,-359 6,-57 9,-17 29,-99 21,-92 112,-164 193,-196 138,-55 475,72 552,86l574 198c1,62 -21,73 -52,104l-225 225c-25,25 -54,50 -76,77l-481 571c-75,74 -123,175 -173,225 -63,64 -109,118 -153,197l-195 251c-27,28 -16,17 -33,50 -21,40 0,6 -29,42 -24,29 -42,62 -58,85 -129,184 -323,437 -414,637 -35,75 -86,139 -101,196 -12,44 -28,92 -5,121 36,48 511,4 654,19zm2742 -1450c-5,41 -35,82 -77,93 -71,19 -139,84 -194,129l-703 441c-29,19 -49,34 -73,50l-401 222c-41,29 -86,39 -129,66 -75,47 -160,110 -254,95 -89,-14 -87,-112 -225,-118 -119,-5 -186,22 -242,117 -14,24 -25,46 -48,65 -52,46 -102,23 -154,80 -24,27 -24,48 -75,46 -242,-10 -12,62 -463,97 -79,7 -146,7 -224,15 -35,3 -68,16 -57,-36 7,-40 19,-42 28,-84 7,-36 22,-60 35,-87 30,-63 49,-139 99,-200l110 -175c33,-41 52,-109 83,-152 19,-25 35,-48 51,-73 17,-26 32,-39 50,-61 37,-43 60,-82 96,-138 51,-79 537,-703 627,-781 33,-30 68,-94 105,-132 42,-43 78,-76 113,-122 19,-25 36,-48 53,-68l341 -365c51,-56 110,-138 175,-169 57,-28 113,-38 169,-67 169,-88 328,-175 485,-282l37 -25c122,-81 242,-145 375,-206 84,-39 136,-48 218,-78 144,-54 182,-41 345,-62 80,-10 132,-12 220,-12 140,1 124,13 214,19 122,9 191,25 297,59l398 183c148,138 20,373 -68,493 -45,61 -103,142 -159,199 -23,23 -31,37 -52,60l-187 274 -106 -2c-34,-96 -52,-138 -151,-209 -16,-11 -45,-31 -55,-37 -22,-13 -36,-17 -59,-33 -38,-26 -92,-36 -105,-81l172 -127c91,-56 22,-74 -30,-116 -100,-81 27,-53 -248,-148 -102,-36 -163,-49 -264,6 -207,114 -101,-99 -341,-49 -51,10 -88,92 -124,137 -64,78 -13,126 31,175 44,49 143,28 172,91 -26,68 -230,29 -392,87 -165,59 -333,60 -486,135l-79 44c-77,49 -254,220 -294,290 -10,17 -16,36 -23,50 -30,56 -102,129 -111,211 -16,146 103,123 130,184 5,79 -14,100 41,142 56,43 59,7 96,80 81,162 124,76 198,156 6,100 -26,161 38,209 54,40 136,33 207,13 54,-14 393,-220 418,-245 54,-53 70,-137 102,-208 10,-20 8,-16 23,-37 15,-21 9,-15 26,-34 64,-74 213,-23 275,6zm-5118 4962l-8 6c-10,12 -5,7 -17,20 -8,8 -7,7 -17,16l-98 65c-14,10 -47,29 -68,44 -35,24 -40,32 -76,45 -129,98 -413,294 -553,359l-586 332c-32,20 -62,40 -96,58 -68,36 -110,85 -154,152 -135,203 -213,282 39,485 42,34 41,43 74,78l119 145c15,21 4,5 17,25l214 246 244 216c15,12 34,20 45,28 35,26 203,153 234,151 54,9 12,5 52,18 6,1 12,4 22,5 18,2 15,0 22,-2 -50,-23 -32,-1 -54,-49 -132,-47 -366,-252 -471,-348 -69,-63 -133,-134 -201,-208 -44,-47 -181,-241 -214,-306 -83,-163 -72,-66 -156,-150 -214,-215 390,-608 572,-593 39,47 114,141 169,179 40,28 60,47 95,78 18,15 28,30 43,49l24 34c25,47 5,17 55,33 41,13 28,29 103,60 86,5 97,79 124,101 0,0 155,-123 261,-129 73,12 64,-30 125,-24 13,-14 2,-5 18,-17l395 -166 243 -51c145,-11 167,-48 253,-46l118 -40c81,-20 138,-54 219,-84 46,-16 72,-20 117,-46l695 -386c75,-49 124,-73 196,-131 34,-27 60,-46 94,-70 51,-38 115,-124 184,-129 -2,65 -65,95 -63,396 1,82 10,140 42,197 25,46 71,105 119,118 100,26 228,-98 295,-159 104,-92 144,-149 217,-255 45,-66 79,-143 142,-190 118,-87 387,-58 537,-52 101,4 110,7 185,36l41 20c101,63 327,239 436,320 75,55 260,154 364,215 81,48 246,107 332,133l174 58c116,47 237,73 388,75 119,1 192,-13 297,-36 66,-14 132,-43 191,-75l20 -11c71,-38 124,-96 180,-155l10 -10c1,-1 4,-3 5,-4 2,-1 4,-3 5,-5l65 -79c22,-30 22,-31 40,-69l43 -81c58,-124 84,-241 76,-388 -7,-140 -25,-120 -37,-184l-37 -136c-12,-30 13,31 -9,-21l-166 -335c-38,-72 -89,-136 -138,-197 -53,-65 -94,-144 -153,-204 -78,-79 -128,-170 -208,-252l-362 -425c-21,-22 -59,-36 -47,-78 7,-25 39,-52 58,-71 2,-1 4,-3 5,-5 2,-1 12,-10 16,-14 7,-5 33,-27 34,-28 90,-66 248,-89 355,-114 204,-49 610,15 820,90l124 42c68,35 123,62 181,113 107,96 161,121 162,307 2,174 34,348 57,513 6,38 3,79 12,116 66,258 14,283 304,500 32,24 41,37 65,58 24,20 35,27 58,54 72,83 54,88 -26,157 -51,44 -49,35 -39,122 28,-18 26,-7 41,-36 168,-176 223,-153 100,-279 -30,-30 -52,-56 -94,-80 -103,-59 -304,-209 -345,-333 -24,-70 -41,-224 -37,-313 2,-48 12,-54 35,-85 4,-7 10,-17 16,-24 30,-35 105,-86 140,-115l183 -82c171,-63 394,-124 551,-8 82,60 115,115 120,222 5,120 -11,214 -53,301l-106 231c-26,69 -91,191 -83,247 14,98 26,214 1,313 -26,105 -30,157 -66,281 -16,57 -64,224 -95,254 -30,31 -36,9 -88,86 -30,44 -39,76 -13,132 73,-18 160,-81 183,-140 25,-63 23,-88 76,-165 53,-78 63,-28 134,75 78,115 33,229 -68,142 -36,-30 -58,-35 -117,-33 -10,156 101,96 79,258 -23,16 -51,33 -86,37 -62,-54 -86,-83 -207,-81 1,50 18,67 32,107 27,73 12,52 -20,100 -94,1 -170,-60 -221,-108 -27,38 -54,43 -13,97 24,32 50,53 52,103 0,0 -98,100 -180,-5 -43,-55 -54,-44 -62,-117 2,-2 5,-9 6,-7 0,2 4,-5 5,-7l259 -213c37,-31 62,-34 59,-96 -154,-48 -111,-15 18,-264 65,-125 41,-176 -25,-260 -10,-13 -20,-26 -27,-34 -30,-34 3,-13 -35,-30 1,30 -11,4 -1,50 6,26 14,35 23,62 19,58 15,74 7,134 -23,162 -89,153 -108,359 -7,75 -142,147 -245,245 -2,80 10,89 33,151 25,67 61,87 123,119 26,14 18,14 51,28 93,-10 374,-211 500,-264 107,-45 109,-79 158,-110l37 -53c17,-23 81,-93 110,-109 13,-44 32,-40 61,-86 20,-32 45,-67 60,-94 38,-66 42,-154 41,-251 -24,-63 -43,-150 -28,-238 27,-155 94,-176 201,-347 68,-108 86,-101 167,-243l279 -404c18,-29 38,-56 55,-78l46 -58c23,-21 1,-6 28,-20 38,-67 42,-105 101,-177 69,-83 119,-192 181,-248 113,-99 29,-50 119,-167 48,-63 38,-64 79,-82 -7,-50 51,-108 86,-151l154 -224c18,-25 32,-46 50,-73l251 -371c20,-30 37,-41 59,-73 79,-114 264,-432 323,-545 59,-111 86,-139 130,-250l82 -172c12,-27 26,-54 40,-82 14,-28 22,-55 37,-87l101 -235c36,-76 27,-89 40,-124 14,-39 61,-114 61,-152 0,-57 6,27 -2,-16 -10,-59 -75,57 -87,69l-189 200c-30,38 -62,70 -93,100l-211 259c-20,26 -18,34 -40,64 -30,41 -59,61 -94,98 -27,29 -40,68 -76,107l-175 214c-17,22 -16,33 -35,56 -20,25 -26,28 -47,56 -28,38 -46,59 -80,104l-191 289c-9,12 -35,46 -39,55 -19,45 0,9 -29,41 -62,71 -18,63 -76,115 -4,27 -58,97 -75,122 -12,17 -32,48 -40,61 -24,40 -14,32 -53,56 -17,28 -15,37 -28,67 -54,120 -173,271 -246,388 -14,23 -22,36 -36,56l-176 273c-9,14 -13,19 -21,31 -5,9 -11,21 -15,27l-110 152c-28,36 -44,81 -67,120 -49,82 -91,131 -143,214l-147 208c-21,28 -120,208 -155,212 -26,4 -84,-40 -92,-60 -16,-39 67,-311 83,-378 12,-49 28,-63 35,-112 6,-53 0,-95 -19,-131 -38,-71 -212,-300 -256,-345 -71,-74 -137,-171 -215,-245 -53,-51 -99,-101 -155,-152 -36,-32 -131,-110 -135,-159 88,-96 176,18 209,-219 24,-182 -120,-589 -213,-750 -40,-68 -100,-126 -93,-220 57,-42 97,-206 177,-106 50,63 75,54 164,55 189,2 202,63 258,-131 45,-159 158,4 160,-303 2,-237 -1,-359 143,-470l361 -235c7,-51 9,-46 -20,-76 -76,-79 -157,-145 -247,-211l-159 -119c-102,-64 -96,-22 -114,-166 -5,-40 -28,-75 -49,-109 -29,-45 -82,-69 -93,-105 14,-25 67,-62 98,-113 162,-264 92,-292 -17,-393 -41,-38 -71,-53 -136,-71l-149 -51c-65,-28 -313,-15 -386,-5l-324 84c-101,30 -179,86 -263,143 -23,15 -36,24 -58,45l-84 78c-2,2 -4,4 -6,5l-68 65c-17,20 -23,33 -41,59l-40 60c-15,36 -16,39 -25,77 -12,57 -8,38 -33,73 -27,-25 -10,7 -25,-42 -3,-9 -4,-27 -7,-42 -30,-145 -24,-147 -137,-206 -2,-1 -4,-3 -6,-4 -69,-36 -167,-68 -242,-96 -5,-155 53,-159 109,-243 54,-82 93,-132 148,-201 74,-96 168,-208 202,-321 7,-23 2,-9 11,-27 113,-223 -14,-344 -193,-446 -153,-87 -422,-145 -601,-164 -619,-67 -1032,101 -1472,407 -111,77 -450,287 -557,303l-1 -100c-34,-25 -196,-74 -248,-82 -160,-26 -297,-100 -446,-133 -109,-24 -56,-32 -266,-62 -45,-7 -20,-10 -63,-17 -184,-31 -349,86 -413,239 -7,18 -12,44 -16,63 -5,20 -5,16 -10,32 -31,88 22,330 15,489l-487 328c-3,1 -35,17 -47,25l-44 36c-100,65 -203,145 -284,229 -24,25 -43,52 -68,85 -26,35 -49,48 -67,74 -131,200 -47,466 -13,709 25,174 3,369 -24,543 -8,45 -5,96 -17,138 -55,179 -67,447 20,599l59 94c16,25 47,56 71,74 35,28 49,39 93,53 28,9 69,20 99,30 -8,29 -96,77 -126,97 -52,34 -84,74 -126,98 -147,80 -525,385 -673,461 -102,52 -181,123 -276,185l-320 242c-98,92 -194,191 -298,274 -43,35 -66,79 -105,120 -27,28 -28,26 -51,59 -17,24 -99,64 -39,225 3,6 6,14 9,23 6,15 9,22 14,36 189,27 275,-94 387,-149l62 -38c2,-2 5,-3 7,-4l186 -111c29,-15 19,-8 42,-27 14,-11 22,-20 35,-28l69 -41c34,-23 58,-49 102,-64l85 -47c76,-53 166,-118 248,-160l664 -416c56,-38 110,-67 165,-103l412 -271c81,-55 138,-156 237,-173 1,92 -53,199 -86,261 -36,70 -128,295 -178,333 -79,60 -211,127 -303,189 -147,96 -207,218 -288,377 -25,48 -24,76 -46,126l-31 118c-50,134 212,124 90,206l-332 240c-38,28 -56,39 -97,64l-144 103c-18,13 -32,25 -46,34 -19,11 -34,16 -53,30 -45,31 -85,75 -133,100 -38,20 -68,45 -99,65 -91,59 -300,210 -394,262 -27,15 -30,11 -53,28l-139 94z"/>
   <path class="fil4" d="M7424 8938c46,71 46,140 49,252 15,439 -35,279 -212,559 -20,31 -37,60 -89,64 -112,-153 42,-137 166,-397 42,-88 54,-189 26,-276 -45,-141 -62,-218 60,-202zm-1535 223l-75 2c-31,-43 -79,-194 -122,-228 -70,38 -36,100 -37,259 -34,17 -50,28 -99,30 -5,-49 15,-424 42,-455 23,-26 87,-49 124,-48 30,13 103,176 126,200 15,-11 31,-24 41,-42l34 -68c32,-70 29,-85 111,-56 6,47 -31,182 -53,214 -26,39 -44,33 -60,81 -14,40 -15,67 -32,111zm-1093 537c-7,-193 210,-446 308,-607 11,-18 315,-364 360,-435 59,-94 76,-188 212,-119 1,42 -1,34 -19,68l-34 58c-5,6 -12,13 -14,16 -57,64 -94,66 -138,157 -31,64 -75,80 -127,129 -102,98 -133,183 -210,302 -12,19 -8,6 -22,39 -30,71 -17,59 -74,118 -35,37 -76,101 -99,157 -27,64 -29,138 -143,117zm2764 -2040c-48,-9 -53,-11 -84,-37 -45,-37 -117,-78 -188,-150 -121,-124 -57,-38 -139,-86 -2,-1 -4,-3 -6,-4 -85,-52 -118,-39 -141,-75 -33,-3 -106,-33 -144,-46 -105,-38 -508,-61 -600,-15l-210 61c-61,10 -281,98 -341,133 -37,22 -19,13 -63,30 -85,33 -154,93 -231,145l-217 162c-89,86 -222,190 -214,327l196 112c61,34 99,106 187,108 90,-65 49,-99 199,-148 93,-31 224,-25 330,-18l37 29c120,61 196,122 303,206 39,31 84,56 121,84 46,35 88,45 140,66 321,133 396,62 708,47 115,-6 153,-25 268,-4 132,25 106,-6 245,63 17,8 21,9 35,16 18,10 -2,1 19,11 2,2 5,3 7,4l62 31c44,21 32,22 66,54 44,40 240,119 238,272 -63,8 -79,-6 -117,-25 -92,-45 -240,-163 -332,-231 -135,-102 -477,-142 -616,-52 -17,11 -7,5 -24,17 -151,106 -63,370 -229,426 -24,8 -41,9 -48,-15 -57,-180 164,-274 58,-407 -247,-23 -266,-60 -274,12 -1,8 0,41 1,51 1,25 4,68 -1,92 -14,68 -69,78 -127,73 -27,-139 19,-163 37,-281 -56,-27 -116,-88 -185,-78 -27,4 -27,7 -31,33 -10,54 -2,117 -4,172 -4,74 -23,107 -34,169l-121 8c-14,-86 21,-135 34,-199 14,-73 16,-143 27,-217 16,-106 -34,-133 -153,-205 -25,-16 -41,-31 -66,-46 -27,-16 -49,-19 -89,-32 -224,-77 -373,23 -486,201l-50 64c-36,49 -55,100 -88,156 -28,47 -66,87 -97,141l-107 136c-57,102 -133,187 -198,283 -16,23 -30,55 -46,76 -68,86 -110,121 -110,251 0,131 -48,314 57,406 68,59 126,11 170,-18l139 -108c46,-45 65,-75 108,-127 86,-106 91,-135 147,-219 107,-158 237,-171 424,-172 181,-1 491,-16 617,112 40,42 63,87 111,123 22,17 145,71 171,71 45,0 106,-63 135,-96 68,-78 17,-131 51,-196 11,-20 49,-45 66,-55 39,-27 34,-21 78,0 16,188 -194,360 -159,516l140 52c80,27 67,27 134,62l257 122c78,38 193,70 278,99 183,63 455,72 640,-15 35,-15 20,-16 69,-31 72,-21 113,-58 171,-107 44,-36 54,-61 91,-102 64,-73 89,-166 125,-252 88,-207 -20,-574 -118,-769 -19,-38 -48,-84 -72,-121 -14,-22 -21,-34 -37,-54 -49,-62 -87,-143 -113,-173l-250 -313c-90,-123 -253,-269 -366,-388 -37,-39 -58,-71 -88,-107 -25,-32 -73,-66 -83,-91z"/>
   <path class="fil4" d="M7360 4371c-62,-29 -211,-80 -275,-6 -17,19 -11,13 -26,34 -15,21 -13,17 -23,37 -32,71 -48,155 -102,208 -25,25 -364,231 -418,245 -71,20 -153,27 -207,-13 -64,-48 -32,-109 -38,-209 -74,-80 -117,6 -198,-156 -37,-73 -40,-37 -96,-80 -55,-42 -36,-63 -41,-142 -27,-61 -146,-38 -130,-184 9,-82 81,-155 111,-211 7,-14 13,-33 23,-50 40,-70 217,-241 294,-290l79 -44c153,-75 321,-76 486,-135 162,-58 366,-19 392,-87 -29,-63 -128,-42 -172,-91 -44,-49 -95,-97 -31,-175 36,-45 73,-127 124,-137 240,-50 134,163 341,49 101,-55 162,-42 264,-6 275,95 148,67 248,148 52,42 121,60 30,116l-172 127c13,45 67,55 105,81 23,16 37,20 59,33 10,6 39,26 55,37 99,71 117,113 151,209l106 2 187 -274c21,-23 29,-37 52,-60 56,-57 114,-138 159,-199 88,-120 216,-355 68,-493l-398 -183c-106,-34 -175,-50 -297,-59 -90,-6 -74,-18 -214,-19 -88,0 -140,2 -220,12 -163,21 -201,8 -345,62 -82,30 -134,39 -218,78 -133,61 -253,125 -375,206l-37 25c-157,107 -316,194 -485,282 -56,29 -112,39 -169,67 -65,31 -124,113 -175,169l-341 365c-17,20 -34,43 -53,68 -35,46 -71,79 -113,122 -37,38 -72,102 -105,132 -90,78 -576,702 -627,781 -36,56 -59,95 -96,138 -18,22 -33,35 -50,61 -16,25 -32,48 -51,73 -31,43 -50,111 -83,152l-110 175c-50,61 -69,137 -99,200 -13,27 -28,51 -35,87 -9,42 -21,44 -28,84 -11,52 22,39 57,36 78,-8 145,-8 224,-15 451,-35 221,-107 463,-97 51,2 51,-19 75,-46 52,-57 102,-34 154,-80 23,-19 34,-41 48,-65 56,-95 123,-122 242,-117 138,6 136,104 225,118 94,15 179,-48 254,-95 43,-27 88,-37 129,-66l401 -222c24,-16 44,-31 73,-50l703 -441c55,-45 123,-110 194,-129 42,-11 72,-52 77,-93z"/>
   <path class="fil4" d="M2775 9817c-34,14 -57,19 -96,6 -106,-34 -210,-333 -23,-240 30,15 37,38 54,66 21,34 68,124 65,168zm-1007 680c-66,-5 -95,-61 -170,-102 -19,-10 -25,-11 -39,-21 -10,-8 -13,-12 -16,-15 -1,-2 -3,-4 -5,-6 -38,-42 -28,-24 -33,-59 -18,-122 58,-108 135,-102 -46,-99 -65,-33 0,-162l127 1c31,96 86,108 116,194 8,28 99,87 138,64 -11,-65 -216,-271 -232,-291 -43,-53 -38,-68 23,-119 21,8 16,7 30,16 7,5 10,8 17,15l275 295c33,26 45,17 71,51 43,58 24,95 96,95 18,0 42,-6 52,-17 17,-15 20,-30 15,-61 -7,-36 -10,-24 -23,-43 -69,-102 -59,-14 -107,-78l-124 -193c-39,-60 -102,-79 -89,-154 9,-50 34,-52 91,-51 2,6 31,89 33,91 19,31 34,0 53,60 18,59 -9,40 42,77 144,103 202,137 292,279 120,17 331,-25 445,-63l123 -41c167,-46 316,-128 477,-197 49,-21 77,-33 126,-51l711 -450c22,-15 35,-18 59,-34l136 -109c141,-102 360,-325 464,-464 20,-27 16,-31 30,-54 11,-18 22,-24 41,-50 53,-73 38,-91 74,-150 88,-147 17,-183 -41,-235l-51 -40c-236,-155 -287,-164 -574,-115 -54,9 -98,11 -142,21 -102,23 -90,0 -219,36 -104,29 -337,-3 -479,114 -52,42 -40,67 -179,158l-187 150c-65,56 -112,73 -198,138l-237 172c-16,9 -33,16 -55,28l-197 138c-75,43 -155,68 -223,114l-312 199c-37,23 -61,47 -92,71l-304 207c-16,12 -29,22 -50,33l-44 27c-2,1 -4,3 -6,4 -25,21 -72,56 -102,71 -286,142 -127,174 -295,196 -4,61 10,61 40,91l226 193c207,152 166,245 323,232 6,-11 7,-11 16,-25l14 -21c-32,-17 -53,-49 -86,-58z"/>
   <path class="fil4" d="M4618 5821c-143,-15 -618,29 -654,-19 -23,-29 -7,-77 5,-121 15,-57 66,-121 101,-196 91,-200 285,-453 414,-637 16,-23 34,-56 58,-85 29,-36 8,-2 29,-42 17,-33 6,-22 33,-50l195 -251c44,-79 90,-133 153,-197 50,-50 98,-151 173,-225l481 -571c22,-27 51,-52 76,-77l225 -225c31,-31 53,-42 52,-104l-574 -198c-77,-14 -414,-141 -552,-86 -81,32 -172,104 -193,196 -20,82 -23,42 -29,99 -14,124 14,235 34,359 27,164 64,92 -123,228l-543 376c-72,54 -40,18 -151,115 -157,137 -298,302 -260,525 15,88 51,141 68,319 10,103 14,65 20,112 15,139 -24,266 -29,357 -4,77 -15,44 -25,103 -18,97 -67,510 -28,614 31,82 20,85 60,135 39,49 148,238 279,157 127,-79 669,-474 705,-611z"/>
   <path class="fil4" d="M4861 7594c1,-3 6,-10 7,-13l11 -20c8,-20 7,-25 9,-45l12 -59c1,-2 3,-5 4,-7l39 -162c23,-103 25,-240 53,-336 22,-74 9,-95 93,-99 354,-15 656,107 907,29 372,-114 487,12 658,24 -1,-45 -9,-42 -32,-66 -41,-41 -98,-101 -143,-130 -58,-37 -136,-118 -189,-170 -29,-28 -76,-50 -107,-77l-136 -131c-77,-70 -108,-73 -144,-119 -85,-108 -119,-137 -221,-3 -117,155 -619,191 -818,304 -26,15 -33,23 -51,41 -34,33 -54,59 -85,99 -124,161 -143,302 -238,477 -88,163 -6,49 -113,162 -22,23 -16,24 -34,48 -49,65 -321,232 -410,304 -68,55 -92,141 -136,222l-34 56c-44,90 -81,135 -68,195 107,67 298,71 464,58 78,-7 155,-18 220,-43l298 -99c22,-8 35,-9 55,-16l190 -78c4,-4 4,-5 14,-15l11 -10c113,-113 110,-138 265,-266 161,-133 280,-236 464,-334 17,-9 30,-15 46,-25 201,-125 837,-133 1094,-154 -6,-78 -141,-106 -202,-124 -31,-9 -17,-8 -43,-19 -101,-44 -227,-46 -338,-40 -139,7 -148,19 -216,27 -135,17 -343,18 -488,7 -78,-5 -22,-25 -225,-30 -79,-1 -178,-9 -240,13 -21,68 -19,202 -19,290l-32 274c-15,84 -108,208 -178,279 -20,20 -66,56 -96,42l122 -261z"/>
   <path class="fil4" d="M7621 5540c-98,37 -267,39 -362,82 -28,12 -45,19 -83,28 -104,25 -72,12 -164,63 -69,38 -104,84 -191,134 -61,36 -263,153 -302,152 -75,-2 -112,-79 -133,-85 -162,-15 -95,68 -193,59 -24,-2 -139,-48 -140,-108 -93,-27 -168,6 -258,59 -40,24 -46,24 -55,53 66,27 46,-15 195,50 42,19 79,6 138,96 67,102 319,288 386,398 21,36 0,54 57,72 -4,-38 -6,-16 -17,-49 -26,-72 -69,-369 -61,-427 24,-18 110,-41 147,-49l295 -74c23,-7 30,-12 73,-20 96,-19 68,-34 217,-67 44,-9 171,-72 273,-88 77,-12 102,-19 129,41l125 253c52,122 36,118 123,245 77,112 287,316 309,433 -47,47 -63,27 -144,38l-225 39c-415,117 -501,-64 -668,39 -55,33 -38,52 -32,104l80 129c47,68 65,70 83,116l41 12c20,-25 13,-31 58,-82 155,-175 79,-197 251,-153l240 57c172,30 87,32 253,-15 140,-39 241,-137 323,-93 26,15 21,16 43,29 24,16 31,17 54,29 218,118 125,148 438,164 20,56 21,52 21,126 9,10 53,17 72,24 106,39 136,76 200,128 55,45 108,108 175,162 13,11 43,23 63,35 45,122 -29,325 45,440 49,-6 16,4 46,-27 12,-11 20,-19 31,-30l101 -92c32,-26 79,-67 110,-74 118,-25 372,0 507,-5 -1,-58 -43,-110 -86,-165l-40 -42c-77,-71 -122,-71 -219,-190 -57,-70 -81,-101 -162,-164 -16,-12 -35,-22 -48,-34l-52 -69c-7,-12 -7,-2 -7,-21 72,-12 157,-10 214,-42 153,-84 75,-269 56,-375 -13,-77 -38,-125 -49,-195 -10,-7 -14,-2 -9,-7 -47,16 -41,42 -66,82 -40,64 -64,78 -96,117 -16,20 -16,26 -30,41l-313 260c-36,27 -41,35 -85,59 -71,39 -226,145 -307,67 -97,-92 -134,-161 -201,-228l-105 -110c-48,-63 -26,-80 34,-117l190 -126c81,-64 152,-140 222,-206 170,-159 163,-58 307,-121 133,-59 68,-31 172,-145 20,-22 29,-31 27,-74l-68 11 -22 10c-13,34 -3,11 -19,32 -3,4 -14,15 -15,16 -154,140 -275,-65 -334,-81 -52,131 -178,164 -303,224l-324 193c-41,20 -69,39 -112,62 -128,70 -82,106 -214,-65l-302 -487c-45,-98 -127,-231 -106,-344 4,-21 7,-27 17,-46 32,-56 98,-98 99,-168 -49,14 -111,87 -318,97z"/>
   <path class="fil5" d="M7992 5347l30 14c-20,42 -35,49 -82,64 -65,20 -48,27 -94,47 -49,22 -152,34 -202,55 -21,9 -10,1 -23,13 207,-10 269,-83 318,-97 -1,70 -67,112 -99,168 -10,19 -13,25 -17,46 -21,113 61,246 106,344l302 487c132,171 86,135 214,65 43,-23 71,-42 112,-62l324 -193c125,-60 251,-93 303,-224 59,16 180,221 334,81 1,-1 12,-12 15,-16 16,-21 6,2 19,-32 -51,30 -44,53 -105,69 -122,34 -173,-53 -222,-100 -56,-54 -32,-34 -55,-111 -26,-84 -55,-146 -72,-234 -12,-67 -43,-153 -60,-267l-58 -355c-38,-194 -116,-320 -144,-424 -15,-54 2,-97 -20,-144 -8,-18 -1,5 -13,-27l-40 -93c6,54 22,66 30,105 5,23 5,43 9,65 6,26 8,9 15,45l-366 400c-99,90 -223,178 -342,240l-110 66c-1,-2 -5,4 -7,5z"/>
   <path class="fil4" d="M10434 8868c-39,77 -29,380 -48,501 -33,207 -56,318 71,417 27,21 124,114 163,105 62,-14 45,-169 36,-222 -22,-128 -92,-270 25,-431l568 -801c26,-36 30,-56 53,-91 0,0 27,-34 32,-38 46,-46 97,-139 142,-196 38,-48 69,-99 112,-152 24,-31 39,-55 61,-83l169 -239c45,-53 78,-96 118,-157 23,-35 31,-40 56,-76 25,-34 34,-43 54,-81l338 -490c15,-25 29,-53 48,-83l314 -513c50,-68 125,-267 155,-315l256 -500c27,-48 80,-119 82,-186 -34,13 -33,23 -55,50 -18,22 -31,31 -50,52l-269 322c-23,29 -89,135 -134,173 -18,17 -32,20 -50,42l-264 340c-70,100 -119,142 -175,222l-387 595c-27,48 -55,73 -83,119 -27,44 -46,83 -73,123 -152,226 -212,347 -342,557 -21,33 -22,24 -43,57 -30,47 -36,84 -78,147 -1,1 -3,4 -4,6l-106 160c-11,18 -28,37 -39,53 -28,40 -49,82 -77,126l-201 301c-14,20 -22,34 -37,55 -27,40 -55,61 -82,112 -32,62 -40,70 -77,116 -34,-8 -59,-29 -90,-51 -31,-22 -34,-46 -89,-46z"/>
   <path class="fil4" d="M9869 9357c-5,52 0,67 8,107 38,17 5,-4 35,30 7,8 17,21 27,34 66,84 90,135 25,260 -129,249 -172,216 -18,264 3,62 -22,65 -59,96l-259 213c-1,2 -5,9 -5,7 -1,-2 -4,5 -6,7 8,73 19,62 62,117 82,105 180,5 180,5 -2,-50 -28,-71 -52,-103 -41,-54 -14,-59 13,-97 51,48 127,109 221,108 32,-48 47,-27 20,-100 -14,-40 -31,-57 -32,-107 121,-2 145,27 207,81 35,-4 63,-21 86,-37 22,-162 -89,-102 -79,-258 59,-2 81,3 117,33 101,87 146,-27 68,-142 -71,-103 -81,-153 -134,-75 -53,77 -51,102 -76,165 -23,59 -110,122 -183,140 -26,-56 -17,-88 13,-132 52,-77 58,-55 88,-86 31,-30 79,-197 95,-254 36,-124 40,-176 66,-281 25,-99 13,-215 -1,-313 -8,-56 57,-178 83,-247l106 -231c42,-87 58,-181 53,-301 -5,-107 -38,-162 -120,-222 -157,-116 -380,-55 -551,8l-183 82c-35,29 -110,80 -140,115 -6,7 -12,17 -16,24 -23,31 -33,37 -35,85 -4,89 13,243 37,313 41,124 242,274 345,333 42,24 64,50 94,80 123,126 68,103 -100,279z"/>
   <path class="fil5" d="M6459 6521c11,108 14,58 79,106l522 384c-6,-52 -23,-71 32,-104 167,-103 253,78 668,-39l225 -39c81,-11 97,9 144,-38 -22,-117 -232,-321 -309,-433 -87,-127 -71,-123 -123,-245l-125 -253c-27,-60 -52,-53 -129,-41 -102,16 -229,79 -273,88 -149,33 -121,48 -217,67 -43,8 -50,13 -73,20l-295 74c-37,8 -123,31 -147,49 -8,58 35,355 61,427 11,33 13,11 17,49 -57,-18 -36,-36 -57,-72z"/>
   <path class="fil4" d="M973 11048c-15,-126 0,-252 159,-249 -4,68 -35,76 -32,143 94,1 158,-79 324,-67 3,72 -39,123 -85,142 -117,48 -240,35 -366,31zm156 -581c61,-23 95,42 111,61 17,19 47,45 55,66 29,87 -39,84 -105,75 -13,-22 -19,-48 -35,-67 -13,-16 -67,-34 -50,-104 8,-32 8,-25 24,-31zm468 1309c25,4 61,21 85,36 48,30 78,48 179,11 21,-7 77,-23 90,-29 14,-104 -15,-186 -57,-257 -150,-255 -412,-42 -616,-141 -29,-14 -73,-61 -71,-92 35,-108 106,-36 195,-18 62,12 221,10 266,-23 29,-36 41,-457 35,-542 -3,-42 -3,-41 -30,-64 -16,-13 -19,-12 -30,-21 -24,-20 -12,-5 -27,-32 -75,-31 -62,-47 -103,-60 -50,-16 -30,14 -55,-33l-24 -34c-15,-19 -25,-34 -43,-49 -35,-31 -55,-50 -95,-78 -55,-38 -130,-132 -169,-179 -182,-15 -786,378 -572,593 84,84 73,-13 156,150 33,65 170,259 214,306 68,74 132,145 201,208 105,96 339,301 471,348z"/>
   <path class="fil4" d="M7766 3523c-17,17 -39,143 -44,184l-55 178c-30,92 -98,251 -143,326 -52,86 -2,126 12,190l14 50c1,2 2,5 3,7 23,55 8,53 28,105 0,2 2,5 3,7l6 14c13,37 -2,45 26,128 53,156 29,358 272,354 146,-2 322,-192 358,-267l35 -54c2,-1 4,-3 6,-5 1,-2 3,-4 5,-5 59,-65 87,-157 124,-234 67,-140 25,-246 -35,-370 -27,-57 -93,-131 -117,-186 -78,-180 -119,-219 -263,-362 -23,-23 -64,-47 -96,-56 -24,-7 -122,-21 -139,-4z"/>
   <path class="fil4" d="M9314 5332c43,-2 75,-8 104,-23 -12,-100 -157,-140 -93,-452 10,-52 -1,-39 22,-79 33,-58 61,-123 113,-183 41,-48 99,-31 173,-30 174,3 257,-8 307,87 88,13 268,-120 343,-173 51,-37 125,-41 122,-149 -6,-268 -558,-387 -970,-288 -112,27 -173,71 -267,130 -47,28 -35,27 -71,60 -35,33 -80,115 -103,163 -31,68 -38,141 -36,231 4,136 98,373 186,478 13,16 19,21 29,33l141 195z"/>
   <path class="fil2" d="M3457 835c16,18 14,34 16,43 18,101 20,47 30,104 23,124 84,400 88,483 -73,-13 -139,-119 -216,-171 -38,-25 -37,-22 -69,-51l-134 -122c-158,-139 -125,-120 -217,-70 -26,15 -46,22 -74,39l-114 69c-44,31 -30,50 1,90 71,92 6,4 51,91l44 79c40,74 102,156 132,227 11,25 15,42 30,63 78,112 28,39 99,165l137 220 198 -100c-1,-36 -62,-124 -87,-164l-195 -336c-37,-66 -87,-133 -91,-179 39,6 24,4 50,27 16,15 22,22 35,35 26,25 46,45 72,71 68,68 102,88 153,132l227 203c24,21 50,45 78,63 20,-7 65,-39 97,-54 95,-46 41,-89 20,-205l-98 -494c-10,-57 -22,-58 -23,-126 28,14 23,6 43,36 55,81 313,562 360,608 34,-4 62,-28 91,-48 21,-14 21,-19 40,-29 15,-8 39,-13 53,-20 3,-46 0,-36 -22,-74 -13,-24 -22,-38 -33,-58 -24,-41 -35,-68 -65,-110l-256 -459c-13,-26 -52,-94 -68,-115 -36,-44 -37,-64 -64,-110 -48,-1 -48,13 -78,32 -26,17 -54,29 -79,45l-157 88 -5 82z"/>
   <path class="fil4" d="M7387 4937c-40,23 -27,16 -79,30 -33,9 -43,19 -79,33 -197,76 -63,12 -240,116 -26,15 -45,22 -62,50 -21,33 -53,133 -47,181 78,10 119,-17 172,-47l132 -82c125,-79 65,-116 211,-129 165,-15 50,-7 159,42 79,36 134,77 131,182 -79,0 -43,-6 -131,-36 -53,-18 -59,-43 -96,-70 -61,0 -144,43 -182,74 -23,18 -17,15 -37,35 -9,9 4,-1 -15,15 -31,25 8,-3 -17,12 -11,6 -27,12 -42,19 -118,58 -178,145 -316,66 -114,-66 -182,-34 -303,43l-143 73c-70,34 -16,212 38,272 108,122 167,37 254,4 57,-21 83,-84 131,-120 130,-95 52,-61 210,-116 93,-32 84,-7 153,-33 39,-14 64,-13 108,-25l204 -52c59,-10 53,-12 96,-25 44,-13 65,-7 109,-25 34,-14 57,-22 89,-32 40,-13 153,-45 197,-45 2,-1 6,-7 7,-5l110 -66c119,-62 243,-150 342,-240l366 -400c-7,-36 -9,-19 -15,-45 -4,-22 -4,-42 -9,-65 -8,-39 -24,-51 -30,-105 -14,-55 -43,-108 -54,-174l-37 -209c-22,-108 8,-95 -189,-172 -172,-67 -57,22 27,361 32,127 42,163 31,318 -8,107 -140,323 -215,388l-238 189c-48,24 -67,33 -126,47 -118,28 -192,-4 -268,-64 -193,-150 -97,-72 -156,-191 -78,-1 -75,19 -151,23z"/>
   <path class="fil4" d="M2733 7383c24,53 49,76 85,127 71,99 28,37 57,148 16,60 93,9 135,-9l204 -109c18,-12 44,-32 59,-43 37,-24 87,-45 133,-73l380 -243c51,-27 81,-55 119,-85 20,-16 41,-27 62,-40l295 -214c109,-88 198,-36 92,-298 -20,-50 -23,-31 -29,-88 106,1 103,1 144,78 32,60 109,117 161,23 55,-98 52,-75 13,-199 -34,-108 -106,-121 -134,-141 -15,-10 -26,-25 -43,-38 -26,5 -43,12 -64,26 -16,10 -15,9 -29,23l-15 16c-43,43 -72,45 -117,76l-317 236c-44,44 -399,275 -431,302l-430 306c-21,13 -35,16 -59,33 -23,15 -33,26 -53,39l-218 147z"/>
   <path class="fil4" d="M9907 5155c18,-24 102,-49 136,-61 214,-74 335,-10 570,-24 73,-112 156,-139 268,-219 0,-83 -170,-220 -242,-270 -154,-109 -145,-123 -231,-49 -77,65 -24,29 -101,72l-78 46c-2,2 -10,7 -12,9 -77,56 -47,20 -125,88l-22 21c-15,15 0,4 -19,20 -86,71 -118,10 -152,-29 -29,-33 -51,-68 -102,-74 -133,-18 -336,10 -394,149 -90,218 196,551 310,702l193 236c50,65 18,7 80,104 59,93 55,68 199,70 70,2 106,-2 84,-94 -6,-25 -1,-13 -15,-29 0,0 -23,-18 -24,-18 -91,-59 -154,-154 -204,-245 -22,-41 -24,-89 -52,-154l-39 -114c-20,-65 -38,-88 -36,-113 2,-21 1,-13 8,-24z"/>
   <path class="fil2" d="M788 7813c-8,21 -91,60 -145,96 -57,37 -96,62 -147,98 -51,36 -272,155 -286,207 -11,37 -8,9 18,97l36 90c73,31 543,30 678,35 0,51 -45,60 -122,98l-221 126c-26,14 -46,29 -71,43 -130,80 -184,65 -130,205 14,36 16,68 29,104 70,-1 225,-100 281,-140 2,-1 4,-3 6,-4l535 -351c2,-1 4,-3 6,-4l108 -67c1,-48 -30,-151 -52,-184 -105,-36 -592,-13 -752,-26 23,-69 -14,-17 99,-87l200 -135c73,-49 163,-117 241,-158 103,-53 82,-70 82,-69l1 -12c-1,-6 -3,-16 -5,-22 -7,-30 -37,-131 -54,-142 -46,-16 -953,-14 -1083,-19 -4,61 17,70 25,102 32,140 -47,120 256,118 88,0 413,-29 467,1z"/>
   <path class="fil5" d="M9574 6097l68 -11c2,43 -7,52 -27,74 -104,114 -39,86 -172,145 -144,63 -137,-38 -307,121 -70,66 -141,142 -222,206l-190 126c-60,37 -82,54 -34,117l105 110c67,67 104,136 201,228 81,78 236,-28 307,-67 44,-24 49,-32 85,-59l313 -260c14,-15 14,-21 30,-41 32,-39 56,-53 96,-117 25,-40 19,-66 66,-82 -5,5 -1,0 9,7 -8,-47 2,-2 -19,-45 -1,-2 -3,-4 -4,-7l-200 -433c-11,-22 14,-8 -22,-27 -32,-17 -64,-14 -83,15z"/>
   <path class="fil2" d="M8046 130l4 9 -95 -20 -22 37c-22,49 1,104 -53,215 -25,54 -77,289 -107,352l-105 424c60,24 142,54 209,57 51,-56 78,-243 106,-341 17,-58 43,-115 54,-170l44 -183c34,9 32,3 44,38l55 219c15,46 28,97 39,134 14,46 26,102 38,149 10,36 71,256 85,272 22,23 230,83 287,82 23,-59 57,-180 72,-248l124 -426c5,-20 5,-48 10,-73 7,-31 -2,0 10,-28 2,-5 10,-22 13,-28l57 -199c-35,-9 -68,-17 -96,-28 -38,-15 -60,-27 -105,-32 -2,2 -5,3 -6,7l-184 595c-27,97 -7,65 -34,77l-219 -772c-19,-61 -28,-60 -89,-71 -72,-14 -113,-17 -136,-48z"/>
   <path class="fil4" d="M6173 4370c3,47 -5,88 24,118 48,50 139,72 209,76 78,4 71,6 116,-30 2,-114 -4,-152 79,-192 0,0 135,36 145,91 2,14 3,24 3,39 1,28 1,60 0,88 -63,27 -118,47 -183,84 -33,19 -145,79 -143,117 4,67 283,-45 358,-128 36,-40 140,-190 148,-253 46,-347 13,-478 -277,-644l-162 -103c-73,-48 -84,-41 -185,24 -52,33 -70,59 -108,95 -2,2 -8,8 -11,10 -104,88 -112,120 -203,236 -142,180 13,140 35,251 9,47 12,63 47,84 16,10 84,29 108,37z"/>
   <path class="fil2" d="M6143 12690c78,22 95,158 -20,211 -47,22 -251,16 -314,-22l24 -241 249 18c70,14 60,33 61,34zm-268 -457c37,-5 209,6 237,19 74,35 71,135 21,178 -41,34 -162,24 -228,14 -64,-10 -44,-31 -37,-91 5,-41 2,-78 7,-120zm372 306c84,-27 138,-69 160,-164 79,-350 -378,-347 -624,-352 -53,-1 -107,-26 -126,1l-85 1044 385 27c96,4 291,0 359,-54 70,-54 142,-157 114,-282 -42,-181 -174,-137 -183,-220z"/>
   <path class="fil2" d="M1087 3794c-41,3 -190,-70 -198,-76 -2,-1 -4,-2 -6,-4 -16,-12 -20,-22 -15,-42l63 -112c142,-251 261,-68 259,-7 -1,58 -73,194 -103,241zm224 -3c133,-11 284,1 419,-2 46,-1 49,0 72,-31 26,-34 96,-165 100,-203 -83,-21 -379,7 -493,3 3,-88 11,-130 -31,-194 -62,-95 -184,-163 -291,-164 -117,-2 -219,78 -279,167 -14,20 -25,56 -34,80 -41,101 -180,284 -172,377 41,16 36,5 79,33l39 23c79,42 146,94 232,118l228 118c42,21 69,42 109,62l178 89c61,43 59,39 99,-39 21,-42 49,-85 55,-133 -51,-59 -225,-123 -315,-169 -14,-7 -51,-7 -40,-61l45 -74z"/>
   <path class="fil2" d="M6028 276c28,5 8,-13 25,21 13,26 7,71 -8,97 -46,78 -297,104 -319,81 -18,-35 -32,-186 -20,-236 35,-17 223,-47 279,-19 65,32 45,43 43,56zm-566 -199c-5,50 89,902 116,1006l4 16c13,41 71,24 110,15 33,-7 77,-10 108,-17 4,-55 -39,-327 -44,-402 35,-29 63,-36 120,-35 35,45 50,92 90,139 38,47 65,80 103,141 119,190 95,102 332,96 19,-124 -324,-356 -263,-434 15,-20 174,-63 158,-296 -6,-101 -32,-135 -90,-197 -52,-57 -96,-87 -208,-90 -216,-8 -360,52 -536,58z"/>
   <path class="fil2" d="M10511 2696c49,-11 71,-43 102,-73l174 -151c40,-32 44,-64 105,-54 49,73 96,143 159,208 16,17 14,18 33,39l72 82c-68,83 -223,196 -334,306 8,27 43,58 70,89 118,135 21,124 473,-256 129,-108 156,-147 297,-255 41,-31 73,-51 97,-98 -25,-74 -90,-103 -128,-160 -66,19 -111,69 -160,118 -23,23 -51,38 -75,59 -109,97 -50,76 -218,-102 -49,-52 -106,-101 -140,-171 17,-44 124,-133 169,-163 19,-13 27,-13 43,-28 102,-91 73,-79 -47,-215 -62,-71 -74,18 -222,122l-140 124c-32,27 -37,40 -69,64 -129,99 -158,144 -281,240 -23,18 -45,34 -68,54 -24,22 -55,42 -39,81 10,25 112,128 127,140z"/>
   <path class="fil4" d="M8844 4354c36,9 65,-75 162,-162 29,-27 50,-60 78,-85 75,-68 241,-148 338,-173 178,-47 478,-64 663,-7 75,23 148,129 181,126 24,-2 91,-77 110,-103 49,-68 36,-73 72,-143 23,-46 24,-61 14,-121 -67,-27 -44,-26 -88,-65 -75,-65 -295,-122 -383,-127 -96,-6 -320,10 -392,30l-149 54c-16,6 -26,8 -38,13 -63,27 -97,49 -150,92 -74,60 -151,93 -234,195 -77,93 -158,185 -187,314 -7,27 -8,45 -9,76 -1,47 -3,58 12,86z"/>
   <path class="fil2" d="M10141 11026c19,-14 53,-37 71,-53 130,-115 196,-123 146,-178 -128,-142 -86,-157 -188,-67 -28,24 -44,36 -68,54l-212 166c-269,230 -257,82 -42,377l360 467c16,20 27,28 45,46 115,125 54,145 231,-9l215 -164c83,-66 111,-103 207,-157 12,-61 -15,-73 -44,-106l-65 -80c-35,10 -74,47 -113,74l-241 196c-16,14 4,-2 -11,10 -23,19 -15,20 -53,23 -13,-17 -13,-21 -26,-39 -17,-25 -25,-29 -33,-39 -73,-91 -81,-81 -2,-139l126 -109c2,-1 4,-2 6,-3l159 -119c-11,-31 -97,-151 -128,-155 -55,-7 -303,259 -358,253 -15,-2 -116,-92 -119,-145l137 -104z"/>
   <path class="fil2" d="M8954 11753c35,-18 75,-28 112,-45l319 -169 -99 -174c-70,2 -191,80 -256,113 -33,17 -47,14 -79,33 -397,228 -345,75 -190,410l143 297c13,23 19,37 31,61l119 227c10,30 22,64 44,89 18,19 13,11 25,21l580 -282c18,-10 56,-26 72,-40 -2,-62 -33,-57 -74,-180 -37,-2 -45,0 -70,15 -69,39 -55,22 -138,76l-149 66c-62,30 -72,51 -116,51l-81 -144c-13,-22 -8,-25 -18,-41l408 -210c-4,-41 -16,-43 -31,-79 -7,-17 0,0 -8,-24 -15,-47 -31,-59 -52,-88 -37,17 -68,29 -108,50 -35,19 -53,36 -94,56 -62,29 -145,93 -213,91 -10,-13 -18,-29 -26,-42 -11,-17 -9,-13 -20,-38 -28,-64 -34,-40 -31,-100z"/>
   <path class="fil2" d="M1178 2778c31,52 425,335 457,370l45 46c2,1 4,3 6,4l320 232c32,-25 83,-95 116,-138l179 -218c18,-22 34,-55 52,-82 70,-105 107,-96 107,-153 -29,-23 -8,6 -74,-53 -98,-87 -88,-61 -134,-6 -15,19 -27,31 -42,49 -28,35 -53,55 -77,96 -22,36 -123,183 -158,186 -18,2 -43,-21 -56,-32 -131,-111 -135,-69 26,-270 39,-47 118,-139 138,-185 -16,-24 1,-1 -18,-18 -7,-5 -14,-10 -18,-13 -163,-125 -97,-110 -203,2l-206 252c-28,-9 -121,-91 -147,-116 10,-38 7,-26 33,-59l76 -86c48,-56 67,-99 103,-141 87,-102 108,-75 1,-162 -31,-26 -48,-50 -87,-59 -47,30 -176,212 -223,268 -29,34 -208,258 -216,286z"/>
   <path class="fil2" d="M4742 615l33 26c20,19 8,7 23,28 16,22 26,39 42,61 57,80 76,67 79,122 -30,11 -74,14 -108,26 -18,6 -32,16 -53,21 -19,4 -9,2 -26,2 -32,-1 -19,-3 -27,-6l37 -280zm-344 822c26,2 230,-30 249,-92l12 -89c3,-48 8,-78 12,-122 44,-9 333,-106 398,-109 121,114 99,208 269,153l112 -34c5,-65 -78,-111 -160,-234l-530 -643c-33,-30 -93,-7 -155,14 -67,23 -60,57 -67,128l-89 693c-8,67 -23,72 -32,153 -6,55 -25,114 -19,182z"/>
   <path class="fil2" d="M5234 11906c-68,-9 -78,-19 -142,-35 -98,-23 -61,2 -90,73 -1,2 -2,4 -3,6 -1,3 -2,5 -3,7l-162 463c-1,2 -2,5 -3,7 -4,12 -5,18 -10,30 -15,35 -31,77 -64,108 -27,27 -70,52 -107,56 -59,8 -108,-3 -147,-27 -137,-81 -122,-219 -67,-351l88 -260c16,-40 78,-218 78,-260 -33,-28 -53,-28 -101,-45 -44,-15 -59,-33 -116,-24l-17 41c-40,77 -14,121 -64,202 -22,34 -10,34 -26,74 -18,42 -12,41 -27,86 -12,38 -12,15 -26,73 -31,126 -97,228 -62,367 83,324 498,420 686,293 198,-134 180,-228 239,-382l84 -268c18,-64 84,-152 62,-234z"/>
   <path class="fil2" d="M914 4687c1,51 -22,120 -43,162l-30 74c-51,-23 -117,-84 -171,-126 -24,-19 -46,-24 -62,-43 -43,-54 73,-42 122,-47 67,-7 111,-21 184,-20zm244 -26c314,-22 196,-9 270,-196 41,-103 13,-74 -97,-63 -115,11 -189,28 -316,36 -45,2 -49,14 -91,18l-417 45c-30,4 -46,15 -87,21 -34,5 -69,5 -104,9 -17,21 -59,157 -60,187 8,11 6,9 15,19l37 34c20,19 34,32 54,49l224 184c120,89 383,321 452,365 50,32 69,86 110,64 34,-19 5,-12 42,-111 15,-39 26,-71 25,-120l-165 -120c-13,-9 -7,-5 -19,-12 1,-50 86,-361 127,-409z"/>
   <path class="fil2" d="M9521 1390c-35,18 -99,-41 -158,-68 -114,-51 -8,-64 74,-150 30,-32 56,-72 104,-84 10,14 6,3 10,26 9,51 1,-21 1,17l-31 259zm-782 101l112 47c34,18 74,51 108,52 36,-14 125,-119 174,-149 39,2 63,20 96,37l276 146 -11 234c18,17 2,5 28,22 1,1 25,14 26,15l108 63c101,57 72,-37 86,-263 5,-100 1,-207 8,-305 3,-46 14,-68 17,-123l18 -440c-31,-21 -131,-76 -165,-83 -38,33 -72,61 -110,91 -168,131 -413,345 -565,458l-168 139c-35,26 -28,10 -38,59z"/>
   <path class="fil2" d="M7049 338l87 299c-3,2 -7,0 -9,3l-213 -5c-3,-59 114,-280 135,-297zm-586 689c317,13 216,34 340,-191l410 8c26,47 66,195 76,244l248 11c-3,-67 -5,-39 -23,-80l-67 -232c-30,-96 -68,-189 -106,-292 -17,-48 -37,-97 -53,-140 -23,-65 -71,-291 -120,-330 -16,-12 -160,-48 -198,-3l-141 257c-12,25 -16,51 -29,75 -59,115 -159,263 -208,396 -33,89 -127,186 -129,277z"/>
   <path class="fil4" d="M6570 5348l276 -212 86 -126c54,-88 277,-125 309,-119 12,-13 5,-13 49,-26 14,-4 36,-7 51,-9 41,-8 78,-10 114,-19 4,-37 17,-174 -19,-200 -40,-30 -275,67 -311,87l-449 263c-67,49 -147,115 -224,152l-356 206c-183,72 -375,158 -567,202 -58,14 -123,1 -143,49 -5,44 23,25 76,76 123,118 83,161 317,83 58,-19 173,-63 224,-31 51,32 102,107 220,101 2,-2 4,-9 5,-7 1,1 4,-6 5,-7 68,-106 11,-253 42,-341 13,-39 253,-113 295,-122z"/>
   <path class="fil2" d="M11645 3462c19,-10 196,-39 235,-42 138,-11 47,71 -54,173 -57,57 -19,46 -53,62 -48,22 -32,-4 -44,-23l-34 -57c-1,-2 -6,-9 -8,-12 -1,-2 -3,-4 -4,-6l-41 -69c-9,-50 -6,-8 3,-26zm-57 780c44,-3 49,-4 74,-38l124 -172c34,-36 56,-71 90,-114 79,-98 38,-56 80,-114 22,-32 31,-25 48,-53 75,-128 240,-318 281,-397l8 -15c-13,-30 -72,-128 -93,-157 -83,-4 -203,20 -300,25 -134,7 -279,36 -411,56l-422 40c-4,48 -5,32 11,62l86 140c49,53 182,-13 256,-7l37 49c1,1 3,4 4,5 1,2 3,4 4,6l59 115c108,202 133,147 67,225 -20,23 -16,26 -34,49 -24,32 -57,63 -75,97 14,39 35,62 52,98l54 100z"/>
   <path class="fil2" d="M847 6954l-232 7 -17 -446 -33 -6c-3,0 -25,-1 -39,-1 -36,-1 -72,-1 -108,2 -22,133 15,314 -2,448 -55,14 -152,15 -207,5 -44,-107 9,-369 -26,-474l-178 3c-13,48 5,596 9,687l1032 -16c13,-27 -6,-689 -21,-722 -25,-5 -144,-5 -165,3 -59,23 29,377 -13,510z"/>
   <path class="fil6" d="M6570 5348c-2,5 -3,25 -10,33 -75,5 -261,112 -266,113 0,65 9,262 -13,310 -14,30 -24,26 -38,57 -117,0 -89,2 -132,-31 -23,-18 -72,-52 -103,-20 8,-3 39,1 45,55 1,60 116,106 140,108 98,9 31,-74 193,-59 21,6 58,83 133,85 39,1 241,-116 302,-152 87,-50 122,-96 191,-134 92,-51 60,-38 164,-63 38,-9 55,-16 83,-28 95,-43 264,-45 362,-82 13,-12 2,-4 23,-13 50,-21 153,-33 202,-55 46,-20 29,-27 94,-47 47,-15 62,-22 82,-64l-30 -14c-44,0 -157,32 -197,45 -32,10 -55,18 -89,32 -44,18 -65,12 -109,25 -43,13 -37,15 -96,25l-204 52c-44,12 -69,11 -108,25 -69,26 -60,1 -153,33 -158,55 -80,21 -210,116 -48,36 -74,99 -131,120 -87,33 -146,118 -254,-4 -54,-60 -108,-238 -38,-272l143 -73c121,-77 189,-109 303,-43 138,79 198,-8 316,-66 15,-7 31,-13 42,-19 25,-15 -14,13 17,-12 19,-16 6,-6 15,-15 20,-20 14,-17 37,-35 38,-31 121,-74 182,-74 37,27 43,52 96,70 88,30 52,36 131,36 3,-105 -52,-146 -131,-182 -109,-49 6,-57 -159,-42 -146,13 -86,50 -211,129l-132 82c-53,30 -94,57 -172,47 -6,-48 26,-148 47,-181 17,-28 36,-35 62,-50 177,-104 43,-40 240,-116 36,-14 46,-24 79,-33 52,-14 39,-7 79,-30 35,-52 88,-16 153,-66 -195,0 -177,20 -299,20 -32,-6 -255,31 -309,119l-86 126 -276 212z"/>
   <path class="fil5" d="M7223 7256c22,43 23,6 25,66 3,57 -13,69 -53,62 -23,-5 -151,-74 -193,-78 23,36 56,23 141,75 2,1 4,3 6,4 82,48 18,-38 139,86 71,72 143,113 188,150 31,26 36,28 84,37 -10,-22 -9,-48 1,-98 18,-91 129,-169 210,-210l177 -52c71,-18 104,-29 202,-31 111,-2 341,-36 503,-9l232 51c21,7 37,14 60,21 0,-74 -1,-70 -21,-126 -313,-16 -220,-46 -438,-164 -23,-12 -30,-13 -54,-29 -22,-13 -17,-14 -43,-29 -82,-44 -183,54 -323,93 -166,47 -81,45 -253,15l-240 -57c-172,-44 -96,-22 -251,153 -45,51 -38,57 -58,82l-41 -12z"/>
   <path class="fil2" d="M10911 1624c-3,-23 -95,-90 -119,-107l-36 -25c-2,-1 -4,-3 -6,-4 -56,-42 -103,-82 -157,-129 -89,-77 -97,-70 -165,-121 -30,-23 -44,-44 -76,-66 -24,-18 -62,-50 -86,-60 -50,26 -43,33 -74,70 -24,29 -37,35 -47,84 49,68 184,130 218,194 -17,33 -104,135 -132,170 -11,13 -22,26 -32,39l-226 284c-22,27 -36,56 -59,85 -58,75 -87,79 -24,127l121 95c90,-33 153,-176 215,-248l209 -271c40,-43 82,-84 107,-140 45,-1 29,-6 69,35l60 53c23,22 36,28 62,50 24,20 30,28 64,37 11,-12 23,-26 33,-40l29 -41c33,-39 56,-35 52,-71z"/>
   <path class="fil4" d="M2667 7402c-34,21 -100,68 -131,93 -208,171 -402,339 -571,552 -49,62 -72,57 -74,153 -1,44 -2,66 27,87 79,58 308,-141 448,-199 70,-29 195,-142 262,-186 61,-40 146,-103 151,-181 18,-276 -112,-290 -112,-319z"/>
   <path class="fil2" d="M7925 12009l3 -44 -24 -36c-7,-8 3,-9 -22,-18 -31,-12 -199,40 -216,48l213 878c8,50 5,97 29,133 60,12 608,-119 634,-134 5,-44 -27,-175 -40,-206 -72,1 -41,14 -96,25 -37,8 -82,7 -118,14 -56,11 -132,49 -201,48 -32,-81 -151,-624 -162,-708z"/>
   <path class="fil2" d="M2998 11846c-15,76 -18,174 16,237 8,15 18,28 30,41 81,89 329,214 456,103 84,-73 129,-121 182,-236l207 -356c19,-35 25,-66 45,-98 27,-43 35,-40 55,-90 -8,-10 -5,-7 -16,-17l-131 -85c-80,-42 -93,63 -166,190l-234 398c-60,104 -157,162 -213,67 -23,-41 -7,-75 -33,-100 -20,-19 -160,-57 -198,-54z"/>
   <path class="fil4" d="M6649 3552c3,46 21,59 55,83 19,14 20,12 34,26 111,100 163,98 242,229 71,119 75,183 120,288 146,-45 254,-537 240,-751 -180,-8 -311,47 -443,61l-248 64z"/>
   <path class="fil4" d="M9470 5425c-12,6 -19,8 -34,15 -30,14 -20,12 -39,22 -36,17 -65,16 -111,7 -54,-57 -82,-158 -175,-171 -2,255 2,184 39,363 26,128 135,410 317,364 79,-20 285,-174 240,-288 -19,-50 -200,-285 -237,-312z"/>
   <path class="fil2" d="M7007 13092c3,2 6,0 8,4 6,13 126,0 147,-2l46 -8c13,-4 11,-1 16,-27l0 -101c-3,-46 -11,-90 -15,-126 -26,-226 -28,-514 -64,-795 -56,-3 -110,4 -158,8 -92,9 -59,26 -55,106 7,117 12,218 23,319 11,108 14,380 28,476l24 146z"/>
   <path class="fil2" d="M10727 9645c35,-23 9,-2 34,-33l82 -121c166,-224 378,-595 483,-844 53,-127 79,-151 116,-286 18,-63 31,-45 33,-104 -27,14 -5,-1 -28,20l-46 58c-17,22 -37,49 -55,78l-279 404c-81,142 -99,135 -167,243 -107,171 -174,192 -201,347 -15,88 4,175 28,238z"/>
   <path class="fil4" d="M5018 5780c39,1 52,22 102,47 2,1 5,2 7,3 102,53 118,104 190,203 1,2 3,5 4,7 1,2 3,4 4,6l69 116c22,41 -8,20 29,30 28,16 -3,23 63,-17l58 -32c2,-1 4,-3 5,-4 2,-2 4,-4 6,-5 2,-1 4,-3 6,-4 23,-16 28,-16 48,-34 2,-44 -27,-125 -46,-156 -45,-72 -47,-50 -106,-99l-16 -14c-58,-47 -72,-37 -88,-86 -33,-103 5,-38 -91,-122 0,-3 46,-221 -74,-118l-133 141c-34,45 -48,58 -37,138z"/>
   <path class="fil4" d="M10424 5702c1,-32 -30,-115 -21,-270 8,-121 66,-150 64,-233 -94,-72 -182,-62 -293,-21 -41,16 -115,19 -139,53 -26,38 -11,126 6,163 50,110 169,219 260,311 43,44 78,27 123,-3z"/>
   <path class="fil3" d="M4796 9698c114,21 116,-53 143,-117 23,-56 64,-120 99,-157 57,-59 44,-47 74,-118 14,-33 10,-20 22,-39 77,-119 108,-204 210,-302 52,-49 96,-65 127,-129 44,-91 81,-93 138,-157 2,-3 9,-10 14,-16l34 -58c18,-34 20,-26 19,-68 -136,-69 -153,25 -212,119 -45,71 -349,417 -360,435 -98,161 -315,414 -308,607z"/>
   <path class="fil4" d="M7287 4216c195,25 144,-46 221,-185 45,-83 134,-295 141,-366 7,-68 25,-214 -57,-245 -45,-18 -74,-21 -120,-16 -18,55 -27,140 -41,202l-107 396c-24,62 -48,119 -37,214z"/>
   <path class="fil3" d="M5889 9161c17,-44 18,-71 32,-111 16,-48 34,-42 60,-81 22,-32 59,-167 53,-214 -82,-29 -79,-14 -111,56l-34 68c-10,18 -26,31 -41,42 -23,-24 -96,-187 -126,-200 -37,-1 -101,22 -124,48 -27,31 -47,406 -42,455 49,-2 65,-13 99,-30 1,-159 -33,-221 37,-259 43,34 91,185 122,228l75 -2z"/>
   <path class="fil7" d="M1798 11404c-61,-9 -94,-24 -160,-23 -135,3 -272,50 -371,-24 -24,-18 -32,-37 -27,-73 64,-25 192,74 402,19 43,-11 10,6 39,-17 46,-36 24,-189 31,-223 9,-40 1,-20 25,-43 22,59 11,129 10,202 -1,46 -4,66 9,97 15,37 28,37 42,85zm-182 -800c15,27 3,12 27,32 11,9 14,8 30,21 27,23 27,22 30,64 6,85 -6,506 -35,542 -45,33 -204,35 -266,23 -89,-18 -160,-90 -195,18 -2,31 42,78 71,92 204,99 466,-114 616,141 42,71 71,153 57,257 -13,6 -69,22 -90,29 -101,37 -131,19 -179,-11 -24,-15 -60,-32 -85,-36 22,48 4,26 54,49 -7,2 -4,4 -22,2 -10,-1 -16,-4 -22,-5 -40,-13 2,-9 -52,-18 10,17 0,22 45,39 102,39 262,81 349,8 60,-50 82,-75 63,-167 -3,-16 -19,-86 -27,-105 -104,-249 -218,-98 -212,-418 3,-156 -18,-343 8,-477 51,-9 78,-26 119,-47l84 -40c21,-17 0,8 17,-21 -106,6 -261,129 -261,129 -27,-22 -38,-96 -124,-101z"/>
   <path class="fil4" d="M7673 3298l142 -183c-24,-48 -54,-44 -153,-42 -167,4 -259,63 -352,6 -25,-14 -35,-31 -67,-37 -26,-5 -79,-3 -95,7 -54,34 11,101 37,124 99,86 357,142 488,125z"/>
   <path class="fil3" d="M7338 9416c-124,260 -278,244 -166,397 52,-4 69,-33 89,-64 177,-280 227,-120 212,-559 -3,-112 -3,-181 -49,-252 -122,-16 -105,61 -60,202 28,87 16,188 -26,276z"/>
   <path class="fil4" d="M4769 5887c23,65 144,68 237,270 25,54 20,74 50,125 107,-8 136,-27 210,-60 -2,-130 -89,-174 -160,-235 -101,-87 -177,-223 -272,-157 -16,11 -46,44 -65,57z"/>
   <path class="fil8" d="M4762 6380l125 9c39,-130 53,-153 -65,-292 -13,-16 -16,-23 -40,-40 -72,-52 -176,-107 -200,12 -10,53 30,66 65,92 86,66 70,140 115,219z"/>
   <path class="fil3" d="M973 11048c126,4 249,17 366,-31 46,-19 88,-70 85,-142 -166,-12 -230,68 -324,67 -3,-67 28,-75 32,-143 -159,-3 -174,123 -159,249z"/>
   <path class="fil9" d="M1768 10497c-20,-31 -44,-43 -72,-67 -88,-71 -180,-68 -169,-197 60,-28 98,-31 144,29 77,99 313,245 394,244 5,-92 -37,-106 -110,-120 -33,-6 -118,-55 -145,-81 -23,-24 -31,-51 -50,-73 -5,-6 -214,-104 -99,-173 71,-43 110,41 121,60 28,44 58,82 101,106 -30,-86 -85,-98 -116,-194l-127 -1c-65,129 -46,63 0,162 -77,-6 -153,-20 -135,102 5,35 -5,17 33,59 2,2 4,4 5,6 3,3 6,7 16,15 14,10 20,11 39,21 75,41 104,97 170,102z"/>
   <path class="fil6" d="M1798 11404c-14,-48 -27,-48 -42,-85 -13,-31 -10,-51 -9,-97 1,-73 12,-143 -10,-202 -24,23 -16,3 -25,43 -7,34 15,187 -31,223 -29,23 4,6 -39,17 -210,55 -338,-44 -402,-19 -5,36 3,55 27,73 99,74 236,27 371,24 66,-1 99,14 160,23z"/>
   <path class="fil3" d="M2775 9817c3,-44 -44,-134 -65,-168 -17,-28 -24,-51 -54,-66 -187,-93 -83,206 23,240 39,13 62,8 96,-6z"/>
   <path class="fil3" d="M1190 10669c66,9 134,12 105,-75 -8,-21 -38,-47 -55,-66 -16,-19 -50,-84 -111,-61 -16,6 -16,-1 -24,31 -17,70 37,88 50,104 16,19 22,45 35,67z"/>
  </g>
 </g>
</svg>
