<?xml version="1.0" encoding="UTF-8"?>
<!DOCTYPE svg PUBLIC "-//W3C//DTD SVG 1.1//EN" "http://www.w3.org/Graphics/SVG/1.1/DTD/svg11.dtd">
<!-- Creator: CorelDRAW X7 -->
<svg xmlns="http://www.w3.org/2000/svg" xml:space="preserve" width="160mm" height="156.773mm" version="1.1" style="shape-rendering:geometricPrecision; text-rendering:geometricPrecision; image-rendering:optimizeQuality; fill-rule:evenodd; clip-rule:evenodd"
viewBox="0 0 17290 16942"
 xmlns:xlink="http://www.w3.org/1999/xlink">
 <defs>
  <style type="text/css">
   <![CDATA[
    .str0 {stroke:#332C2B;stroke-width:21.6128}
    .fil4 {fill:#FEFEFE}
    .fil3 {fill:#2E3188}
    .fil0 {fill:#332C2B}
    .fil5 {fill:#A5A2A2}
    .fil1 {fill:#E52128}
    .fil2 {fill:#FBFBFB}
   ]]>
  </style>
 </defs>
 <g id="Layer_x0020_1">
  <metadata id="CorelCorpID_0Corel-Layer"/>
  <g id="_2519800980480">
   <ellipse class="fil0 str0" cx="8558" cy="8467" rx="6943" ry="6913"/>
   <path class="fil1" d="M2931 12046c121,-51 1312,-877 1483,-1007l479 -346c-54,-42 -134,-96 -199,-126 24,-201 125,-423 212,-574 115,-201 195,-263 391,-388 370,-237 291,-132 405,-375 81,-173 200,-373 236,-582 -128,45 -260,187 -419,296l-2571 1614c-136,84 -308,234 -507,206 -26,-53 -54,-184 -51,-243 6,-114 351,-417 435,-496 170,-158 493,-434 688,-564 247,-165 521,-333 750,-501l547 -396c61,-42 145,-86 193,-136 -217,-91 -314,-121 -413,-321 -242,-488 147,-877 -20,-2013 -41,-276 -45,-398 100,-603 199,-282 501,-486 804,-673 154,-95 318,-208 454,-297 -5,-271 -75,-470 13,-734 170,-512 800,-287 1176,-157 216,75 428,125 649,194l9 155c174,-47 432,-211 579,-302 640,-391 1099,-766 2046,-622 311,47 1216,190 1076,688 -130,459 -680,851 -656,1128 123,49 268,91 383,149 140,70 68,237 156,367 67,-104 80,-218 170,-338 411,-545 1407,-770 1904,-413 138,98 194,124 112,356 -60,168 -119,223 -205,320 51,64 59,20 112,106 25,40 47,108 61,164 56,230 49,129 218,254 96,71 170,127 266,205 89,72 200,121 224,263l-363 232c-123,83 -236,151 -271,324 -32,160 11,423 -38,556 -66,180 -129,-77 -256,359 -106,1 -226,1 -331,-5 -170,-10 -103,-73 -233,-125 -94,201 -208,169 -68,410 139,238 330,662 330,949 0,289 -59,297 -283,365 51,128 409,416 509,549l283 354c264,370 256,285 94,902 -42,160 -32,194 86,273 5,-3 11,-13 12,-10l1349 -2037c120,-188 75,-155 132,-365 46,-449 47,-1152 -49,-1585l-33 -81c-6,-26 -9,-60 -14,-88 -8,-48 -20,-107 -29,-155 -312,-1532 -1204,-2928 -2420,-3879 -149,-116 -262,-203 -427,-312 -288,-191 -573,-347 -956,-521 -548,-251 -1127,-400 -1719,-496 -278,-45 -597,-34 -670,-82 -1368,-93 -2651,332 -3633,885 -754,424 -1327,952 -1839,1586 -1633,2021 -1991,5045 -655,7383 63,111 156,234 202,356z"/>
   <path class="fil1" d="M3938 13268c67,70 120,110 193,178l618 489c1025,665 1978,1075 3312,1166 1427,97 2955,-272 4112,-1062 145,-99 326,-198 443,-317 -90,-107 -210,-13 -268,-390 73,-83 166,-138 253,-218 75,-70 72,-202 120,-331 174,-474 15,-407 -34,-743 49,-60 130,-97 164,-178 -223,-372 -617,-158 -695,-1464 -15,-263 26,-391 -138,-552 -222,-217 -620,-351 -1025,-391 -426,-42 -921,17 -1106,308 20,61 305,393 374,466 90,97 103,140 194,237 67,72 129,140 189,220 228,300 478,606 632,1051 317,917 -333,1795 -1552,1490 -748,-186 -1122,-516 -1638,-885 -186,-134 -392,-157 -662,-151 -361,9 -413,21 -567,264 -147,230 -677,927 -876,371 -90,-252 0,-483 46,-704 -171,105 -285,228 -467,350 -315,212 -682,436 -1039,581 -118,48 -519,174 -583,215z"/>
   <path class="fil0" d="M1489 13137c22,133 150,151 342,354 36,38 44,68 69,94l332 200c8,124 6,700 -47,765 -38,45 -43,38 -118,45 -270,26 -404,-75 -451,-38 -53,80 -39,91 33,139 160,107 386,0 584,32 187,30 387,304 314,517 -304,141 -563,-52 -833,-264 -123,-96 -223,-187 -323,-292 -357,-371 -445,-608 -522,-688 -102,-107 -301,-123 -148,-378 114,-190 423,-449 768,-486zm1806 130c-174,-259 -33,-118 -320,-325 -141,-102 -58,-65 -138,-192 -117,-186 -40,-163 -171,-156 -55,104 -28,134 22,203l193 280c62,110 1,37 90,73 80,32 136,69 119,195 -249,116 -92,15 -304,-153 -192,-152 -360,-411 -445,-452l-60 137c31,39 306,258 340,426 -412,-135 -198,-364 -478,-312 -68,214 59,109 174,280 70,104 181,141 334,179l38 123c-508,-133 -398,-413 -700,-366 1,225 268,275 399,406 90,89 -49,98 -142,92 -89,-137 -180,-220 -320,-330 -106,-82 -270,-205 -322,-330 110,-48 82,2 149,-93 95,-133 249,-178 432,-307 422,-295 749,-531 1209,-780 195,-105 436,-273 608,-398 211,-153 366,-268 564,-419 227,-172 246,-312 651,-350 301,-28 609,-108 895,-125 373,-21 528,236 704,311 -24,363 -394,765 -557,912 -711,645 -2082,1479 -2964,1471zm9890 -346c15,-21 30,-49 52,-71 2,-67 20,-131 60,-188 4,-5 15,-20 19,-24 31,-34 -5,-6 36,-30 101,60 164,194 165,363 -144,-12 -116,-56 -239,-65 -88,13 -27,-13 -47,32 26,153 117,80 104,291 -114,75 -104,38 -168,2 -57,-32 -137,-53 -207,-62l46 153c12,23 13,-29 18,50 3,36 0,25 -6,58 -54,25 -54,40 -116,1 -120,-18 -158,-124 -230,-102 -50,109 53,97 71,254 -73,20 -148,53 -217,2 -40,-30 -99,-138 -121,-203 127,-74 402,-252 447,-377l-121 -56c42,-237 298,-375 137,-609 -109,-157 -240,-166 12,-363 70,-54 49,-44 97,-122 -143,-312 -754,-338 -705,-1044 14,-201 267,-335 464,-413 596,-235 1075,-25 826,642 -59,159 -254,476 -250,630 9,355 14,426 -82,761 -168,588 -273,302 -279,605 120,-11 169,-68 234,-115zm-9699 -3339c78,88 164,281 96,460 -26,69 -213,207 -293,261 -105,70 -980,713 -826,224 29,-91 309,-394 381,-463 88,-85 494,-464 642,-482zm1497 446c201,-397 585,-218 936,-1052 324,-769 545,-587 1185,-805 211,-71 227,-160 378,-270 130,49 455,385 583,503l440 381c64,54 98,64 135,139 -182,-14 -326,-83 -518,-84 -209,-2 -326,65 -512,83 -334,32 -811,-125 -1095,-49 -87,103 -108,543 -144,717 -51,243 -235,415 -254,577 508,-220 362,-833 438,-1172 179,-54 429,-2 614,19 604,70 1257,-192 1669,193 -424,66 -840,22 -1250,144 -375,113 -750,435 -1025,698 -332,317 39,155 -645,380 -439,144 -698,208 -1158,49l223 -451zm-1439 -491c109,-88 233,-159 356,-243 379,-259 1035,-699 1385,-974l427 -314c108,-50 257,108 260,112 144,202 19,363 1,416 -194,-1 -165,-72 -258,-197l-132 -5c28,120 131,190 114,342 -10,96 -100,121 -236,213 -177,120 -349,248 -542,380 -211,145 -895,609 -1166,669l-25 -66c-7,-23 -8,-39 -16,-66 -42,-134 -130,-140 -168,-267zm2391 -1661c14,-53 37,-100 61,-135 196,62 467,266 322,520l-168 -18c-65,-320 -110,-201 -215,-367zm226 -244c191,-261 203,-97 388,33 107,76 247,202 280,376 -91,32 -193,74 -304,81 -85,-362 -256,-400 -364,-490zm324 -206c35,-134 192,-333 326,-352 25,75 10,110 0,195 121,79 70,30 122,152 49,112 220,136 276,260 24,53 46,150 49,210l-239 119c-67,-84 -156,-253 -221,-348 -57,-82 -218,-162 -313,-236zm6062 6c28,135 -195,345 -327,357 -316,29 -498,-628 -442,-953 132,48 114,99 189,190 82,97 167,23 278,-10 71,58 280,307 302,416zm1169 5358c-298,-189 -345,-197 -310,-533 28,-269 49,-535 78,-804 40,15 187,103 217,126 90,-75 782,-1157 820,-1221 250,-417 1100,-1826 1415,-2195l234 -299c111,-144 832,-1041 956,-1121 -78,222 -272,553 -394,799 -338,683 -894,1612 -1377,2214 -88,109 -167,229 -249,345 -417,590 -833,1152 -1239,1756 -84,125 -170,229 -135,439 29,176 131,381 -16,494zm-745 -6034c147,-85 386,-114 548,-54 11,141 -64,164 -77,315 -11,120 14,249 23,369 -129,21 -140,1 -209,-70 -144,-149 -345,-298 -285,-560zm295 931c-344,13 -263,29 -419,-167 -226,-283 -657,-731 -709,-1080 -31,-207 75,-316 234,-365 516,-157 382,325 648,74 164,-154 306,-179 489,-363 195,42 501,310 545,470 -55,50 -130,96 -191,141 -89,65 -95,91 -162,154 -459,-4 -514,-82 -921,109 29,156 129,426 198,565 185,372 323,140 288,462zm-6306 -447c72,-77 230,-75 369,-117 883,-263 1796,-1129 2308,-1138l-1 266c-184,36 -310,51 -484,112 -255,89 -173,125 -301,273 -173,201 -512,329 -725,421l-23 392c-58,256 -264,-67 -430,-49 -147,15 -291,89 -453,88 -49,-50 -81,-95 -131,-137 -55,-48 -92,-48 -129,-111zm5071 -349c-24,-39 -36,-69 -68,-108 -128,-153 -81,-72 -218,-294 -86,-140 -162,-329 -169,-523 -33,-902 1349,-931 1751,-588 263,225 99,328 -30,412 -130,85 -258,186 -434,233 -83,-104 -61,-103 -249,-111 -127,-5 -245,-15 -373,-7 -69,150 -171,212 -197,455 -26,240 58,332 131,508l-144 23zm-1981 -2348c365,12 523,311 657,584 156,316 357,387 99,859 -85,155 -244,382 -344,455 -184,133 -452,163 -548,-70 -69,-168 -108,-446 -165,-636 -40,-137 -88,-161 -22,-294 123,-249 217,-473 276,-751l47 -147zm-2377 816c7,-205 331,-534 454,-616 171,-113 189,-101 356,3 120,74 200,120 307,206 371,300 255,1170 -489,1229 63,-167 277,-225 429,-281 9,-162 12,-252 -170,-285 -263,-48 71,452 -447,240 -159,-65 -80,-73 -134,-212 -104,-46 -150,-6 -190,-121 -56,-160 -12,-69 -116,-163zm3731 652c137,345 174,527 248,918 63,335 147,608 239,912 41,63 145,166 271,160 167,-8 109,-120 315,-132l319 660c36,163 128,375 106,556 -33,263 -286,174 -389,252l417 417c138,138 331,223 380,445 -154,-2 -530,-30 -659,12 -190,63 -262,248 -365,301 -113,-130 -43,-509 -65,-564 -86,-98 -453,-423 -607,-459 -86,-19 -139,-60 -241,-84 -259,-61 -604,-52 -863,-21 -314,37 -732,101 -743,501l19 14c150,215 301,338 462,506 156,164 289,338 445,519 277,321 611,905 573,1383 -42,544 -474,904 -1052,910 -614,5 -1073,-413 -1453,-503 12,-218 174,-369 198,-556 4,-30 5,-25 3,-55 -1,-6 -2,-12 -3,-17l-9 -35c-60,-18 -19,-32 -161,76 -5,201 -67,306 -197,362 -73,32 -259,-52 -347,-161 -200,-248 -506,-236 -903,-225 -445,13 -465,212 -657,468 -69,92 -450,609 -619,315 -60,-104 -44,-385 -31,-517 16,-156 124,-246 197,-353 156,-229 302,-445 462,-667 335,-464 518,-1041 1284,-355l-97 619 163 -8 56 -475c105,-14 185,57 278,90 -34,159 -127,291 -42,363 56,43 123,-17 142,-68 25,-71 6,-176 4,-255 301,29 512,19 331,302 -64,101 -59,160 -64,294 288,-43 175,-227 278,-449 87,-187 300,-208 547,-178 565,68 733,533 959,436 -28,-65 -64,-145 -100,-193 -69,-90 -97,-62 -185,-123 -135,-94 -150,-139 -418,-217 -422,-123 -776,71 -1185,-7 -385,-74 -556,-284 -800,-449 -139,-95 -285,-149 -503,-132 -271,22 -286,95 -409,221l-490 -301c54,-382 751,-791 1161,-953 443,-175 862,-242 1342,-100 145,42 266,110 395,145 35,-50 28,-87 26,-163 -74,-66 -173,-211 -217,-314 -94,-42 -275,-176 -382,-249 -72,-49 -123,-79 -188,-140 -67,-63 -84,-106 -151,-164 -118,-48 38,-26 -213,-252l-347 -329c-182,-252 -298,-124 -447,-233 57,-57 218,-162 331,-154 117,8 63,135 308,154 82,-54 33,-67 184,-78 123,38 0,245 465,-11 413,-229 313,-292 1002,-433 296,-61 287,-45 546,-158 59,-41 97,-67 117,-150 -214,54 -416,124 -645,182 -211,53 -429,96 -638,161 -240,75 -292,216 -485,316 -284,148 -342,-120 -346,-368 125,-34 225,-117 342,-171 187,-86 250,44 382,49 186,7 402,-286 655,-324 46,9 30,104 298,144 -20,-178 -71,-175 -182,-259 -314,-236 -497,328 -851,292 -9,-81 34,-211 78,-259 91,-100 581,-267 759,-292 43,69 21,94 79,151 102,101 283,215 470,178 163,-33 461,-281 521,-361 428,-571 164,-733 36,-1361 410,96 361,178 400,405 42,239 106,421 156,646zm41 -366c-171,-287 290,-812 729,-998 224,-95 470,-157 744,-131 319,31 417,145 609,252 -8,208 -151,417 -277,477 -131,-139 -173,-194 -452,-215 -206,-16 -409,-2 -602,49 -437,117 -528,319 -729,544l-22 22zm-2027 -189c3,-64 231,-1028 242,-1051 174,-10 218,-3 229,168 8,122 -14,235 -50,343 -69,212 -170,356 -237,538l-184 2zm-840 -857c52,-51 110,-47 215,-71 75,-17 147,-35 218,-50 165,-35 315,-54 488,-58 3,397 -69,700 -305,984 -94,-133 -102,-314 -241,-472 -192,-217 -261,-136 -375,-333zm1101 -601c140,-18 323,-77 428,22 -15,63 -146,208 -200,252 -412,18 -833,-241 -664,-339 126,-73 201,95 436,65zm-3629 535c-18,-258 -133,-414 -56,-712 163,-619 1143,-93 1733,80 -39,146 -77,138 -166,214l-558 611c-73,80 -111,139 -177,213l-520 650c-260,334 -1227,1624 -1174,1915 154,45 661,6 866,3 -49,129 -364,391 -492,481 -241,171 -418,398 -590,327 -78,-32 -201,-174 -242,-252 -175,-340 10,-876 39,-1255 56,-739 -357,-1002 219,-1486 327,-276 766,-511 1118,-789zm-823 2926c82,-596 983,-1636 1266,-2013 61,-82 130,-139 188,-221 63,-88 121,-132 192,-217l772 -871c103,-119 355,-183 524,-275 352,-190 639,-445 1042,-599 628,-241 1400,-219 2011,97 208,107 266,263 134,530 -138,278 -393,493 -529,702 -127,196 -86,164 -222,163 -99,-248 -285,-314 -513,-442 59,-95 201,-178 305,-227 -117,-224 -457,-345 -650,-325 -113,12 -145,65 -251,78 -28,-6 -212,-302 -452,58 -149,224 174,276 258,353 -93,87 -156,61 -313,84 -116,16 -227,44 -338,71 -551,133 -658,135 -1008,633 -157,223 -237,369 52,498 -27,280 66,108 159,291 62,122 98,144 256,178l0 244c182,214 502,-21 665,-120 394,-240 127,-143 423,-532 128,2 228,-3 317,64 -58,123 -128,80 -230,179 -122,117 -556,386 -710,480 -332,203 -652,406 -1009,589 -228,118 -327,222 -566,58 -307,-211 -466,149 -509,181 -46,35 -91,32 -141,63 -59,37 -57,76 -108,96 -60,25 -84,-9 -160,7 -177,38 28,103 -855,145zm1884 -5700c-60,-14 -42,-25 -110,-9 -102,24 -37,12 -59,47 -146,-30 -64,-7 -83,20 -277,-49 -1351,459 -1671,643 -54,31 -398,229 -439,279 -35,44 -2,-23 -22,40 -81,2 -22,-18 -166,80 -59,40 -86,61 -143,103l-208 161c-15,12 -19,15 -31,31 -25,34 -15,15 -27,55 -73,3 -19,-25 -89,34 -3,3 -23,26 -28,33 -24,37 -14,14 -25,57 -90,2 -55,3 -180,128l-328 328c-52,54 -123,124 -135,192 -33,-3 -25,-9 -18,24 -37,-8 -29,-13 -17,24 -56,16 -52,-10 -69,73 -31,0 -24,-7 -17,25 -58,26 -72,28 -83,101 -36,-4 -27,-10 -16,26 -43,-12 -33,-16 -16,25 -63,12 -40,-53 -48,54 -39,-8 -30,-13 -16,26 -73,11 -63,-3 -61,82 -26,7 -21,-11 -80,64 -55,70 -165,223 -171,299 -55,25 -37,-6 -38,65 -66,15 -61,22 -62,102 -52,20 -18,-20 -59,45 -28,44 -22,51 -23,98 -63,24 -77,87 -119,171 -590,1192 -770,2006 -772,3329l1 225c18,69 -21,24 33,54 -32,146 0,292 19,428 10,75 16,140 26,199 8,50 9,77 16,107 23,103 -11,49 40,87 -12,58 -20,61 -7,125 25,126 15,56 48,79 -37,185 230,912 319,1134 34,86 91,272 170,325 -16,73 -15,33 19,43 -4,62 1,65 24,116 32,68 26,62 77,92 -12,72 -12,28 21,40 -13,74 -13,29 22,39 -15,73 -14,32 21,39 2,51 -4,39 17,83 35,75 5,34 63,64 -12,72 -13,31 24,36 1,63 -23,12 13,68 25,40 2,19 49,34 0,73 -19,41 38,64 4,61 -2,26 13,88 -72,19 -255,170 -332,222 -118,80 -229,153 -344,230 -254,168 -792,446 -1097,626 -170,101 -492,432 -319,706 92,146 97,33 287,288l255 319c154,199 401,397 607,542 111,78 220,168 370,204 560,137 500,-313 281,-527 -150,-148 -161,-126 -159,-415 1,-191 0,-383 0,-575l900 -351c537,-218 510,-116 745,122 53,53 30,50 102,61 28,57 50,92 123,102 -5,37 -11,28 26,16 15,47 -28,5 27,56 53,49 2,25 75,27 -12,42 -16,32 25,16 10,52 3,40 71,93 36,29 50,41 92,73 96,72 140,124 226,122 18,86 210,173 340,255 64,40 69,55 149,55l14 27c42,50 179,116 252,117 5,37 -35,38 41,20 70,121 752,350 881,392 97,31 264,93 353,77 22,35 -3,26 61,43 65,18 31,11 96,1 44,48 -63,10 68,40 71,17 28,12 99,-1 17,55 -21,20 36,28 56,9 22,2 63,-6 43,46 -22,0 41,26 202,84 901,124 1125,127 149,2 274,46 503,13 140,-21 191,8 235,-46 -715,40 -1220,-2 -1904,-120l-99 -22 -167 -39 -157 -44c-445,-139 -836,-270 -1234,-469l-41 -20c-82,-40 -173,-99 -266,-144 -170,-95 -326,-196 -489,-310 -36,-27 -56,-33 -99,-66 -37,-28 -55,-46 -91,-72 -82,-60 -120,-88 -199,-150l-25 -16 -102 -83 -26 -16 -123 -102c-83,-88 -271,-221 -320,-327l214 -40c64,-41 465,-167 583,-215 357,-145 724,-369 1039,-581 182,-122 296,-245 467,-350 -46,221 -136,452 -46,704 199,556 729,-141 876,-371 154,-243 206,-255 567,-264 270,-6 476,17 662,151 516,369 890,699 1638,885 1219,305 1869,-573 1552,-1490 -154,-445 -404,-751 -632,-1051 -60,-80 -122,-148 -189,-220 -91,-97 -104,-140 -194,-237 -69,-73 -354,-405 -374,-466 185,-291 680,-350 1106,-308 405,40 803,174 1025,391 164,161 123,289 138,552 78,1306 472,1092 695,1464 -34,81 -115,118 -164,178 49,336 208,269 34,743 -48,129 -45,261 -120,331 -87,80 -180,135 -253,218 58,377 178,283 268,390l804 -447 277 -338c132,-162 169,-203 166,-474 -92,-216 -25,-408 78,-552l746 -1080c56,-83 114,-138 160,-202 43,-101 116,-195 176,-282 64,-94 139,-190 198,-274l6 51 -18 86 -82 285 -21 62 -20 61 -81 227 -40 105 -41 103 -42 99 -18 47 -44 96 -19 45 -18 44 -19 44 -19 43 -20 42 -20 41 -21 40 -21 40 -22 39 -23 37 -23 36 -59 106 -24 35 -61 104 -62 102c-81,124 -157,240 -245,370 -59,78 -116,162 -184,246l-100 128 -16 25 -16 25 -17 14 17 -14 16 -25c29,-3 22,5 16,-25 32,-16 32,-8 63,-42 59,-62 32,-21 37,-86 49,-17 12,11 64,-39 55,-53 116,-140 120,-207 82,-28 244,-293 245,-370 65,-15 60,-21 62,-102 66,-16 60,-25 61,-104 37,-4 36,37 24,-35 61,-24 56,-33 59,-106 36,-8 35,37 23,-36 32,-13 30,30 23,-37 29,-18 27,24 22,-39 28,-21 24,20 21,-40l21 -40 20 -41 20 -42c28,-22 27,21 19,-43 30,-20 30,25 19,-44 31,-16 32,24 18,-44 35,-13 36,27 19,-45 53,-19 9,18 33,-31 26,-53 14,9 11,-65 33,-16 35,31 18,-47 50,-20 11,17 32,-31 25,-56 15,12 10,-68 43,-23 13,11 32,-34 23,-56 14,10 9,-69 42,-22 14,12 32,-34 22,-57 15,12 8,-71 44,-31 2,12 32,-32 21,-30 12,-12 28,-56 22,-59 27,-76 21,-139 31,-16 43,52 20,-61 31,-16 44,51 21,-62 35,-28 11,3 38,-48 9,-18 20,-57 26,-76 19,-68 29,-89 18,-161 24,-21 46,48 18,-86 72,-48 29,-85 127,-226l445 -642c203,-270 712,-1050 842,-1312 185,-375 285,-508 462,-973 43,-114 179,-434 187,-531 -95,64 -385,417 -497,528l-467 580c-149,191 -303,381 -451,574 -83,108 -365,568 -431,615 0,-473 0,-732 -57,-1193l-35 -273c-26,-113 4,-51 -44,-82 55,-260 -323,-1232 -453,-1534 -105,-247 -223,-445 -347,-678l-59 -85c-39,-33 16,-3 -39,-23 -2,-84 -163,-306 -188,-324l-41 -20c21,-87 -20,-74 -59,-86 -1,-77 -11,-72 -75,-111 -15,-85 18,-32 -47,-53 11,-36 20,-30 -16,-27 7,-71 -34,-66 -65,-78 -5,-85 1,-69 -67,-76 16,-41 26,-37 -17,-24 -3,-96 -2,-35 -131,-197l-319 -337c-151,-115 -103,-136 -204,-145 10,-38 16,-30 -22,-19 12,-40 18,-32 -22,-19 -16,-61 9,2 -18,-43 -4,-7 -33,-43 -36,-46 -51,-54 -39,-52 -107,-57 10,-39 15,-31 -23,-18 14,-43 18,-34 -24,-18 -8,-62 15,-60 -74,-68 7,-38 13,-29 -25,-17 -16,-56 43,-29 -51,-49 -1,-31 6,-24 -26,-16 -22,-49 8,-31 -54,-47 -4,-29 3,-22 -27,-15 5,-38 11,-28 -28,-15 -2,-39 39,-33 -28,-30 -42,-59 -10,-48 -87,-58 -25,-48 3,-34 -60,-42 -37,-67 -40,-53 -109,-99 -63,-43 -63,-59 -145,-60 -13,-64 -19,-59 -99,-63 -19,-63 -26,-58 -103,-62 -19,-64 -28,-58 -104,-60 -6,-36 35,-35 -36,-23 -12,-33 31,-31 -37,-23 -17,-30 24,-26 -38,-23 -44,-54 -4,-32 -74,-33 -6,-37 35,-38 -40,-21 -7,-36 34,-37 -40,-21 -8,-35 33,-36 -41,-20 -8,-36 33,-37 -40,-21 -22,-37 47,-27 -46,-30l-43 -19 -43 -20 -44 -17c-20,-30 20,-31 -45,-19 -16,-34 32,-26 -46,-26l46 26 45 19 44 17 43 20 43 19 46 30 40 21 41 20 40 21 40 21 74 33 38 23 37 23 36 23 104 60 103 62 99 63 254 159 60 42 87 58 28 30 28 15 27 15 54 47 26 16 51 49 25 17 74 68 24 18 23 18 161 146 22 19 22 19c89,113 234,198 344,333 55,68 102,105 158,169 55,63 94,125 152,177l17 24 67 76 65 78 16 27 47 53 75 111 59 86c86,124 153,227 229,344 201,363 376,662 540,1081 159,407 264,787 358,1239 48,258 187,1385 98,1634 -25,71 -176,309 -235,344l2 -132c-57,210 -12,177 -132,365l-1349 2037c-1,-3 -7,7 -12,10 -118,-79 -128,-113 -86,-273 162,-617 170,-532 -94,-902l-283 -354c-100,-133 -458,-421 -509,-549 224,-68 283,-76 283,-365 0,-287 -191,-711 -330,-949 -140,-241 -26,-209 68,-410 130,52 63,115 233,125 105,6 225,6 331,5 127,-436 190,-179 256,-359 49,-133 6,-396 38,-556 35,-173 148,-241 271,-324l363 -232c-24,-142 -135,-191 -224,-263 -96,-78 -170,-134 -266,-205 -169,-125 -162,-24 -218,-254 -14,-56 -36,-124 -61,-164 -53,-86 -61,-42 -112,-106 86,-97 145,-152 205,-320 82,-232 26,-258 -112,-356 -497,-357 -1493,-132 -1904,413 -90,120 -103,234 -170,338 -88,-130 -16,-297 -156,-367 -115,-58 -260,-100 -383,-149 -24,-277 526,-669 656,-1128 140,-498 -765,-641 -1076,-688 -947,-144 -1406,231 -2046,622 -147,91 -405,255 -579,302l-9 -155c-221,-69 -433,-119 -649,-194 -376,-130 -1006,-355 -1176,157 -88,264 -18,463 -13,734 -136,89 -300,202 -454,297 -303,187 -605,391 -804,673 -145,205 -141,327 -100,603 167,1136 -222,1525 20,2013 99,200 196,230 413,321 -48,50 -132,94 -193,136l-547 396c-229,168 -503,336 -750,501 -195,130 -518,406 -688,564 -84,79 -429,382 -435,496 -3,59 25,190 51,243 199,28 371,-122 507,-206l2571 -1614c159,-109 291,-251 419,-296 -36,209 -155,409 -236,582 -114,243 -35,138 -405,375 -196,125 -276,187 -391,388 -87,151 -188,373 -212,574 65,30 145,84 199,126l-479 346c-171,130 -1362,956 -1483,1007l-142 101c-27,-19 -10,-4 -37,-28 -3,-3 -13,-18 -17,-24l-38 -64 -62 -102 -24 -36 -80 -147 -21 -39 -22 -39 -21 -40 -101 -208 -19 -43c-219,-508 -346,-889 -489,-1459l-41 -204 -101 -821c-60,-1052 101,-2050 485,-3000 154,-379 238,-488 372,-779l82 -143 62 -102 38 -65c84,-123 155,-236 251,-363l61 -82 16 -26 48 -54 16 -25 16 -26 83 -101 17 -25 69 -73 17 -24 18 -24c53,-46 87,-98 158,-168 60,-59 95,-113 155,-174 97,-98 257,-217 330,-306l142 -124c179,-155 382,-295 575,-430 646,-415 1264,-739 2132,-962l83 -20 169 -38c1005,-239 2084,-177 3075,37l82 20 81 21 147 39 495 162 106 40 48 15 53 26 48 17 35 16 -35 -16c-23,-29 22,-30 -48,-17 -25,-31 43,-29 -53,-26l-48 -15c-32,-47 -40,-45 -106,-40 -52,-65 -419,-173 -495,-162 -25,-29 5,-21 -48,-38 -66,-21 -28,-15 -99,-1 -19,-27 63,-48 -81,-21 -19,-26 61,-48 -82,-20 -66,-87 -603,-150 -701,-164 -439,-64 -1199,-74 -1635,-18l-574 83c-113,21 -138,8 -165,62z"/>
   <path class="fil2" d="M9492 11543c116,-2 125,-53 165,253 53,397 6,452 -169,666 -80,99 -98,171 -223,218 -67,-325 14,-107 208,-480 149,-288 0,-371 19,-657zm-2311 379c16,-393 -18,-626 223,-657 68,77 97,175 164,253 151,-143 51,-254 243,-215 -12,97 -34,211 -80,284 -116,187 -72,179 -122,247l-82 4c-57,-73 -86,-183 -121,-252 -24,-47 -8,-26 -43,-62 -109,103 -16,238 -55,365l-127 33zm-966 624c-7,-374 544,-974 769,-1254 186,-231 181,-356 346,-257 -16,155 -168,255 -266,398 -54,79 -102,88 -166,163 -249,290 -250,414 -395,588 -204,248 -65,314 -288,362zm3571 -2647l-19 -14c-164,-45 -336,-236 -426,-329 -129,-35 -250,-103 -395,-145 -480,-142 -899,-75 -1342,100 -410,162 -1107,571 -1161,953l490 301c123,-126 138,-199 409,-221 218,-17 364,37 503,132 244,165 415,375 800,449 409,78 763,-116 1185,7 268,78 283,123 418,217 88,61 116,33 185,123 36,48 72,128 100,193 -226,97 -394,-368 -959,-436 -247,-30 -460,-9 -547,178 -103,222 10,406 -278,449 5,-134 0,-193 64,-294 181,-283 -30,-273 -331,-302 2,79 21,184 -4,255 -19,51 -86,111 -142,68 -85,-72 8,-204 42,-363 -93,-33 -173,-104 -278,-90l-56 475 -163 8 97 -619c-766,-686 -949,-109 -1284,355 -160,222 -306,438 -462,667 -73,107 -181,197 -197,353 -13,132 -29,413 31,517 169,294 550,-223 619,-315 192,-256 212,-455 657,-468 397,-11 703,-23 903,225 88,109 274,193 347,161 130,-56 192,-161 197,-362 142,-108 101,-94 161,-76l9 35c1,5 2,11 3,17 2,30 1,25 -3,55 -24,187 -186,338 -198,556 380,90 839,508 1453,503 578,-6 1010,-366 1052,-910 38,-478 -296,-1062 -573,-1383 -156,-181 -289,-355 -445,-519 -161,-168 -312,-291 -462,-506z"/>
   <path class="fil2" d="M5227 7459c883,-42 678,-107 855,-145 76,-16 100,18 160,-7 51,-20 49,-59 108,-96 50,-31 95,-28 141,-63 43,-32 202,-392 509,-181 239,164 338,60 566,-58 357,-183 677,-386 1009,-589 154,-94 588,-363 710,-480 102,-99 172,-56 230,-179 -89,-67 -189,-62 -317,-64 -296,389 -29,292 -423,532 -163,99 -483,334 -665,120l0 -244c-158,-34 -194,-56 -256,-178 -93,-183 -186,-11 -159,-291 -289,-129 -209,-275 -52,-498 350,-498 457,-500 1008,-633 111,-27 222,-55 338,-71 157,-23 220,3 313,-84 -84,-77 -407,-129 -258,-353 240,-360 424,-64 452,-58 106,-13 138,-66 251,-78 193,-20 533,101 650,325 -104,49 -246,132 -305,227 228,128 414,194 513,442 136,1 95,33 222,-163 136,-209 391,-424 529,-702 132,-267 74,-423 -134,-530 -611,-316 -1383,-338 -2011,-97 -403,154 -690,409 -1042,599 -169,92 -421,156 -524,275l-772 871c-71,85 -129,129 -192,217 -58,82 -127,139 -188,221 -283,377 -1184,1417 -1266,2013z"/>
   <path class="fil2" d="M3297 12379c163,-3 252,27 289,314 -153,-10 -136,-5 -201,-101 -65,-97 -73,-80 -88,-213zm-2 888c882,8 2253,-826 2964,-1471 163,-147 533,-549 557,-912 -176,-75 -331,-332 -704,-311 -286,17 -594,97 -895,125 -405,38 -424,178 -651,350 -198,151 -353,266 -564,419 -172,125 -413,293 -608,398 -460,249 -787,485 -1209,780 -183,129 -337,174 -432,307 -67,95 -39,45 -149,93 52,125 216,248 322,330 140,110 231,193 320,330 93,6 232,-3 142,-92 -131,-131 -398,-181 -399,-406 302,-47 192,233 700,366l-38 -123c-153,-38 -264,-75 -334,-179 -115,-171 -242,-66 -174,-280 280,-52 66,177 478,312 -34,-168 -309,-387 -340,-426l60 -137c85,41 253,300 445,452 212,168 55,269 304,153 17,-126 -39,-163 -119,-195 -89,-36 -28,37 -90,-73l-193 -280c-50,-69 -77,-99 -22,-203 131,-7 54,-30 171,156 80,127 -3,90 138,192 287,207 146,66 320,325z"/>
   <path class="fil2" d="M7111 1759l-169 38 -83 20c-868,223 -1486,547 -2132,962 -193,135 -396,275 -575,430l-142 124c-73,89 -233,208 -330,306 -60,61 -95,115 -155,174 -71,70 -105,122 -158,168l-18 24 -17 24 -69 73 -17 25 -83 101 -16 26 -16 25 -48 54 -16 26 -61 82c-96,127 -167,240 -251,363l-38 65 -62 102 -82 143c-134,291 -218,400 -372,779 -384,950 -545,1948 -485,3000l101 821 41 204c143,570 270,951 489,1459l19 43 101 208 21 40 22 39 21 39 80 147 24 36 62 102 38 64c4,6 14,21 17,24 27,24 10,9 37,28l142 -101c-46,-122 -139,-245 -202,-356 -1336,-2338 -978,-5362 655,-7383 512,-634 1085,-1162 1839,-1586 982,-553 2265,-978 3633,-885 1385,68 2539,499 3592,1244l411 325c314,278 665,606 917,950 192,263 411,551 591,886 350,655 643,1365 757,2209 96,433 95,1136 49,1585l-2 132c59,-35 210,-273 235,-344 89,-249 -50,-1376 -98,-1634 -94,-452 -199,-832 -358,-1239 -164,-419 -339,-718 -540,-1081 -76,-117 -143,-220 -229,-344l-59 -86 -75 -111 -47 -53 -16 -27 -65 -78 -67 -76 -17 -24c-58,-52 -97,-114 -152,-177 -56,-64 -103,-101 -158,-169 -110,-135 -255,-220 -344,-333l-22 -19 -22 -19 -161 -146 -23 -18 -24 -18 -74 -68 -25 -17 -51 -49 -26 -16 -54 -47 -27 -15 -28 -15 -28 -30 -87 -58 -60 -42 -254 -159 -99 -63 -103 -62 -104 -60 -36 -23 -37 -23 -38 -23 -74 -33 -40 -21 -40 -21 -41 -20 -40 -21 -46 -30 -43 -19 -43 -20 -44 -17 -45 -19 -46 -26 -15 -2 -35 -16 -48 -17 -53 -26 -48 -15 -106 -40 -495 -162 -147 -39 -81 -21 -82 -20c-991,-214 -2070,-276 -3075,-37z"/>
   <path class="fil2" d="M6050 4533c-352,278 -791,513 -1118,789 -576,484 -163,747 -219,1486 -29,379 -214,915 -39,1255 41,78 164,220 242,252 172,71 349,-156 590,-327 128,-90 443,-352 492,-481 -205,3 -712,42 -866,-3 -53,-291 914,-1581 1174,-1915l520 -650c66,-74 104,-133 177,-213l558 -611c89,-76 127,-68 166,-214 -590,-173 -1570,-699 -1733,-80 -77,298 38,454 56,712z"/>
   <path class="fil2" d="M4760 10479c460,159 719,95 1158,-49 684,-225 313,-63 645,-380 275,-263 650,-585 1025,-698 410,-122 826,-78 1250,-144 -412,-385 -1065,-123 -1669,-193 -185,-21 -435,-73 -614,-19 -76,339 70,952 -438,1172 19,-162 203,-334 254,-577 36,-174 57,-614 144,-717 284,-76 761,81 1095,49 186,-18 303,-85 512,-83 192,1 336,70 518,84 -37,-75 -71,-85 -135,-139l-440 -381c-128,-118 -453,-454 -583,-503 -151,110 -167,199 -378,270 -640,218 -861,36 -1185,805 -351,834 -735,655 -936,1052l-223 451z"/>
   <path class="fil2" d="M8429 8526c-57,-83 -105,-493 -104,-630 233,-65 1279,-380 1436,-387 264,782 694,1008 739,1291 -217,43 -545,100 -758,121 -191,20 -264,-37 -411,-39 -245,-4 -189,140 -181,197 44,103 143,248 217,314 92,-67 201,-237 266,-327 529,20 444,264 1023,-10 99,-47 139,-61 228,-5 72,46 121,76 188,120 288,188 287,100 471,145 31,98 -2,133 71,173 154,36 521,361 607,459 22,55 -48,434 65,564 103,-53 175,-238 365,-301 129,-42 505,-14 659,-12 -49,-222 -242,-307 -380,-445l-417 -417c103,-78 356,11 389,-252 22,-181 -70,-393 -106,-556 -53,-33 -8,-30 -52,8 -27,25 -196,392 -734,705 -356,207 -341,113 -472,-23 -127,-133 -231,-261 -354,-401 91,-115 372,-243 623,-497 195,-198 126,-84 388,-166 121,-38 240,-180 282,-286 -206,12 -148,124 -315,132 -126,6 -230,-97 -271,-160 -237,252 -180,180 -532,379l-597 330c-66,-78 -163,-246 -233,-353 -81,-123 -165,-232 -238,-357 -405,-696 18,-663 -33,-808 -259,113 -250,97 -546,158 -689,141 -589,204 -1002,433 -465,256 -342,49 -465,11 -151,11 -102,24 -184,78 -245,-19 -191,-146 -308,-154 -113,-8 -274,97 -331,154 149,109 265,-19 447,233l347 329c251,226 95,204 213,252z"/>
   <path class="fil2" d="M14847 10629c-91,322 -273,712 -428,980 -89,152 -173,309 -266,453 -46,70 -240,362 -290,401 3,271 -34,312 -166,474l-277 338 -804 447c-117,119 -298,218 -443,317 -1157,790 -2685,1159 -4112,1062 -1334,-91 -2287,-501 -3312,-1166l-618 -489c-73,-68 -126,-108 -193,-178l-214 40c49,106 237,239 320,327l123 102 26 16 102 83 25 16c79,62 117,90 199,150 36,26 54,44 91,72 43,33 63,39 99,66 163,114 319,215 489,310 93,45 184,104 266,144l41 20c398,199 789,330 1234,469l157 44 167 39 99 22c684,118 1189,160 1904,120l10 13c118,-51 1047,-30 2393,-633 432,-193 1038,-579 1398,-878l403 -340c72,-90 184,-189 272,-277 48,-48 88,-84 134,-133 51,-55 79,-98 135,-159l17 -14 16 -25 16 -25 100 -128c68,-84 125,-168 184,-246 88,-130 164,-246 245,-370l62 -102 61 -104 24 -35 59 -106 23 -36 23 -37 22 -39 21 -40 21 -40 20 -41 20 -42 19 -43 19 -44 18 -44 19 -45 44 -96 18 -47 42 -99 41 -103 40 -105 81 -227 20 -61 21 -62 82 -285 18 -86 -6 -51c-59,84 -134,180 -198,274 -60,87 -133,181 -176,282z"/>
   <path class="fil3" d="M10375 6882c-20,83 -58,109 -117,150 51,145 -372,112 33,808 73,125 157,234 238,357 70,107 167,275 233,353l597 -330c352,-199 295,-127 532,-379 -92,-304 -176,-577 -239,-912 -74,-391 -111,-573 -248,-918 -123,72 -125,137 -233,237 -85,79 -145,161 -228,245 -162,164 -339,260 -568,389z"/>
   <path class="fil2" d="M13716 12790c147,-113 45,-318 16,-494 -35,-210 51,-314 135,-439 406,-604 822,-1166 1239,-1756 82,-116 161,-236 249,-345 483,-602 1039,-1531 1377,-2214 122,-246 316,-577 394,-799 -124,80 -845,977 -956,1121l-234 299c-315,369 -1165,1778 -1415,2195 -38,64 -730,1146 -820,1221 -30,-23 -177,-111 -217,-126 -29,269 -50,535 -78,804 -35,336 12,344 310,533z"/>
   <path class="fil2" d="M12902 13431l99 -8 5 -101 -46 -153c70,9 150,30 207,62 64,36 54,73 168,-2 13,-211 -78,-138 -104,-291 -25,-19 -5,-5 -46,-17 -65,47 -114,104 -234,115 6,-303 111,-17 279,-605 96,-335 91,-406 82,-761 -4,-154 191,-471 250,-630 249,-667 -230,-877 -826,-642 -197,78 -450,212 -464,413 -49,706 562,732 705,1044 -48,78 -27,68 -97,122 -252,197 -121,206 -12,363 161,234 -95,372 -137,609l121 56c-45,125 -320,303 -447,377 22,65 81,173 121,203 69,51 144,18 217,-2 -18,-157 -121,-145 -71,-254 72,-22 110,84 230,102z"/>
   <path class="fil3" d="M8429 8526c67,58 84,101 151,164 65,61 116,91 188,140 107,73 288,207 382,249 -8,-57 -64,-201 181,-197 147,2 220,59 411,39 213,-21 541,-78 758,-121 -45,-283 -475,-509 -739,-1291 -157,7 -1203,322 -1436,387 -1,137 47,547 104,630z"/>
   <path class="fil2" d="M1868 14051c-54,234 -233,248 -496,236 -230,-10 -123,-313 119,-355l-57 200c173,-28 231,-88 434,-81zm-423 -525c98,-8 126,22 174,74 44,47 78,81 72,176l-132 7 -86 -118c-45,-55 -28,-58 -28,-139zm44 -389c-345,37 -654,296 -768,486 -153,255 46,271 148,378 77,80 165,317 522,688 100,105 200,196 323,292 270,212 529,405 833,264 73,-213 -127,-487 -314,-517 -198,-32 -424,75 -584,-32 -72,-48 -86,-59 -33,-139 47,-37 181,64 451,38 75,-7 80,0 118,-45 53,-65 55,-641 47,-765l-332 -200c-25,-26 -33,-56 -69,-94 -192,-203 -320,-221 -342,-354z"/>
   <path class="fil2" d="M10050 4543l-47 147c-59,278 -153,502 -276,751 -66,133 -18,157 22,294 57,190 96,468 165,636 96,233 364,203 548,70 100,-73 259,-300 344,-455 258,-472 57,-543 -99,-859 -134,-273 -292,-572 -657,-584z"/>
   <path class="fil2" d="M12031 6891l144 -23c-73,-176 -157,-268 -131,-508 26,-243 128,-305 197,-455 128,-8 246,2 373,7 188,8 166,7 249,111 176,-47 304,-148 434,-233 129,-84 293,-187 30,-412 -402,-343 -1784,-314 -1751,588 7,194 83,383 169,523 137,222 90,141 218,294 32,39 44,69 68,108z"/>
   <path class="fil2" d="M3544 9537c38,127 126,133 168,267 8,27 9,43 16,66l25 66c271,-60 955,-524 1166,-669 193,-132 365,-260 542,-380 136,-92 226,-117 236,-213 17,-152 -86,-222 -114,-342l132 5c93,125 64,196 258,197 18,-53 143,-214 -1,-416 -3,-4 -152,-162 -260,-112l-427 314c-350,275 -1006,715 -1385,974 -123,84 -247,155 -356,243z"/>
   <path class="fil2" d="M10375 6882c229,-129 406,-225 568,-389 83,-84 143,-166 228,-245 108,-100 110,-165 233,-237 -50,-225 -114,-407 -156,-646 -39,-227 10,-309 -400,-405 128,628 392,790 -36,1361 -60,80 -358,328 -521,361 -187,37 -368,-77 -470,-178 -58,-57 -36,-82 -79,-151 -178,25 -668,192 -759,292 -44,48 -87,178 -78,259 354,36 537,-528 851,-292 111,84 162,81 182,259 -268,-40 -252,-135 -298,-144 -253,38 -469,331 -655,324 -132,-5 -195,-135 -382,-49 -117,54 -217,137 -342,171 4,248 62,516 346,368 193,-100 245,-241 485,-316 209,-65 427,-108 638,-161 229,-58 431,-128 645,-182z"/>
   <path class="fil2" d="M13266 7687c35,-322 -103,-90 -288,-462 -69,-139 -169,-409 -198,-565 407,-191 462,-113 921,-109 67,-63 73,-89 162,-154 61,-45 136,-91 191,-141 -44,-160 -350,-428 -545,-470 -183,184 -325,209 -489,363 -266,251 -132,-231 -648,-74 -159,49 -265,158 -234,365 52,349 483,797 709,1080 156,196 75,180 419,167z"/>
   <path class="fil3" d="M12796 8529l-319 -660c-42,106 -161,248 -282,286 -262,82 -193,-32 -388,166 -251,254 -532,382 -623,497 123,140 227,268 354,401 131,136 116,230 472,23 538,-313 707,-680 734,-705 44,-38 -1,-41 52,-8z"/>
   <path class="fil2" d="M7673 5359c104,94 60,3 116,163 40,115 86,75 190,121 54,139 -25,147 134,212 518,212 184,-288 447,-240 182,33 179,123 170,285 -152,56 -366,114 -429,281 744,-59 860,-929 489,-1229 -107,-86 -187,-132 -307,-206 -167,-104 -185,-116 -356,-3 -123,82 -447,411 -454,616z"/>
   <path class="fil2" d="M11445 5645l22 -22c201,-225 292,-427 729,-544 193,-51 396,-65 602,-49 279,21 321,76 452,215 126,-60 269,-269 277,-477 -192,-107 -290,-221 -609,-252 -274,-26 -520,36 -744,131 -439,186 -900,711 -729,998z"/>
   <path class="fil2" d="M6960 7240c37,63 74,63 129,111 50,42 82,87 131,137 162,1 306,-73 453,-88 166,-18 372,305 430,49l23 -392c213,-92 552,-220 725,-421 128,-148 46,-184 301,-273 174,-61 300,-76 484,-112l1 -266c-512,9 -1425,875 -2308,1138 -139,42 -297,40 -369,117z"/>
   <path class="fil3" d="M9367 9393c2,76 9,113 -26,163 90,93 262,284 426,329l19 14 -19 -14c11,-400 429,-464 743,-501 259,-31 604,-40 863,21 102,24 155,65 241,84 -73,-40 -40,-75 -71,-173 -184,-45 -183,43 -471,-145 -67,-44 -116,-74 -188,-120 -89,-56 -129,-42 -228,5 -579,274 -494,30 -1023,10 -65,90 -174,260 -266,327z"/>
   <path class="fil2" d="M3486 9582c-148,18 -554,397 -642,482 -72,69 -352,372 -381,463 -154,489 721,-154 826,-224 80,-54 267,-192 293,-261 68,-179 -18,-372 -96,-460z"/>
   <path class="fil2" d="M8578 4599c114,197 183,116 375,333 139,158 147,339 241,472 236,-284 308,-587 305,-984 -173,4 -323,23 -488,58 -71,15 -143,33 -218,50 -105,24 -163,20 -215,71z"/>
   <path class="fil2" d="M12245 7016c-111,33 -196,107 -278,10 -75,-91 -57,-142 -189,-190 -56,325 126,982 442,953 132,-12 355,-222 327,-357 -22,-109 -231,-358 -302,-416z"/>
   <g>
    <path class="fil4" d="M123 10112c170,0 257,-22 431,-21 157,1 314,0 472,0l-181 127c-66,44 -118,81 -185,123l-393 242c2,34 57,239 71,257 45,59 179,52 277,51 241,-1 402,21 636,21 -88,76 -731,424 -759,430 2,73 58,279 82,328 67,-15 368,-210 452,-266l603 -381c57,-38 89,-73 155,-91 0,-371 -177,-287 -369,-287 -247,0 -418,-21 -656,-21 34,-46 737,-516 800,-533 -17,-71 -55,-231 -82,-287l-1436 0c21,92 74,214 82,308z"/>
    <path class="fil4" d="M1149 8307l-62 0 21 656 -267 0 -21 -574 -287 0 0 595 -225 0 -21 -576c-20,-98 24,-40 -287,-40l21 944 1374 -41 0 -472c0,-200 -21,-316 -21,-513 -104,0 -112,21 -225,21z"/>
    <path class="fil4" d="M1518 3610c64,17 83,50 135,91l688 542c64,48 223,191 284,208 17,-64 74,-114 138,-191l437 -568c-50,-75 -144,-141 -226,-185 -64,96 -120,164 -193,258 -41,51 -61,73 -100,126 -40,55 -65,94 -117,129 -50,-34 -152,-115 -185,-164 17,-64 42,-73 82,-123l267 -349c-76,-51 -146,-111 -226,-164l-369 451c-52,-35 -150,-96 -185,-143 97,-144 345,-405 370,-513 -83,-55 -144,-109 -226,-164 -19,72 -19,46 -64,100l-510 659z"/>
    <path class="fil4" d="M1415 4902l-267 -123c80,-340 390,-454 390,-164 0,70 -92,230 -123,287zm-656 41c89,21 527,248 619,304 97,59 537,289 632,311 26,-112 97,-175 123,-287 -132,-31 -381,-204 -472,-225 8,-87 24,-68 41,-144l636 0c15,-54 131,-265 164,-328l-677 41c103,-429 -515,-759 -820,-165 -84,163 -161,332 -246,493z"/>
    <path class="fil4" d="M779 6112c124,-3 277,-41 411,-41 -3,114 -52,172 -62,287 -85,-20 -159,-98 -258,-172l-91 -74zm-389 -246c-2,63 -42,204 -62,246 231,155 938,788 1169,944 46,-95 60,-239 103,-329 -44,-29 -76,-51 -120,-85 -45,-34 -70,-64 -126,-79 2,-99 74,-305 97,-394 29,-114 -23,-159 354,-159 22,-95 80,-257 82,-349 -406,34 -1117,173 -1497,205z"/>
    <path class="fil4" d="M13393 3282c49,73 128,140 185,225 47,-32 73,-45 118,-87l354 -302c111,166 261,290 369,451 -167,111 -290,261 -451,369 57,85 153,169 205,246l1046 -902c-43,-64 -141,-183 -205,-226 -152,80 -239,228 -390,308l-369 -431 369 -308c-19,-82 -24,-74 -77,-128 -43,-45 -69,-89 -108,-118 -62,17 -333,263 -394,323l-652 580z"/>
    <path class="fil4" d="M15178 4738c-49,-93 -95,-175 -144,-267 101,0 340,-40 431,-61 -32,47 -225,305 -287,328zm-903 -472c18,68 126,234 164,308 95,-22 212,-41 328,-41 18,73 193,350 247,451 -337,387 -114,221 -41,533 100,-27 401,-494 465,-580l458 -609c-43,-80 -81,-146 -124,-226l-1497 164z"/>
    <path class="fil4" d="M3938 1292l-410 226 697 1210c53,-35 203,-129 267,-144l-376 -669c-33,-61 -94,-181 -137,-213 38,-53 1,-12 108,77l390 348c46,38 57,38 102,83l200 190c51,-28 154,-89 205,-103 0,-248 -164,-801 -185,-1046 54,39 457,773 493,841 73,-6 186,-90 287,-144l-512 -883c-37,-65 -149,-245 -165,-306 -116,10 -289,173 -410,205 0,145 78,507 111,689l41 204c2,5 5,12 6,15 1,4 3,11 6,15 -34,47 -16,15 -57,-25 -23,-23 -26,-22 -45,-37l-264 -228c-123,-99 -235,-203 -352,-305z"/>
    <path class="fil4" d="M9907 1497c123,3 175,59 307,62 7,-82 39,-166 57,-230l125 -450c22,-74 48,-151 64,-223 3,4 7,6 8,13 1,7 6,10 7,13l45 141c19,68 30,119 51,194 30,104 173,680 227,717 58,40 282,75 360,112 48,-100 330,-1211 389,-1333 -32,-16 -262,-79 -307,-82 -24,48 -48,156 -66,221 -19,67 -41,143 -65,223 -24,86 -40,136 -62,224 -11,43 -22,85 -30,114 -10,33 -10,38 -19,63 -46,127 37,-90 -12,29l-13 28c-8,-100 -202,-728 -246,-902 -19,-76 -13,-133 -75,-171 -36,-22 -317,-95 -376,-96 -36,74 -63,222 -91,320 -34,119 -63,219 -96,334 -31,106 -67,232 -96,335 -27,95 -84,250 -86,344z"/>
    <path class="fil4" d="M7384 328c145,-34 282,-61 410,0 31,134 58,226 -131,259 -72,13 -171,28 -238,28 -1,-41 -31,-263 -41,-287zm-164 1149c45,-22 234,-41 307,-41 -4,-177 -61,-359 -61,-554 81,0 83,-7 143,-21 27,102 306,428 329,513 131,0 250,-38 369,-41 -39,-144 -355,-404 -390,-554 337,-78 330,-758 -185,-758 -189,0 -340,29 -522,52 -153,19 -171,-28 -161,92 30,356 144,989 171,1312z"/>
    <path class="fil4" d="M6071 1190c3,-134 41,-282 41,-431 51,37 222,282 267,349 -93,7 -216,60 -308,82zm-185 -821l-205 1497c112,-2 243,-57 349,-82 0,-80 -3,-139 10,-216 18,-112 18,-100 119,-127 135,-36 258,-78 384,-108 68,46 157,175 205,246 39,-19 270,-80 328,-82 -26,-113 -606,-781 -704,-896 -45,-54 -76,-90 -121,-145 -38,-46 -90,-105 -118,-148 -43,20 -184,60 -247,61z"/>
    <path class="fil4" d="M9127 431c4,156 99,254 103,410 -119,0 -171,-21 -308,-21l143 -288c34,-77 1,-56 62,-101zm-66 -431l49 0c39,5 93,19 181,21 62,264 459,1262 472,1415 -147,0 -227,-21 -349,-21 -7,-86 -60,-212 -82,-303l-533 -25c-203,384 -27,246 -472,246 122,-231 229,-455 356,-690 272,-506 307,-626 378,-643z"/>
    <path class="fil4" d="M12306 1805c-81,-19 -224,-86 -266,-144l307 -266c0,133 -38,286 -41,410zm-1025 82l307 184c25,-36 187,-178 226,-205l468 234c5,268 -104,280 120,389 64,31 101,58 171,75 0,-285 37,-617 60,-904l22 -593c-62,-33 -154,-86 -226,-103 -172,115 -1058,899 -1148,923z"/>
    <path class="fil4" d="M13086 1641c93,62 239,207 307,225 -62,118 -400,519 -507,663 -59,79 -118,142 -170,219 24,32 182,178 267,185 15,-57 109,-161 152,-217l326 -412c44,-55 135,-180 178,-212 62,17 105,68 159,108 53,40 110,102 170,118 20,-78 101,-143 143,-205 -56,-84 -526,-433 -642,-527 -66,-53 -149,-143 -240,-150 -21,77 -102,142 -143,205z"/>
    <path class="fil4" d="M7896 16654l-348 0c0,-171 -13,-164 20,-307 636,0 415,307 328,307zm-225 -574l-82 0c0,-168 -12,-147 20,-287 54,1 155,14 224,23 128,16 146,61 146,141 0,180 -172,123 -308,123zm-472 800c85,20 627,63 706,51 451,-66 498,-382 344,-588 -64,-87 -119,-72 -168,-140 243,-20 412,-550 -134,-645l-645 -52c0,234 -25,462 -43,696l-40 514c-4,92 -18,74 -20,164z"/>
    <path class="fil4" d="M11158 15075l615 1231c154,-13 700,-368 882,-410 -46,-87 -79,-183 -123,-267l-612 294c-27,-107 -83,-153 -106,-253 44,-21 80,-30 130,-55 49,-23 74,-37 123,-61 93,-47 174,-85 260,-130 -10,-113 -78,-159 -103,-267l-554 267c-16,-72 -69,-164 -102,-226l554 -266c-10,-113 -78,-159 -103,-267 -84,20 -504,241 -636,308 -73,36 -155,65 -225,102z"/>
    <path class="fil4" d="M12511 14357c141,210 773,959 841,1087l574 -451c73,-56 150,-129 206,-143 -50,-75 -113,-178 -185,-226 -62,17 -201,143 -260,191l-253 199c-58,-40 -122,-144 -164,-206 30,-40 385,-331 451,-348 -20,-78 -99,-149 -164,-246 -87,46 -354,277 -492,369 -18,-69 -85,-129 -123,-185 80,-119 394,-294 472,-410 -67,-100 -124,-131 -144,-205 -73,6 -64,14 -112,52l-647 522z"/>
    <path class="fil4" d="M5969 16593c340,0 471,-107 597,-490 43,-131 220,-599 223,-720 -99,-8 -191,-60 -287,-82 -47,98 -91,263 -131,382 -94,282 -143,622 -403,619 -137,-2 -266,-115 -266,-263 0,-97 101,-356 136,-459 45,-135 97,-331 151,-443 -62,-33 -224,-96 -308,-103 -114,489 -505,1052 -149,1380 88,80 274,179 437,179z"/>
    <path class="fil4" d="M9907 15424l307 1353 841 -184c-2,-74 -37,-237 -61,-287 -92,21 -168,43 -265,63 -88,18 -194,58 -289,60 0,-159 -222,-895 -226,-1067 -97,23 -194,62 -307,62z"/>
    <path class="fil4" d="M4307 15547c-108,0 -143,-17 -143,-185 -95,-22 -193,-60 -288,-82 -1,64 -80,272 120,435 448,367 675,-31 851,-346 116,-210 233,-395 342,-602 -98,-26 -185,-119 -287,-143l-406 722c-35,59 -112,201 -189,201z"/>
    <path class="fil4" d="M8943 15567c0,139 16,204 20,349l82 1026c130,0 171,-21 308,-21 0,-150 -19,-212 -21,-349 -3,-235 -49,-586 -61,-861 -5,-92 -19,-74 -21,-164 -95,0 -228,-11 -307,20z"/>
   </g>
   <path class="fil1" d="M13863 12463c50,-39 244,-331 290,-401 93,-144 177,-301 266,-453 155,-268 337,-658 428,-980 -46,64 -104,119 -160,202l-746 1080c-103,144 -170,336 -78,552z"/>
   <path class="fil2" d="M6485 7426c95,74 256,154 313,236 65,95 154,264 221,348l239 -119c-3,-60 -25,-157 -49,-210 -56,-124 -227,-148 -276,-260 -52,-122 -1,-73 -122,-152 10,-85 25,-120 0,-195 -134,19 -291,218 -326,352z"/>
   <path class="fil2" d="M12971 6756c-60,262 141,411 285,560 69,71 80,91 209,70 -9,-120 -34,-249 -23,-369 13,-151 88,-174 77,-315 -162,-60 -401,-31 -548,54z"/>
   <path class="fil2" d="M9418 5456l184 -2c67,-182 168,-326 237,-538 36,-108 58,-221 50,-343 -11,-171 -55,-178 -229,-168 -11,23 -239,987 -242,1051z"/>
   <path class="fil0" d="M6215 12546c223,-48 84,-114 288,-362 145,-174 146,-298 395,-588 64,-75 112,-84 166,-163 98,-143 250,-243 266,-398 -165,-99 -160,26 -346,257 -225,280 -776,880 -769,1254z"/>
   <path class="fil0" d="M7181 11922l127 -33c39,-127 -54,-262 55,-365 35,36 19,15 43,62 35,69 64,179 121,252l82 -4c50,-68 6,-60 122,-247 46,-73 68,-187 80,-284 -192,-39 -92,72 -243,215 -67,-78 -96,-176 -164,-253 -241,31 -207,264 -223,657z"/>
   <path class="fil2" d="M9907 4272c54,-44 185,-189 200,-252 -105,-99 -288,-40 -428,-22 -235,30 -310,-138 -436,-65 -169,98 252,357 664,339z"/>
   <path class="fil0" d="M15124 7450c-114,-844 -407,-1554 -757,-2209 -180,-335 -399,-623 -591,-886 -252,-344 -603,-672 -917,-950l-411 -325c-1053,-745 -2207,-1176 -3592,-1244 73,48 392,37 670,82 592,96 1171,245 1719,496 383,174 668,330 956,521 165,109 278,196 427,312 1216,951 2108,2347 2420,3879 9,48 21,107 29,155 5,28 8,62 14,88l33 81z"/>
   <path class="fil2" d="M6161 7632c108,90 279,128 364,490 111,-7 213,-49 304,-81 -33,-174 -173,-300 -280,-376 -185,-130 -197,-294 -388,-33z"/>
   <path class="fil0" d="M9265 12680c125,-47 143,-119 223,-218 175,-214 222,-269 169,-666 -40,-306 -49,-255 -165,-253 -19,286 130,369 -19,657 -194,373 -275,155 -208,480z"/>
   <path class="fil0" d="M1868 14051c-203,-7 -261,53 -434,81l57 -200c-242,42 -349,345 -119,355 263,12 442,-2 496,-236z"/>
   <path class="fil2" d="M5935 7876c105,166 150,47 215,367l168 18c145,-254 -126,-458 -322,-520 -24,35 -47,82 -61,135z"/>
   <path class="fil0" d="M9076 15321c434,0 1149,-148 1587,-289l549 -210c5,-2 11,-4 15,-6l113 -51c33,-17 24,-14 72,-32l155 -70c4,-2 9,-5 13,-7l569 -312c4,-2 9,-6 13,-8 2,-1 36,-18 41,-21l834 -621c4,-3 9,-6 13,-9 122,-85 40,-20 128,-118 3,-3 6,-7 9,-10l83 -87 -403 340c-360,299 -966,685 -1398,878 -1346,603 -2275,582 -2393,633z"/>
   <path class="fil2" d="M13237 12850c14,46 11,31 41,56 123,9 95,53 239,65 -1,-169 -64,-303 -165,-363 -41,24 -5,-4 -36,30 -4,4 -15,19 -19,24 -40,57 -58,121 -60,188z"/>
   <path class="fil0" d="M3586 12693c-37,-287 -126,-317 -289,-314 15,133 23,116 88,213 65,96 48,91 201,101z"/>
   <path class="fil0" d="M1559 13783l132 -7c6,-95 -28,-129 -72,-176 -48,-52 -76,-82 -174,-74 0,81 -17,84 28,139l86 118z"/>
   <path class="fil5" d="M12902 13431c62,39 62,24 116,-1 6,-33 9,-22 6,-58 -5,-79 -6,-27 -18,-50l-5 101 -99 8z"/>
   <path class="fil5" d="M13185 12921c41,12 21,-2 46,17 20,-45 -41,-19 47,-32 -30,-25 -27,-10 -41,-56 -22,22 -37,50 -52,71z"/>
  </g>
 </g>
</svg>
